<?xml version="1.0" encoding="utf-8"?>
<!-- Generator: Adobe Illustrator 27.5.0, SVG Export Plug-In . SVG Version: 6.00 Build 0)  -->
<svg version="1.1" xmlns="http://www.w3.org/2000/svg" xmlns:xlink="http://www.w3.org/1999/xlink" x="0px" y="0px"
	 viewBox="0 0 3710 3710" style="enable-background:new 0 0 3710 3710;" xml:space="preserve">
<g id="Background">
	<g>
		<g>
			<rect style="fill:#FFFFFF;" width="3710" height="3710"/>
		</g>
	</g>
</g>
<g id="Illustration">
	<g>
		<linearGradient id="SVGID_1_" gradientUnits="userSpaceOnUse" x1="3620.8269" y1="3464.0815" x2="1478.1307" y2="1541.9552">
			<stop  offset="0" style="stop-color:#B37CFF"/>
			<stop  offset="1" style="stop-color:#F895E7"/>
		</linearGradient>
		<path style="opacity:0.3;fill:url(#SVGID_1_);" d="M2906.815,2798.745c-72.205,74.427-87.346,85.148-136.812,118.177
			c-482.423,322.118-1180.464,244.261-1350.963,212.527c-275.078-51.198-410.169-69.272-609.674-249.516
			c-453.335-409.571-431.286-1263.965-84.882-1793.225c41.073-62.755,380.907-549.677,933.563-621.921
			c13.517-1.767,653.769-86.313,1085.763,275.611c61.838,51.808,161.353,145.255,253.635,287.779
			C3334.873,1549.304,3335.942,2356.418,2906.815,2798.745z"/>
		<g>
			
				<linearGradient id="SVGID_00000149383428310263840920000014649736088225564308_" gradientUnits="userSpaceOnUse" x1="6864.4463" y1="210.2045" x2="7775.3042" y2="210.2045" gradientTransform="matrix(0.784 0.6208 -0.6208 0.784 -4598.373 -3487.3372)">
				<stop  offset="0" style="stop-color:#A737D5"/>
				<stop  offset="1" style="stop-color:#EF497A"/>
			</linearGradient>
			<path style="fill:url(#SVGID_00000149383428310263840920000014649736088225564308_);" d="M979.708,528.847
				c0.461-9.853,15.201-12.291,21.318-3.574c62.12,88.516,200.332,339.965,54.307,668.984
				c-183.21,412.804-124.162,599.298-22.282,731.817c0,0-164.541-95.544-230.766-286.578
				C639.687,1170.461,971.505,704.04,979.708,528.847z"/>
			<path style="fill:#FFFFFF;" d="M1002.915,680.695c-3.534,50.759-8.208,101.351-14.991,151.576
				c-6.479,50.268-14.701,100.221-24.7,149.755c-10.217,49.481-21.502,98.712-35.182,147.283
				c-13.427,48.64-29.258,96.553-45.347,144.596c-15.768,48.116-31.971,96.487-42.469,146.859
				c-10.529,50.254-14.315,102.894-7.009,155.333c1.836,13.074,3.948,26.187,6.906,39.119c2.692,12.968,6.027,25.878,9.62,38.748
				c7.329,25.724,16.572,51.194,27.866,76.087c22.732,49.753,53.784,96.99,90.575,139.961c3.872,4.523,10.932,5.694,15.77,2.615
				c4.75-3.022,5.589-9.019,1.952-13.517l-0.026-0.032c-8.632-10.653-17.123-21.371-25.071-32.35
				c-4.07-5.441-7.87-11.012-11.783-16.526c-3.682-5.621-7.603-11.135-11.093-16.838c-14.375-22.626-27.006-45.996-37.684-69.942
				c-21.592-47.766-35.436-98.084-42.515-148.175c-3.222-25.067-4.359-50.157-3.305-75.088c1.076-24.931,4.335-49.679,9.216-74.171
				c9.764-49.013,25.341-97.038,40.707-145.278c15.297-48.273,30.283-96.902,42.925-146.156
				c6.397-24.603,12.282-49.341,17.653-74.193c2.768-12.406,5.258-24.876,7.774-37.339c2.378-12.493,4.676-25.002,6.857-37.532
				c8.615-50.145,15.468-100.618,20.484-151.336c4.737-50.757,7.933-101.714,8.884-152.845c0.027-1.462-1.298-2.758-2.96-2.895
				C1004.354,678.282,1003.015,679.298,1002.915,680.695z"/>
		</g>
		<g>
			<g>
				
					<linearGradient id="SVGID_00000182501734375677533130000010851385955345529220_" gradientUnits="userSpaceOnUse" x1="-327.4031" y1="4072.0833" x2="546.1644" y2="4072.0833" gradientTransform="matrix(0.8196 -0.5732 0.5732 0.8196 -1328.3809 -2099.5205)">
					<stop  offset="0" style="stop-color:#CE1567"/>
					<stop  offset="1" style="stop-color:#7A1DBC"/>
				</linearGradient>
				<path style="fill:url(#SVGID_00000182501734375677533130000010851385955345529220_);" d="M895.702,1617.922
					c-12.898,7.687-29.456-0.297-31.667-15.148c-12.201-81.948-25.743-316.762,167.234-527.862
					c162.96-178.265,234.384-290.413,263.28-343.571c6.11-11.241,23.019-8.147,24.779,4.525
					C1338.742,875.68,1363.08,1339.371,895.702,1617.922z"/>
				<path style="fill:#FFFFFF;" d="M879.892,1605.138c-0.37-0.037-0.741-0.111-1.111-0.223c-3.099-0.934-4.855-4.205-3.92-7.305
					c1.06-3.514,108.43-354.352,323.818-612.453c2.074-2.483,5.77-2.818,8.258-0.745c2.485,2.076,2.819,5.771,0.745,8.259
					c-213.822,256.221-320.543,604.833-321.596,608.324C885.263,1603.726,882.628,1605.413,879.892,1605.138z"/>
			</g>
		</g>
		<g>
			
				<linearGradient id="SVGID_00000030470668438999002400000007099047063676895388_" gradientUnits="userSpaceOnUse" x1="1930.3501" y1="3395.8765" x2="1897.1123" y2="2737.7754">
				<stop  offset="0" style="stop-color:#2B3582"/>
				<stop  offset="1" style="stop-color:#150E42"/>
			</linearGradient>
			<polygon style="fill:url(#SVGID_00000030470668438999002400000007099047063676895388_);" points="1652.592,2648.758 
				1597.389,3143.854 2237.854,3143.854 2154.433,2648.758 			"/>
			
				<linearGradient id="SVGID_00000111185298127159742500000017139447937092721030_" gradientUnits="userSpaceOnUse" x1="462.0906" y1="2100.1035" x2="3247.9094" y2="2100.1035">
				<stop  offset="0" style="stop-color:#2B3582"/>
				<stop  offset="1" style="stop-color:#150E42"/>
			</linearGradient>
			<path style="fill:url(#SVGID_00000111185298127159742500000017139447937092721030_);" d="M462.091,1440.286v1235.584
				c0,101.644,80.998,184.764,182.607,187.384c451.296,11.637,2029.71,39.855,2459.314,33.522
				c73.837-1.088,133.653-60.176,135.783-133.99c8.284-287.043,21.738-977.286-28.051-1297.739
				c-10.485-67.484-67.447-117.947-135.706-120.13c-378.129-12.096-2051.353-50.507-2480.755-40.863
				C521.225,1305.716,462.091,1366.21,462.091,1440.286z"/>
			
				<linearGradient id="SVGID_00000023243900208691157600000002706608440116047263_" gradientUnits="userSpaceOnUse" x1="2012.3268" y1="973.3156" x2="1605.3368" y2="3556.8096">
				<stop  offset="0" style="stop-color:#FDF53F"/>
				<stop  offset="1" style="stop-color:#D93C65"/>
			</linearGradient>
			<path style="fill:url(#SVGID_00000023243900208691157600000002706608440116047263_);" d="M539.62,1434.271v1173.891
				c0,59.345,47.638,107.7,106.977,108.588l2395.61,29.597c58.829,0.879,107.052-46.451,107.271-105.287l4.008-1163.402
				c0.157-42.069-33.359-76.539-75.416-77.562l-2452.66-49.55C578.37,1349.401,539.62,1387.22,539.62,1434.271z"/>
			<path style="opacity:0.65;fill:#FFFFFF;" d="M3167.514,2794.26c-0.018,0-0.037,0-0.055,0l-2627.893-44.773
				c-1.726-0.031-3.102-1.453-3.073-3.178c0.029-1.728,1.381-2.992,3.18-3.074l2627.893,44.774c1.726,0.031,3.102,1.453,3.073,3.178
				C3170.61,2792.896,3169.216,2794.26,3167.514,2794.26z"/>
			
				<linearGradient id="SVGID_00000153669874557929047240000008578452686140968606_" gradientUnits="userSpaceOnUse" x1="1954.3982" y1="1341.0349" x2="1547.4082" y2="3924.5291">
				<stop  offset="0" style="stop-color:#FDF53F"/>
				<stop  offset="0.2128" style="stop-color:#F5CE47"/>
				<stop  offset="1" style="stop-color:#D93C65"/>
			</linearGradient>
			<path style="fill:url(#SVGID_00000153669874557929047240000008578452686140968606_);" d="M539.62,1434.271v1173.891
				c0,59.345,47.638,107.7,106.977,108.588l2395.61,29.597c58.829,0.879,107.052-46.451,107.271-105.287l4.008-1163.402
				c0.157-42.069-33.359-76.539-75.416-77.562l-2452.66-49.55C578.37,1349.401,539.62,1387.22,539.62,1434.271z"/>
			<path style="opacity:0.65;fill:#FFFFFF;" d="M1879.49,2848.946c-16.802,0-30.469-13.668-30.469-30.468
				c0-16.803,13.668-30.471,30.469-30.471c16.8,0,30.468,13.668,30.468,30.471C1909.958,2835.279,1896.29,2848.946,1879.49,2848.946
				z M1879.49,2794.26c-13.353,0-24.217,10.865-24.217,24.219s10.864,24.216,24.217,24.216c13.352,0,24.215-10.862,24.215-24.216
				S1892.842,2794.26,1879.49,2794.26z"/>
			
				<linearGradient id="SVGID_00000183969435521144982150000007936865532071613854_" gradientUnits="userSpaceOnUse" x1="1932.4185" y1="3147.5486" x2="1626.6334" y2="3818.9453">
				<stop  offset="0" style="stop-color:#2B3582"/>
				<stop  offset="1" style="stop-color:#150E42"/>
			</linearGradient>
			<path style="fill:url(#SVGID_00000183969435521144982150000007936865532071613854_);" d="M2375.81,3245.15h-937.364
				c-25.465,0-44.589-18.128-39.665-37.602l12.028-47.569c3.617-14.305,19.355-24.807,38.048-25.391l903.653-28.198
				c19.528-0.609,36.82,9.757,41.075,24.624l21.683,75.766C2420.901,3226.466,2401.687,3245.15,2375.81,3245.15z"/>
			<path style="fill:#FFFFFF;" d="M1943.045,3147.546c-1.705,0-3.099-1.371-3.125-3.08c-0.024-1.728,1.354-3.147,3.08-3.172
				l38.723-0.565c1.679-0.049,3.146,1.355,3.172,3.08c0.024,1.728-1.354,3.147-3.08,3.172l-38.723,0.565
				C1943.077,3147.546,1943.06,3147.546,1943.045,3147.546z"/>
			<path style="fill:#FFFFFF;" d="M1433.484,3218.996c-0.163,0-0.33-0.012-0.496-0.04c-1.705-0.272-2.867-1.875-2.593-3.578
				l5.524-34.598c2.973-18.629,18.821-32.345,37.68-32.623l410.714-6.005c1.761,0.122,3.146,1.353,3.172,3.08
				c0.024,1.728-1.354,3.148-3.08,3.172l-410.714,6.005c-15.815,0.232-29.105,11.735-31.599,27.354l-5.524,34.598
				C1436.321,3217.899,1434.993,3218.996,1433.484,3218.996z"/>
		</g>
		<g>
			<path style="opacity:0.54;fill:#FFFFFF;" d="M2580.028,2232.956h360.28c49.223,0,88.438,18.211,86.03,39.953l0.105,352.974
				c-2.248,20.288-35.271,53.536-81.203,53.536h-365.213c-47.569,0-86.132-17.054-86.132-38.09v-370.282
				C2493.896,2250.009,2532.458,2232.956,2580.028,2232.956z"/>
			<path style="opacity:0.54;fill:#FFFFFF;" d="M1508.311,1548.19l1419.331,19.871c54.66,0.765,97.748,42.422,95.074,91.914
				l0.118,436.834c-2.521,46.678-68.761,84.017-120.319,84.017H1506.817c-53.396,0-96.683-39.238-96.683-87.639v-457.366
				C1410.134,1586.887,1454.336,1547.435,1508.311,1548.19z"/>
			<path style="opacity:0.54;fill:#FFFFFF;" d="M1980.398,2232.952h386.759c31.246,0,56.574,17.294,56.574,38.629v375.512
				c0,21.333-25.329,38.628-56.574,38.628h-386.759c-31.244,0-56.574-17.295-56.574-38.628v-375.512
				C1923.824,2250.247,1949.153,2232.952,1980.398,2232.952z"/>
			<path style="opacity:0.54;fill:#FFFFFF;" d="M773.526,1549.6h496.757c40.132,0,72.665,23.912,72.665,53.411v519.217
				c0,29.497-32.533,53.41-72.665,53.41H773.526c-40.131,0-72.664-23.913-72.664-53.41v-519.217
				C700.862,1573.512,733.396,1549.6,773.526,1549.6z"/>
			<path style="opacity:0.54;fill:#FFFFFF;" d="M786.307,2228.74h612.203c49.459,0,89.552,17.478,89.552,39.039v379.502
				c0,21.56-40.093,39.038-89.552,39.038H786.307c-49.457,0-89.551-17.478-89.551-39.038v-379.502
				C696.755,2246.218,736.85,2228.74,786.307,2228.74z"/>
			<g style="opacity:0.6;">
				<path style="fill:#FFFFFF;" d="M1157.16,2530.684c-0.968,7.571-1.756,15.166-2.364,22.777c-0.145,1.816,0.209,4.284,1.962,4.462
					c1.056,0.107,1.934-0.778,2.645-1.592c3.02-3.455,6.265-7.912,4.804-12.318c-0.544-1.64-1.701-3.019-2.147-4.69
					c-0.67-2.514,0.38-5.188,0.11-7.781c-0.27-2.592-3.384-5.142-5.128-3.26L1157.16,2530.684z"/>
				<path style="fill:#FFFFFF;" d="M962.846,2281.642c-11.879-6.279-19.351-7.128-32.14-5.736
					c-12.063,1.313-20.215,7.374-28.497,16.01c-1.884,1.965-3.714,4.114-6.157,5.242c-10.236,4.725-23.217,3.773-33.67,8.437
					c-12.442,5.552-15.952,22.821-27.315,30.456c-6.578,4.42-14.867,4.979-22.09,8.142c-10.693,4.682-15.624,14.407-21.696,23.872
					c-3.734,5.82-17.487,15.793-16.707,22.6c0.142,1.24,0.662,2.405,1.313,3.455c3.787,6.104,9.443,6.747,15.41,8.49
					c7.884,2.303,12.64,5.842,19.616,10.775c7.275,5.146,17.172,9.646,17.802,18.739c0.292,4.22-1.677,8.207-2.64,12.319
					c-4.344,18.543,11.778,35.2,27.469,45.228c15.691,10.028,34.205,19.935,39.196,38.303c0.455,1.674,0.838,3.491,2.056,4.689
					c4.581,4.507,8.012-5.688,9.4-8.928c0.893-2.087,0.084-4.592-1.312-6.358c-1.396-1.767-3.302-3.006-5.019-4.438
					c-5.796-4.833-9.555-12.192-10.149-19.869c-0.076-0.976-0.082-2.032,0.452-2.84c2.72-4.118,9.5-5.807,12.826-10.796
					c4.758-7.137,5.844-13.909,6.653-22.38c2.975-31.119,31.307-20.104,49.092-33.902c3.311-2.569,5.799-6.624,6.369-10.767
					c0.314-2.285,0.045-4.596-0.991-6.699c-1.751-3.554-5.331-5.841-9.057-6.865s-7.642-0.949-11.497-0.867
					c-3.578,0.076-7.156,0.151-10.734,0.227c-1.058,0.022-2.147,0.052-3.117,0.489c-1.37,0.618-2.299,1.956-3.042,3.298
					c-2.394,4.324-3.574,9.358-3.362,14.336c-4.716,1.658-9.296-2.838-11.868-7.25c-2.97-5.093-5.104-10.706-6.286-16.527
					c-0.457-2.249-0.737-4.739,0.388-6.72c0.62-1.093,1.606-1.906,2.6-2.647c4.006-2.984,8.628-5.24,13.537-5.776
					c8.384-0.917,16.533,3.22,23.406,8.291c6.601,4.869,17.367,10.696,24.773,3.698c3.824-3.613,3.892-10.188,1.228-14.782
					c-4.327-7.462-15.361-11.366-22.55-15.134c-3.365-1.764-5.526-5.394-6.482-9.169c-0.956-3.775-0.865-7.738-0.767-11.639
					c9.95-4.066,21.644-3.271,30.994,2.107c1.327,0.763,2.743,1.825,2.899,3.388c0.161,1.605-1.066,2.946-2.034,4.212
					c-8.606,11.26-0.87,20.352,9.257,26.706c0.242-28.551,0.307-57.248,0.323-85.829
					C974.577,2287.209,968.589,2284.678,962.846,2281.642z"/>
				<path style="fill:#FFFFFF;" d="M1052.81,2305.82c-1.386-1.869-4.138-1.398-6.415-1.383c-7.273,0.047-13.051-6.294-20.042-8.368
					c-3.663-1.087-7.542-0.963-11.353-1.021c-11.62-0.177-23.206-2.162-34.278-5.813c-0.016,28.581-0.081,57.278-0.323,85.829
					c6.312,3.96,13.552,6.858,18.346,8.552c5.086,1.798,9.942,4.755,15.379,3.649c5.046-1.027,9.586-6.724,14.815-8.175
					c3.788-1.052,7.833-0.5,11.678-1.299s7.853-3.78,7.694-7.833c-0.13-3.301-2.934-5.784-5.725-7.39
					c0,0.315-4.835-3.641-5.293-4.498c-4.219-8.455,1.915-15.903,4.263-23.202c3.399-10.568-1.635-16.781,8.819-22.634
					C1052.599,2310.988,1054.348,2307.895,1052.81,2305.82z"/>
				<path style="fill:#FFFFFF;" d="M911.542,2573.443c1.82,3.834,3.314,7.454,3.711,10.536c1.725,13.406-9.433,29.901-14.177,42.14
					c-1.319,3.404-2.664,7.025-2.07,10.641c0.25,1.523,0.836,2.961,1.42,4.384c4.308,10.496,12.772,19.995,20.292,28.089
					c2.571-6.939,2.381-23.604,1.675-30.996c-0.233-2.438-0.639-4.99,0.229-7.27c2.785-7.311,11.847-17.369,18.097-21.73
					c6.125-4.274,14.175-7.706,15.763-15.17c0.61-2.87,0.097-5.944,0.995-8.732c0.539-1.671,1.551-3.127,2.359-4.679
					c3.962-7.618,6.21-22.325-1.723-27.736c-8.868-6.049-21.419,2.811-29.028-7.056c-1.148-1.489-2.003-3.222-3.309-4.564
					c-2.424-2.49-6.148-3.278-9.518-2.695C893.828,2542.486,904.875,2559.401,911.542,2573.443z"/>
				<path style="fill:#FFFFFF;" d="M1052.383,2462.7c7.083,4.686,19.308-5.594,23.804-17.613c0.563-1.504,1.084-3.075,2.115-4.285
					c2.098-2.465,5.706-2.78,8.85-2.326c3.144,0.455,6.279,1.498,9.428,1.08c4.518-0.6,8.25-4.188,10.36-8.364
					c2.11-4.177,2.869-8.92,3.599-13.571c3.343-0.853,6.956-0.524,10.103,0.918c2.431,1.114,4.83,3.569,4.151,6.229
					c-0.312,1.221-1.213,2.17-2.061,3.078c-2.651,2.836-5.121,5.854-7.388,9.026c-1.399,1.957-2.771,4.51-1.721,6.688
					c2.861,5.936,8.092,2.848,6.589,11.337c-1.892,10.634-15.856,14.981-7.879,27.684c2.919,4.649,8.229,7.429,13.582,7.681
					c3.841,0.18,8.571-1.878,8.62-5.855c0.015-1.179-0.406-2.392-0.049-3.512c0.465-1.457,2.061-2.17,3.526-2.401
					c4.797-0.755,9.434,1.736,13.86,3.792c1.336,0.62,2.931,1.198,4.202,0.445c4.139-2.455,2.208-4.479,7.835-5.022
					c4.799-0.462,10.413,3.365,13.131,7.148c0.653,0.91,1.244,2.082,0.83,3.131c-0.36,0.912-1.355,1.382-1.857,2.218
					c-0.828,1.379,0.006,3.284,1.311,4.186c1.305,0.901,2.928,1.099,4.465,1.426c7.21,1.535,7.379,8.645,12.473,12.193
					c4.136,2.881,14.672,3.449,13.742-4.837c-0.34-3.029-3.279-5.521-2.797-8.529c0.424-2.648,3.301-4.058,5.875-4.395
					c2.574-0.337,5.321-0.085,7.622-1.325c1.534-0.826,2.692-2.231,4.09-3.284c8.605-6.479,28.988-0.975,35.589,6.29
					c6.169,6.788,6.859,18.485,14.798,22.883c-0.927-9.02-5.327-17.607-12.022-23.464c-1.231-1.077-2.586-2.13-3.232-3.659
					c-0.542-1.283-0.511-2.738-0.442-4.137c0.352-7.144,1.707-13.797,3.592-20.465c-0.225,0.797,5.039-13.694,1.253-10.953
					c6.774-4.905,21.558-12.963,30.048-12.438c4.421,0.273,8.784,2.918,10.64,7.078c1.856,4.16,0.737,9.69-2.918,12.278
					c-3.499,2.478-8.354,2.002-11.908,4.394c-3.421,2.303-4.883,7.274-3.28,11.158c2.227-3.177,5.593-5.478,9.291-6.352
					c4.963-1.174,10.599,0.062,14.884-2.781c3.162-2.098,4.822-6.105,4.86-9.99c0.039-3.885-1.352-7.655-3.213-11.03
					c-1.346-2.441-2.966-4.78-3.686-7.49c-1.155-4.345,0.213-9.076,2.644-12.815c9.038-13.905,25.768-19.915,41.245-14.802
					c1.03,0.34,2.13,0.797,2.666,1.769c0.778,1.41,0.029,3.209,0.358,4.796c0.519,2.501,4.206,3.447,5.794,1.488
					c1.098-1.354,1.03-3.308,1.446-5.023c1.081-4.458,5.473-7.186,9.743-8.458c5.22-1.554,19.245-8.728,20.686,0.757
					c0.126,0.831,0.1,1.707,0.448,2.467c0.979,2.138,4.257,1.832,5.816,0.1c3.214-3.57,3.779-9.433,6.892-13.421
					c2.755-3.53,6.824-5.645,9.13-9.585c5.714-9.764,1.362-22.524-8.579-27.252c-9.525-4.531-20.609-2.521-30.927-0.602
					c-7.103,1.321-31.5,6.385-33.237-5.519c-0.142-0.976-0.111-2.015-0.568-2.882c-0.565-1.073-1.749-1.635-2.469-2.603
					c-0.92-1.236-0.957-2.923-1.453-4.396c-1.8-5.349-8.583-6.329-14.057-6.395c0.552-3.317,0.852-7.359-1.727-9.412
					c-1.457-1.16-3.424-1.288-5.261-1.369c-4.774-0.211-16.289,1.562-20.247-1.328c-5.243-3.827-1.632-10.347-3.917-15.626
					c-2.429-5.606-11.46-6.385-12.464-12.44c-0.217-1.31,0.02-2.659-0.131-3.979c-0.369-3.218-2.903-5.643-5.274-7.762
					c-4.297-3.84-9.164-7.904-14.84-7.753c-1.067,0.872-0.109,2.703,1.094,3.359c1.203,0.656,2.74,0.997,3.349,2.255
					c1.168,2.413-2.181,4.394-4.744,4.899c-0.125,3.526,3.302,5.862,5.95,8.087c4.472,3.758,7.649,9.131,8.847,14.96
					c-9.022,1.676-18.265,2.069-27.39,1.164c-10.994-1.09-18.056,16.962-31.087,11.958c-1.925-0.739-3.646-2.066-5.663-2.461
					c-5.073-0.994-9.159,3.978-13.718,6.484c-6.941,3.817-15.451,1.838-22.89-0.791c-8.888-3.14-19.696-7.649-28.655-2.232
					c-3.348,2.025-6.023,5.176-9.568,6.804c-7.441,3.416-15.882-0.778-23.986-1.583c-19.993-1.985-32.024,18.253-38.519,35.107
					c-0.986,2.558-1.87,5.245-1.741,7.995c0.129,2.75,1.479,5.597,3.906,6.729c3.595,1.678,7.773-0.987,10.12-4.266
					c2.347-3.279,3.773-7.287,6.645-10.084c2.871-2.797,8.148-3.697,10.416-0.359c1.116,1.643,1.161,3.792,1.166,5.8
					c0.008,3.813,0.016,7.625,0.023,11.438c0.004,2.097-0.005,4.266-0.829,6.182c-1.375,3.2-4.654,4.966-7.7,6.491
					c-6.617,3.313-13.234,6.626-19.85,9.939c-2.234,1.118-4.493,2.254-6.39,3.91c-8.643,7.547-2.835,17.992-9.503,25.258
					c-2.692,2.933-7.157,3.815-9.365,7.153c-1.632,2.467-1.623,5.677-1.555,8.665
					C1047.321,2456.081,1049.394,2460.723,1052.383,2462.7z"/>
				<path style="fill:#FFFFFF;" d="M1283.069,2526.115c-2.679,5.011-2.309,11.562-8.364,14.328c-4.028,1.841-9.183,1-12.463,4.039
					c-3.742,3.466-2.765,9.614-2.042,14.756c0.13,0.922,0.234,1.901-0.13,2.753c-0.964,2.256-4.421,2.197-5.607,4.337
					c-1.018,1.837,0.243,4.153,1.761,5.574c4.624,4.328,12.14,4.895,17.323,1.307c1.379-0.955,2.873-2.231,4.485-1.822
					c1.88,0.477,2.51,2.839,3.021,4.771c1.087,4.112,3.233,8.065,6.625,10.491c10.669,7.63,25.679-1.655,37.528,9.111
					c1.456,1.322,2.84,2.895,3.265,4.85c0.459,2.113-0.227,4.539,0.921,6.35c1.438,2.267,4.976,1.96,6.911,0.131
					s2.712-4.585,3.52-7.164c0.808-2.58,1.868-5.306,4.09-6.749c3.742-2.427,8.007-1.499,10.079-6.437
					c2.583-6.298-5.125-11.515-2.679-17.254c1.092-2.563,2.839-5.359,1.743-7.919c-0.557-1.3-1.738-2.17-2.714-3.178
					c-4.567-4.722-5.343-9.166-11.428-12.046c-3.882-1.838-11.926,0.54-13.52-6.159c-0.415-1.746,0.18-3.937-1.122-5.129
					c-0.738-0.675-1.816-0.721-2.802-0.718c-6.808,0.025-14.905,0.13-18.786-5.657c-4.288-6.396-4.791-11.008-13.5-7.832
					C1286.018,2522.003,1284.248,2523.91,1283.069,2526.115z"/>
				<path style="fill:#FFFFFF;" d="M1080.129,2490.921c-1.419,2.036-2.219,4.489-3.715,6.464c-4.21,5.559-6.038,0.645-10.797,2.516
					c-1.643,0.647-3.097,1.8-4.81,2.207c-3.464,0.824-6.905-1.567-10.46-1.582c-13.693-0.057-6.505,22.714,0.124,27.081
					c1.227,0.808,2.774,0.82,4.228,0.805c4.514-0.046,9.029-0.091,13.543-0.137c1.287-0.013,2.666,0.001,3.726,0.756
					c3.266,2.323,0.155,8.063,2.119,11.625c1.347,2.443,4.479,2.898,7.156,3.401c5.659,1.062,6.898,7.434,10.362,11.364
					c4.453,5.052,8.702,7.089,11.212,14.424c1.49,4.355,2.007,9.068,3.973,13.216c4.043,8.531,14.53,13.128,23.267,10.2
					c8.737-2.929,14.625-13.015,13.063-22.378c-0.912-5.469-3.957-10.261-6.071-15.362c-4.276-10.319-1.383-22.884,10.464-24.853
					c2.99-0.497,6.788-0.671,7.904-3.584c1.608-4.197-4.596-9.107-2.024-12.755c0.926-1.313,2.718-1.783,3.532-3.173
					c1.094-1.869-0.151-4.287-1.675-5.8c-1.524-1.512-3.445-2.823-4.074-4.909c-3.543-11.748-15.178-4.406-22.943-2.857
					c-6.925,1.381-10.875,0.483-16.636-2.962C1102.676,2489.291,1089.157,2477.964,1080.129,2490.921z"/>
				<path style="fill:#FFFFFF;" d="M1109.631,2307.215c1.023-1.977,3.524-2.439,5.687-2.591c7.452-0.523,14.97-0.021,22.294,1.49
					c-6.063,4.932-12.832,10.117-20.541,9.849c-3.497-0.122-7.126-1.369-10.398-0.085c-0.765-2.385-0.343-5.142,1.097-7.165
					L1109.631,2307.215z"/>
				<path style="fill:#FFFFFF;" d="M1023.475,2397.918c7.604,6.226,34.427-2.082,21.913-10.117c-2.022-1.298-4.447-1.698-6.799-2.07
					c-3.162-0.5-6.405-1-9.537-0.328s-6.182,2.769-7.122,5.932C1021.026,2394.378,1021.763,2396.516,1023.475,2397.918z"/>
				<path style="fill:#FFFFFF;" d="M1354.766,2343.144c4.703,4.266,11.29,5.316,17.488,6.189c3.094,0.436,7.144,0.318,8.213-2.717
					c1.127-3.201-2.51-6.156-5.783-6.527c-3.273-0.371-6.75,0.524-9.782-0.804c-2.689-1.178-4.807-4.021-7.727-3.995
					c-3.4,0.03-5.458,5.162-3.077,7.673L1354.766,2343.144z"/>
			</g>
			<path style="fill:#FFFFFF;" d="M2357.688,2127.171h-845.322c-22.806,0-41.294-18.488-41.294-41.294v-434.36
				c0-23.751,19.48-42.884,43.227-42.457l835.262,15.026c25.13,0.452,45.265,20.953,45.265,46.087v419.861
				C2394.826,2110.544,2378.198,2127.171,2357.688,2127.171z"/>
			<path style="opacity:0.54;fill:#FFFFFF;" d="M2932.385,1886.711h-452.846c-5.891,0-10.667-4.776-10.667-10.667v-250.59
				c0-5.891,4.776-10.667,10.667-10.667h452.846c5.891,0,10.667,4.776,10.667,10.667v250.59
				C2943.052,1881.935,2938.276,1886.711,2932.385,1886.711z"/>
			<path style="opacity:0.54;fill:#FFFFFF;" d="M2934.632,2127.171h-452.846c-5.891,0-10.667-4.775-10.667-10.667v-188.865
				c0-5.891,4.776-10.667,10.667-10.667h452.846c5.891,0,10.667,4.776,10.667,10.667v188.865
				C2945.299,2122.396,2940.523,2127.171,2934.632,2127.171z"/>
		</g>
		<path style="opacity:0.54;fill:#FFFFFF;" d="M1609.103,2280.934h210.877c9.263,0,16.774,7.511,16.774,16.775
			c0,9.263-7.511,16.774-16.774,16.774h-210.877c-9.264,0-16.774-7.511-16.774-16.774
			C1592.329,2288.444,1599.839,2280.934,1609.103,2280.934z"/>
		<path style="opacity:0.54;fill:#FFFFFF;" d="M1609.103,2228.443h210.877c9.263,0,16.774,7.51,16.774,16.774
			c0,9.263-7.511,16.774-16.774,16.774h-210.877c-9.264,0-16.774-7.51-16.774-16.774
			C1592.329,2235.953,1599.839,2228.443,1609.103,2228.443z"/>
		<path style="opacity:0.54;fill:#FFFFFF;" d="M1615.846,2606.555h210.877c9.263,0,16.773,7.511,16.773,16.775
			c0,9.263-7.51,16.774-16.773,16.774h-210.877c-9.265,0-16.775-7.511-16.775-16.774
			C1599.071,2614.066,1606.581,2606.555,1615.846,2606.555z"/>
		<path style="opacity:0.54;fill:#FFFFFF;" d="M1609.104,2554.065h210.877c9.263,0,16.773,7.51,16.773,16.774
			c0,9.263-7.51,16.774-16.773,16.774h-210.877c-9.265,0-16.775-7.51-16.775-16.774
			C1592.329,2561.575,1599.839,2554.065,1609.104,2554.065z"/>
		
			<linearGradient id="SVGID_00000181801991718407950070000010376039266679297672_" gradientUnits="userSpaceOnUse" x1="1935.0979" y1="159.5833" x2="1797.6157" y2="2162.4387">
			<stop  offset="0" style="stop-color:#FDF53F"/>
			<stop  offset="1" style="stop-color:#D93C65"/>
		</linearGradient>
		<path style="fill:url(#SVGID_00000181801991718407950070000010376039266679297672_);" d="M3153.382,1508.322l0.104-30.641
			c0.156-42.069-33.402-76.551-75.512-77.574l-2455.483-49.556c-47.099-1.144-85.555,36.669-85.555,83.72v74.05H3153.382z"/>
		<g style="opacity:0.85;">
			<path style="fill:#FFFFFF;" d="M710.146,1461.539c12.087,0.147,22.004-9.532,22.151-21.62
				c0.147-12.087-9.532-22.005-21.619-22.151c-12.087-0.147-22.005,9.533-22.151,21.62
				C688.379,1451.474,698.058,1461.392,710.146,1461.539z"/>
			<path style="fill:#FFFFFF;" d="M774.274,1462.318c12.087,0.147,22.005-9.532,22.152-21.62
				c0.147-12.087-9.533-22.005-21.62-22.151c-12.087-0.147-22.005,9.533-22.151,21.62
				C752.508,1452.253,762.188,1462.171,774.274,1462.318z"/>
			<path style="fill:#FFFFFF;" d="M838.404,1463.097c12.087,0.147,22.005-9.532,22.151-21.62
				c0.147-12.087-9.533-22.005-21.62-22.151c-12.087-0.147-22.004,9.533-22.151,21.62
				C816.638,1453.032,826.316,1462.95,838.404,1463.097z"/>
		</g>
		<g>
			<g>
				
					<linearGradient id="SVGID_00000048488650034668053470000012927305486755835810_" gradientUnits="userSpaceOnUse" x1="1060.2355" y1="2689.7468" x2="3325.5078" y2="121.0861">
					<stop  offset="0" style="stop-color:#18459F"/>
					<stop  offset="1" style="stop-color:#2874B5"/>
				</linearGradient>
				
					<circle style="fill:url(#SVGID_00000048488650034668053470000012927305486755835810_);" cx="1838.585" cy="1807.153" r="932.83"/>
				<g>
					
						<linearGradient id="SVGID_00000103960796326604109370000009632493719213195167_" gradientUnits="userSpaceOnUse" x1="2492.3911" y1="956.8149" x2="580.1368" y2="3495.6421">
						<stop  offset="0" style="stop-color:#53D8FF"/>
						<stop  offset="1" style="stop-color:#3840F7"/>
					</linearGradient>
					
						<circle style="fill:url(#SVGID_00000103960796326604109370000009632493719213195167_);" cx="1851.215" cy="1808.081" r="849.279"/>
					<path style="fill:#FFFFFF;" d="M1851.215,2676.066c-231.848,0-449.818-90.287-613.758-254.227
						c-163.94-163.94-254.227-381.912-254.227-613.758s90.287-449.818,254.227-613.758s381.91-254.227,613.758-254.227
						c231.846,0,449.816,90.287,613.756,254.227c163.94,163.942,254.227,381.912,254.227,613.758s-90.287,449.816-254.227,613.758
						C2301.031,2585.779,2083.062,2676.066,1851.215,2676.066z M1851.215,977.507c-221.854,0-430.43,86.394-587.304,243.27
						c-156.876,156.874-243.27,365.45-243.27,587.304s86.394,430.43,243.27,587.304c156.874,156.876,365.45,243.27,587.304,243.27
						s430.428-86.394,587.304-243.27c156.874-156.874,243.268-365.45,243.268-587.304s-86.394-430.43-243.268-587.304
						C2281.643,1063.901,2073.069,977.507,1851.215,977.507z"/>
				</g>
				<g>
					
						<linearGradient id="SVGID_00000089564308888177177190000008820670384709171879_" gradientUnits="userSpaceOnUse" x1="2682.5276" y1="704.3776" x2="770.2764" y2="3243.2004">
						<stop  offset="0" style="stop-color:#53D8FF"/>
						<stop  offset="0.1608" style="stop-color:#4EBBFD"/>
						<stop  offset="0.5605" style="stop-color:#4279FA"/>
						<stop  offset="0.851" style="stop-color:#3B50F8"/>
						<stop  offset="1" style="stop-color:#3840F7"/>
					</linearGradient>
					
						<circle style="fill:url(#SVGID_00000089564308888177177190000008820670384709171879_);" cx="1851.214" cy="1808.08" r="517.761"/>
					<path style="fill:#FFFFFF;" d="M1851.215,2344.547c-295.81,0-536.468-240.658-536.468-536.466
						c0-295.81,240.658-536.468,536.468-536.468c295.808,0,536.466,240.658,536.466,536.468
						C2387.681,2103.889,2147.023,2344.547,1851.215,2344.547z M1851.215,1309.024c-275.181,0-499.057,223.875-499.057,499.057
						c0,275.18,223.875,499.055,499.057,499.055c275.18,0,499.055-223.875,499.055-499.055
						C2350.27,1532.9,2126.395,1309.024,1851.215,1309.024z"/>
				</g>
				<g>
					
						<linearGradient id="SVGID_00000134207426723629418770000014821565765615931787_" gradientUnits="userSpaceOnUse" x1="3393.2798" y1="-239.2611" x2="1481.0302" y2="2299.5598">
						<stop  offset="0" style="stop-color:#53D8FF"/>
						<stop  offset="1" style="stop-color:#3840F7"/>
					</linearGradient>
					
						<circle style="fill:url(#SVGID_00000134207426723629418770000014821565765615931787_);" cx="1851.214" cy="1808.08" r="200.596"/>
					<path style="fill:#FFFFFF;" d="M1851.215,2027.383c-120.923,0-219.302-98.379-219.302-219.302
						c0-120.923,98.379-219.302,219.302-219.302c120.922,0,219.3,98.379,219.3,219.302
						C2070.515,1929.003,1972.138,2027.383,1851.215,2027.383z M1851.215,1626.191c-100.294,0-181.89,81.596-181.89,181.89
						c0,100.294,81.596,181.89,181.89,181.89c100.294,0,181.889-81.596,181.889-181.89
						C2033.104,1707.787,1951.509,1626.191,1851.215,1626.191z"/>
				</g>
			</g>
			<g>
				
					<linearGradient id="SVGID_00000028284645344207350830000001445210999935793051_" gradientUnits="userSpaceOnUse" x1="77.5679" y1="4070.4353" x2="-206.8721" y2="5225.9688" gradientTransform="matrix(-0.7071 -0.7071 0.7071 -0.7071 -1192.2574 4633.1733)">
					<stop  offset="0" style="stop-color:#2B3582"/>
					<stop  offset="1" style="stop-color:#150E42"/>
				</linearGradient>
				<polygon style="fill:url(#SVGID_00000028284645344207350830000001445210999935793051_);" points="3029.794,645.769 
					3054.935,670.909 2102.914,1622.931 2077.773,1597.79 				"/>
				
					<linearGradient id="SVGID_00000145743745190244078860000002520888228025350544_" gradientUnits="userSpaceOnUse" x1="-164.9666" y1="4313.3257" x2="-251.8823" y2="5245.7012" gradientTransform="matrix(-0.7071 -0.7071 0.7071 -0.7071 -1192.2574 4633.1733)">
					<stop  offset="0" style="stop-color:#CB236D"/>
					<stop  offset="1" style="stop-color:#4C246D"/>
				</linearGradient>
				<path style="fill:url(#SVGID_00000145743745190244078860000002520888228025350544_);" d="M2095.58,1537.128
					c14.423-14.424,82.42,53.573,67.996,67.996l-252.195,198.265c-9.318,7.325-21.39-4.748-14.065-14.066L2095.58,1537.128z"/>
				
					<linearGradient id="SVGID_00000049943091110520838020000012452587253882152627_" gradientUnits="userSpaceOnUse" x1="-239.9936" y1="5593.5132" x2="-358.4938" y2="6864.7075" gradientTransform="matrix(-0.7071 -0.7071 0.7071 -0.7071 -1192.2574 4633.1733)">
					<stop  offset="0" style="stop-color:#CB236D"/>
					<stop  offset="1" style="stop-color:#4C246D"/>
				</linearGradient>
				<path style="fill:url(#SVGID_00000049943091110520838020000012452587253882152627_);" d="M3054.392,671.453l128.076,12.729
					l-175.824,175.825c-57.607,57.607-138.017,86.338-219.086,78.279l0,0L3054.392,671.453z"/>
				
					<linearGradient id="SVGID_00000070825339522003812280000007075914356419982004_" gradientUnits="userSpaceOnUse" x1="820.1627" y1="5593.5132" x2="701.6626" y2="6864.7061" gradientTransform="matrix(0.7071 0.7071 0.7071 -0.7071 -1682.106 4143.3247)">
					<stop  offset="0" style="stop-color:#CB236D"/>
					<stop  offset="1" style="stop-color:#4C246D"/>
				</linearGradient>
				<path style="fill:url(#SVGID_00000070825339522003812280000007075914356419982004_);" d="M3029.25,646.312l-12.729-128.076
					L2840.697,694.06c-57.607,57.608-86.338,138.016-78.28,219.086l0,0L3029.25,646.312z"/>
			</g>
		</g>
		<g>
			
				<linearGradient id="SVGID_00000071543937945993114150000002608702362828963988_" gradientUnits="userSpaceOnUse" x1="1312.2916" y1="3026.1206" x2="1736.1149" y2="3458.1731">
				<stop  offset="0" style="stop-color:#CB236D"/>
				<stop  offset="1" style="stop-color:#4C246D"/>
			</linearGradient>
			<path style="fill:url(#SVGID_00000071543937945993114150000002608702362828963988_);" d="M1462.343,3244.59
				c-0.011-0.654,0.033-1.315,0.201-1.982c9.882-39.181,50.291-59.264,50.291-59.264l19.437,1.524
				c11.176,34.533,18.382,51.392,16.587,60.825c-0.05,0.264-0.13,0.516-0.2,0.771
				C1532.625,3247.897,1499.623,3248.833,1462.343,3244.59z"/>
			
				<linearGradient id="SVGID_00000025436345887734127280000013222539693908396944_" gradientUnits="userSpaceOnUse" x1="1299.8313" y1="2432.781" x2="1328.6354" y2="2848.3774" gradientTransform="matrix(-1 0 0 1 2861.6616 0)">
				<stop  offset="0" style="stop-color:#CB236D"/>
				<stop  offset="1" style="stop-color:#4C246D"/>
			</linearGradient>
			<path style="fill:url(#SVGID_00000025436345887734127280000013222539693908396944_);" d="M1548.658,3246.465
				c-0.866,3.15-3.192,5.603-6.168,6.229c-22.808,4.797-59.059,0.936-74.28-1.053c-3.358-0.438-5.812-3.544-5.868-7.05
				C1499.623,3248.833,1532.625,3247.897,1548.658,3246.465z"/>
			
				<linearGradient id="SVGID_00000002380669352621579460000002497396474758144386_" gradientUnits="userSpaceOnUse" x1="3332.4883" y1="3113.665" x2="3315.1611" y2="3264.8831" gradientTransform="matrix(1 0 0 1 -1811.8352 0)">
				<stop  offset="0" style="stop-color:#F9B776"/>
				<stop  offset="1" style="stop-color:#F47960"/>
			</linearGradient>
			<path style="fill:url(#SVGID_00000002380669352621579460000002497396474758144386_);" d="M1496.83,3153.097l8.51,40.968
				c0.624,3.002,2.93,5.25,5.724,5.512c3.42,0.321,8.288,0.51,13.184-0.21c4.391-0.645,7.448-5.106,6.67-9.895l-5.916-36.376
				H1496.83z"/>
			
				<linearGradient id="SVGID_00000156555642124468421240000002268734333132817555_" gradientUnits="userSpaceOnUse" x1="3487.5901" y1="2346.2275" x2="3516.3943" y2="2761.8235" gradientTransform="matrix(1 0 0 1 -1811.8352 0)">
				<stop  offset="0" style="stop-color:#CB236D"/>
				<stop  offset="1" style="stop-color:#4C246D"/>
			</linearGradient>
			<path style="fill:url(#SVGID_00000156555642124468421240000002268734333132817555_);" d="M1713.81,3246.125
				c-20.759-0.581-31.496-3.026-37.047-5.295c-0.013,2.064-0.001,4.165,0.065,6.341c0.073,2.324,1.794,4.181,3.912,4.168
				l113.979-0.736c3.638-0.023,5.763-4.242,4.187-7.578C1783.962,3244.261,1745.899,3247.023,1713.81,3246.125z"/>
			
				<linearGradient id="SVGID_00000059297150428649950640000002199276107919368627_" gradientUnits="userSpaceOnUse" x1="1917.3364" y1="3040.3123" x2="1470.882" y2="3488.824">
				<stop  offset="0" style="stop-color:#CB236D"/>
				<stop  offset="1" style="stop-color:#4C246D"/>
			</linearGradient>
			<path style="fill:url(#SVGID_00000059297150428649950640000002199276107919368627_);" d="M1798.906,3243.026
				c-0.137-0.29-0.255-0.586-0.451-0.859c-10.065-14.065-35.703-42.072-86.363-54.219l-24.303-0.767c0,0-10.822,18.809-11.026,53.65
				c5.551,2.269,16.288,4.713,37.047,5.295C1745.899,3247.023,1783.962,3244.261,1798.906,3243.026z"/>
			
				<linearGradient id="SVGID_00000160890871747711254890000018017027845820000181_" gradientUnits="userSpaceOnUse" x1="3515.0154" y1="3133.012" x2="3498.8074" y2="3274.4658" gradientTransform="matrix(1 0 0 1 -1811.8352 0)">
				<stop  offset="0" style="stop-color:#F9B776"/>
				<stop  offset="1" style="stop-color:#F47960"/>
			</linearGradient>
			<path style="fill:url(#SVGID_00000160890871747711254890000018017027845820000181_);" d="M1683.282,3150.349
				c0.27,1.812,3.601,29.344,4.891,40.019c0.306,2.538,2.144,4.501,4.461,4.777c4.138,0.494,10.835,0.944,16.693-0.257
				c3.16-0.648,5.448-3.684,5.448-7.214v-43.219L1683.282,3150.349z"/>
			
				<linearGradient id="SVGID_00000166653240959576322570000007510819888268908439_" gradientUnits="userSpaceOnUse" x1="1120.0304" y1="3237.5564" x2="1974.582" y2="2642.5339">
				<stop  offset="0" style="stop-color:#CB236D"/>
				<stop  offset="1" style="stop-color:#4C246D"/>
			</linearGradient>
			<path style="fill:url(#SVGID_00000166653240959576322570000007510819888268908439_);" d="M1513.07,2615.128
				c0,0-38.889,345.683-17.284,561.734c0,0,25.926,0,38.89-4.32c0,0,40.412-337.99,53.485-434.706
				c0.493-3.646,5.697-3.812,6.413-0.203c16.13,81.368,79.484,400.454,87.017,430.587c0,0,21.606,8.642,38.89,0
				c0,0-34.569-462.351-60.495-544.45L1513.07,2615.128z"/>
			
				<linearGradient id="SVGID_00000122706047500973976320000009473352080943314875_" gradientUnits="userSpaceOnUse" x1="1662.146" y1="2135.7002" x2="1277.9481" y2="3084.6248">
				<stop  offset="0" style="stop-color:#FDF53F"/>
				<stop  offset="1" style="stop-color:#D93C65"/>
			</linearGradient>
			<path style="fill:url(#SVGID_00000122706047500973976320000009473352080943314875_);" d="M1435.292,2213.272
				c0,0,164.199-25.926,293.831,8.642l-8.642,133.951c0,0-34.569,185.805-60.495,267.905c0,0-99.383,17.284-146.915-8.642
				c0,0-38.889-233.335-60.494-267.904C1452.576,2347.224,1430.97,2256.482,1435.292,2213.272z"/>
			
				<linearGradient id="SVGID_00000158726830526976008390000008513610093551237786_" gradientUnits="userSpaceOnUse" x1="1533.0013" y1="2155.0449" x2="1610.7014" y2="2155.0449">
				<stop  offset="0" style="stop-color:#F9B776"/>
				<stop  offset="1" style="stop-color:#F47960"/>
			</linearGradient>
			<path style="fill:url(#SVGID_00000158726830526976008390000008513610093551237786_);" d="M1549.359,2095.201l-16.358,110.618
				c0,0,45.7,20.994,77.7-0.901l-6.889-78.068L1549.359,2095.201z"/>
			
				<linearGradient id="SVGID_00000101081950680974700570000014091205191248929924_" gradientUnits="userSpaceOnUse" x1="1462.3138" y1="2054.7922" x2="1078.1149" y2="3003.7192">
				<stop  offset="0" style="stop-color:#FDF53F"/>
				<stop  offset="1" style="stop-color:#D93C65"/>
			</linearGradient>
			<path style="fill:url(#SVGID_00000101081950680974700570000014091205191248929924_);" d="M1509.201,2362.476
				c0,0-371.02-100.992-186.794-360.714l12.465,17.648c0,0-55.505,175.914,128.363,192.629
				C1463.234,2212.038,1510.855,2334.857,1509.201,2362.476z"/>
			
				<linearGradient id="SVGID_00000150806641037517169510000015996599219665489087_" gradientUnits="userSpaceOnUse" x1="1368.0894" y1="1924.2365" x2="1324.2119" y2="2068.4055">
				<stop  offset="0" style="stop-color:#F9B776"/>
				<stop  offset="1" style="stop-color:#F47960"/>
			</linearGradient>
			<path style="fill:url(#SVGID_00000150806641037517169510000015996599219665489087_);" d="M1321.155,2003.098
				c0,0-4.179-50.146,20.894-54.325c25.073-4.179,33.43,20.894,37.609,33.43c4.179,12.536-37.609,37.609-45.967,37.609
				C1325.333,2019.813,1321.155,2003.098,1321.155,2003.098z"/>
			
				<linearGradient id="SVGID_00000155832300829180053860000008778514898691786911_" gradientUnits="userSpaceOnUse" x1="1791.1193" y1="2187.9182" x2="1406.9209" y2="3136.8442">
				<stop  offset="0" style="stop-color:#FDF53F"/>
				<stop  offset="1" style="stop-color:#D93C65"/>
			</linearGradient>
			<path style="fill:url(#SVGID_00000155832300829180053860000008778514898691786911_);" d="M1643.046,2375.012
				c0,0,371.02-100.992,186.794-360.714l-12.464,17.647c0,0,55.505,175.914-128.363,192.629
				C1689.014,2224.575,1641.392,2347.393,1643.046,2375.012z"/>
			
				<linearGradient id="SVGID_00000102531998267776628690000005690627375344800404_" gradientUnits="userSpaceOnUse" x1="112.8709" y1="1936.7731" x2="68.9935" y2="2080.9417" gradientTransform="matrix(-1 0 0 1 1897.0294 0)">
				<stop  offset="0" style="stop-color:#F9B776"/>
				<stop  offset="1" style="stop-color:#F47960"/>
			</linearGradient>
			<path style="fill:url(#SVGID_00000102531998267776628690000005690627375344800404_);" d="M1831.093,2015.633
				c0,0,4.179-50.145-20.894-54.324c-25.073-4.179-33.431,20.894-37.61,33.431c-4.179,12.537,37.61,37.609,45.967,37.609
				S1831.093,2015.633,1831.093,2015.633z"/>
			<g>
				
					<linearGradient id="SVGID_00000004510489163412073930000002030408792783801011_" gradientUnits="userSpaceOnUse" x1="-4556.3809" y1="-152.3812" x2="-4594.2446" y2="-277.264" gradientTransform="matrix(0.746 -0.6659 0.6659 0.746 5126.3354 -803.1727)">
					<stop  offset="0" style="stop-color:#F9B776"/>
					<stop  offset="1" style="stop-color:#F47960"/>
				</linearGradient>
				<path style="fill:url(#SVGID_00000004510489163412073930000002030408792783801011_);" d="M1606.384,2037.839
					c0,0,36.585,68.866,31.895,96.685c-4.69,27.819-50.03,25.821-89.624,3.228l-27.667-74.36L1606.384,2037.839z"/>
				
					<linearGradient id="SVGID_00000107560439707773996480000009194739938684263057_" gradientUnits="userSpaceOnUse" x1="-4590.541" y1="-369.9709" x2="-4558.8687" y2="-189.3201" gradientTransform="matrix(0.746 -0.6659 0.6659 0.746 5126.3354 -803.1727)">
					<stop  offset="0" style="stop-color:#2B3582"/>
					<stop  offset="1" style="stop-color:#150E42"/>
				</linearGradient>
				<path style="fill:url(#SVGID_00000107560439707773996480000009194739938684263057_);" d="M1550.405,2101.232
					c1.609-0.712,2.203-2.681,1.239-4.154c-2.931-4.477-8.426-13.613-10.178-21.611c0,0-6.577-4.211,16.739-9.792
					c23.316-5.581,58.087-14.243,65.395-34.09c7.125-19.35-11.597-68.011-41.465-29.239c-1.136,1.475-3.363,1.508-4.498,0.031
					c-4.896-6.373-17.769-19.601-35.642-11.581c-16.725,7.505-18.609,19.76-18.38,25.938c0.068,1.818-1.557,3.23-3.343,2.889
					c-8.457-1.612-28.749-2.998-38.221,17.819c-7.802,17.147-2.731,26.853,1.887,31.599c1.496,1.538,0.841,4.071-1.211,4.699
					c-5.558,1.701-12.735,6.413-12.016,19.435c0.993,18,21.119,16.414,26.849,15.594c0.938-0.135,1.884,0.188,2.52,0.891
					c4.914,5.437,27.049,28.522,51.007,31.306c2.074,0.24,3.682-1.808,3.002-3.783l-10.368-30.138
					c-0.482-1.4,0.188-2.936,1.541-3.535L1550.405,2101.232z"/>
				
					<linearGradient id="SVGID_00000165221951722353841820000002235561481143839397_" gradientUnits="userSpaceOnUse" x1="-4595.0869" y1="-152.9629" x2="-4629.1533" y2="-265.322" gradientTransform="matrix(0.746 -0.6659 0.6659 0.746 5126.3354 -803.1727)">
					<stop  offset="0" style="stop-color:#F9B776"/>
					<stop  offset="1" style="stop-color:#F47960"/>
				</linearGradient>
				<path style="fill:url(#SVGID_00000165221951722353841820000002235561481143839397_);" d="M1554.573,2105.511
					c0,0-26.048-17.872-27.952-2.822c-1.903,15.051,23.457,21.8,36.018,16.189L1554.573,2105.511z"/>
			</g>
		</g>
	</g>
</g>
</svg>
