<?xml version="1.0" encoding="utf-8"?>
<!-- Generator: Adobe Illustrator 27.5.0, SVG Export Plug-In . SVG Version: 6.00 Build 0)  -->
<svg version="1.1" xmlns="http://www.w3.org/2000/svg" xmlns:xlink="http://www.w3.org/1999/xlink" x="0px" y="0px"
	 viewBox="0 0 3710 3710" style="enable-background:new 0 0 3710 3710;" xml:space="preserve">
<g id="Background">
	<g>
		<g>
			<rect style="fill:#FFFFFF;" width="3710" height="3710"/>
		</g>
	</g>
</g>
<g id="Illustration">
	<g>
		<linearGradient id="SVGID_1_" gradientUnits="userSpaceOnUse" x1="3683.4785" y1="3568.4243" x2="1466.4823" y2="1579.6464">
			<stop  offset="0" style="stop-color:#B37CFF"/>
			<stop  offset="1" style="stop-color:#F895E7"/>
		</linearGradient>
		<path style="opacity:0.3;fill:url(#SVGID_1_);" d="M2944.708,2880.016c-74.709,77.008-90.375,88.101-141.556,122.275
			c-499.152,333.288-1221.398,252.73-1397.808,219.897c-284.617-52.973-424.392-71.674-630.815-258.169
			c-469.055-423.773-446.241-1307.794-87.826-1855.407c42.497-64.931,394.115-568.738,965.935-643.487
			c13.986-1.828,676.439-89.306,1123.413,285.169c63.982,53.604,166.948,150.292,262.43,297.757
			C3387.609,1587.25,3388.715,2422.351,2944.708,2880.016z"/>
		<g>
			
				<linearGradient id="SVGID_00000161604496400917333650000018389019804593940654_" gradientUnits="userSpaceOnUse" x1="2961.4539" y1="154.6326" x2="4089.4524" y2="154.6326" gradientTransform="matrix(0.6435 0.7655 -0.7655 0.6435 738.8435 -1171.132)">
				<stop  offset="0" style="stop-color:#A737D5"/>
				<stop  offset="1" style="stop-color:#EF497A"/>
			</linearGradient>
			<path style="fill:url(#SVGID_00000161604496400917333650000018389019804593940654_);" d="M3067.232,743.535
				c3.559-12.408,21.072-12.78,25.344-0.599c43.382,123.69,123.116,467.998-144.268,858.227
				c-335.473,489.6-325.759,736.949-250.715,923.765c0,0-157.689-151.493-174.167-405.924
				C2482.97,1494.318,3003.95,964.15,3067.232,743.535z"/>
			<path style="fill:#FFFFFF;" d="M3046.859,940.344c-19.651,63.705-40.547,126.989-63.728,189.419
				c-22.849,62.54-47.583,124.359-74.208,185.319c-26.857,60.852-54.851,121.191-85.367,180.251
				c-30.249,59.194-63.007,117.023-96.099,174.969c-32.75,58.097-66.072,116.438-93.523,178.369
				c-27.45,61.775-47.967,127.819-55.808,195.655c-1.938,16.915-3.575,33.931-4.193,50.873c-0.933,16.939-1.115,33.923-0.994,50.903
				c0.412,33.968,3.079,67.966,8.256,101.612c10.528,67.275,31.293,132.895,59.897,194.166c3.011,6.449,10.679,9.235,17.128,6.225
				c6.332-2.956,9.134-10.404,6.382-16.778l-0.019-0.045c-6.535-15.099-12.89-30.255-18.547-45.642
				c-2.952-7.65-5.559-15.414-8.31-23.126c-2.456-7.807-5.216-15.521-7.428-23.396c-9.379-31.34-16.546-63.3-21.314-95.632
				c-9.843-64.546-10.091-130.898-2.715-195.715c4.056-32.377,10.49-64.398,19.366-95.814c8.901-31.412,20.229-62.188,33.322-92.342
				c26.198-60.343,58.702-118.36,91.032-176.689c32.262-58.384,64.28-117.276,93.825-177.393
				c14.852-30.015,29.162-60.294,42.924-90.813c6.968-15.219,13.641-30.571,20.339-45.908c6.552-15.401,13.017-30.837,19.356-46.322
				c25.24-61.99,48.577-124.721,69.9-188.101c21.019-63.482,40.346-127.5,57.174-192.155c0.481-1.849-0.627-3.736-2.475-4.217
				C3049.238,937.551,3047.403,938.592,3046.859,940.344z"/>
		</g>
		<g>
			<g>
				
					<linearGradient id="SVGID_00000099653121142001678780000016032319393930054285_" gradientUnits="userSpaceOnUse" x1="1131.8691" y1="3641.9233" x2="2515.6426" y2="3641.9233" gradientTransform="matrix(0.6398 -0.7687 0.7687 0.6398 -1384.5793 382.4116)">
					<stop  offset="0" style="stop-color:#CE1567"/>
					<stop  offset="1" style="stop-color:#7A1DBC"/>
				</linearGradient>
				<path style="fill:url(#SVGID_00000099653121142001678780000016032319393930054285_);" d="M2461.202,2070.281
					c-16.506,17.125-45.136,11.827-54.706-9.947c-52.807-120.14-171.394-473.321,35.494-876.361
					c174.708-340.348,237.099-541.502,259.094-634.781c4.651-19.725,31.78-22.047,39.752-3.415
					C2828.792,751.337,3059.292,1449.772,2461.202,2070.281z"/>
				<path style="fill:#FFFFFF;" d="M2431.714,2057.336c-0.582,0.097-1.179,0.14-1.791,0.123c-5.126-0.136-9.172-4.402-9.036-9.528
					c0.155-5.812,17.968-586.7,239.51-1070.906c2.134-4.659,7.642-6.711,12.309-4.581c4.663,2.135,6.714,7.644,4.581,12.31
					c-219.931,480.68-237.683,1057.897-237.837,1063.669C2439.333,2052.939,2436.009,2056.616,2431.714,2057.336z"/>
			</g>
		</g>
		<g>
			
				<linearGradient id="SVGID_00000033350125470285878450000017586473494214001055_" gradientUnits="userSpaceOnUse" x1="-947.2239" y1="2882.291" x2="-370.018" y2="1150.6681" gradientTransform="matrix(-1 0 0 1 1155.7772 0)">
				<stop  offset="0" style="stop-color:#2B3582"/>
				<stop  offset="1" style="stop-color:#150E42"/>
			</linearGradient>
			<path style="fill:url(#SVGID_00000033350125470285878450000017586473494214001055_);" d="M612.608,2945.109
				c0,24.833,20.338,45.151,45.195,45.151h2443.942c24.857,0,45.195-20.318,45.195-45.151l20.336-1404.466
				c0-24.833-29.257-73.313-82.877-69.671l-2388.49-61.802c-31.188-0.807-61.344,11.197-83.43,33.211s-34.17,52.112-33.433,83.272
				L612.608,2945.109z"/>
			
				<linearGradient id="SVGID_00000029014939685871204260000017905890671854925219_" gradientUnits="userSpaceOnUse" x1="2098.3784" y1="1964.1509" x2="-1377.5712" y2="5532.3877">
				<stop  offset="0" style="stop-color:#FDF53F"/>
				<stop  offset="1" style="stop-color:#D93C65"/>
			</linearGradient>
			<path style="fill:url(#SVGID_00000029014939685871204260000017905890671854925219_);" d="M657.227,2901.792
				c0,23.516,19.241,42.757,42.757,42.757h2342.823c23.516,0,42.757-19.241,42.757-42.757l19.19-1274.987
				c-2.26-76.726-69.527-104.301-110.303-102.673l-2289.15-61.414c-21.911-0.588-43.096,7.854-58.615,23.333
				c-15.519,15.479-24.054,36.663-23.504,58.575L657.227,2901.792z"/>
			<g>
				<path style="fill:#FFFFFF;" d="M3060.249,2296.084c-0.031,0-0.063,0-0.094,0c-3.462-0.05-6.226-2.896-6.173-6.361l1.517-103.399
					c0.05-3.427,2.846-6.173,6.261-6.173c0.031,0,0.063,0,0.094,0c3.462,0.05,6.226,2.896,6.173,6.361l-1.517,103.399
					C3066.459,2293.338,3063.664,2296.084,3060.249,2296.084z"/>
				<path style="fill:#FFFFFF;" d="M3063.97,2042.702c-0.031,0-0.063,0-0.094,0c-3.462-0.05-6.226-2.902-6.173-6.361l5.814-396.022
					c-0.11-23.523-7.249-42.305-21.225-55.696c-26.087-24.993-67.505-23.717-69.25-23.636l-731.663-19.62
					c-3.459-0.088-6.189-2.971-6.095-6.43c0.091-3.459,2.749-6.405,6.433-6.092l731.228,19.62
					c4.55-0.269,48.647-1.032,78.015,27.107c16.521,15.83,24.962,37.64,25.087,64.809l-5.817,396.147
					C3070.181,2039.956,3067.385,2042.702,3063.97,2042.702z"/>
			</g>
			
				<linearGradient id="SVGID_00000044863403543964362730000010186427200193926302_" gradientUnits="userSpaceOnUse" x1="396.3139" y1="2778.6655" x2="-2175.0767" y2="3404.1387" gradientTransform="matrix(-1 0 0 1 1155.7772 0)">
				<stop  offset="0" style="stop-color:#2B3582"/>
				<stop  offset="1" style="stop-color:#150E42"/>
			</linearGradient>
			<path style="fill:url(#SVGID_00000044863403543964362730000010186427200193926302_);" d="M419.999,3106.848h2870.003
				c3.109,0,5.654-2.544,5.654-5.654V2989.1c0-3.109-2.544-5.654-5.654-5.654H419.998c-3.11,0-5.654,2.544-5.654,5.654v112.094
				C414.345,3104.304,416.889,3106.848,419.999,3106.848z"/>
		</g>
		<g>
			
				<linearGradient id="SVGID_00000012446626486112898910000011571584653478017193_" gradientUnits="userSpaceOnUse" x1="1680.9622" y1="990.8535" x2="1297.4598" y2="3492.4673">
				<stop  offset="0" style="stop-color:#53D8FF"/>
				<stop  offset="0.2057" style="stop-color:#4DB9FD"/>
				<stop  offset="1" style="stop-color:#3840F7"/>
			</linearGradient>
			<path style="fill:url(#SVGID_00000012446626486112898910000011571584653478017193_);" d="M2217.847,800.836l-1450.166-8.878
				c-47.659-0.292-85.776,39.517-83.415,87.118l99.767,2060.34h1613.765l89.603-1840.803L2217.847,800.836z"/>
			
				<linearGradient id="SVGID_00000092455259983433922900000005027948662659409828_" gradientUnits="userSpaceOnUse" x1="2355.6389" y1="877.5646" x2="2012.3082" y2="1292.6362" gradientTransform="matrix(0.9994 0.0343 -0.0343 0.9994 56.5304 -41.0612)">
				<stop  offset="0" style="stop-color:#53D8FF"/>
				<stop  offset="0.2057" style="stop-color:#4DB9FD"/>
				<stop  offset="1" style="stop-color:#3840F7"/>
			</linearGradient>
			<path style="fill:url(#SVGID_00000092455259983433922900000005027948662659409828_);" d="M2278.148,1089.787
				c-47.239-1.662-83.556-42.376-79.833-89.497l15.546-196.739l273.824,293.854L2278.148,1089.787z"/>
			<g>
				<g>
					<path style="opacity:0.78;fill:#FFFFFF;" d="M1449.386,1194.116c130.18-0.203,629.935-1.797,756.132-2.203
						c15.918-0.051,28.552,15.14,27.919,33.531l0,0c-0.602,17.506-13.072,31.465-28.225,31.594l-755.791,6.439
						c-14.558,0.124-26.689-12.592-27.986-29.337l-0.328-4.236C1419.624,1210.757,1432.739,1194.142,1449.386,1194.116z"/>
				</g>
				<g>
					<path style="opacity:0.78;fill:#FFFFFF;" d="M1443.45,1338.634c130.18-0.203,629.935-1.797,756.132-2.203
						c15.918-0.051,28.552,15.14,27.919,33.531l0,0c-0.602,17.506-13.072,31.465-28.225,31.594l-755.791,6.439
						c-14.558,0.124-26.689-12.592-27.986-29.337l-0.328-4.236C1413.689,1355.276,1426.804,1338.66,1443.45,1338.634z"/>
				</g>
				<g>
					<path style="opacity:0.78;fill:#FFFFFF;" d="M992.007,1544.59c201.052,0.142,972.858-0.133,1167.752-0.205
						c24.583-0.009,44.538,15.222,44.097,33.618l0,0c-0.42,17.511-19.272,31.442-42.671,31.531l-1167.102,4.444
						c-22.481,0.086-41.588-12.668-44.078-29.422l-0.63-4.239C946.527,1561.159,966.298,1544.572,992.007,1544.59z"/>
				</g>
				<g>
					<path style="opacity:0.78;fill:#FFFFFF;" d="M982.718,1696.263c156.498-0.679,757.273-4.103,908.979-4.971
						c19.136-0.109,34.563,15.038,34.093,33.433l0,0c-0.448,17.511-15.219,31.517-33.433,31.701l-908.501,9.206
						c-17.5,0.177-32.285-12.496-34.108-29.238l-0.461-4.235C947.202,1713.016,962.706,1696.35,982.718,1696.263z"/>
				</g>
				<g>
					<path style="opacity:0.78;fill:#FFFFFF;" d="M990.03,1894.853c201.052,0.141,972.858-0.133,1167.752-0.206
						c24.583-0.009,44.538,15.221,44.097,33.618l0,0c-0.42,17.511-19.272,31.443-42.671,31.531l-1167.102,4.444
						c-22.481,0.086-41.588-12.668-44.079-29.422l-0.63-4.239C944.55,1911.422,964.321,1894.835,990.03,1894.853z"/>
				</g>
				<g>
					<path style="opacity:0.78;fill:#FFFFFF;" d="M972.537,2049.051c157.237,0.286,760.854,0.57,913.278,0.637
						c19.226,0.009,34.637,15.251,34.056,33.643l0,0c-0.553,17.508-15.476,31.423-33.777,31.495l-912.824,3.601
						c-17.583,0.069-32.362-12.696-34.096-29.448l-0.438-4.238C936.756,2065.584,952.431,2049.014,972.537,2049.051z"/>
				</g>
				<g>
					<path style="opacity:0.78;fill:#FFFFFF;" d="M980.117,2252.262c201.052,0.142,972.858-0.133,1167.753-0.205
						c24.583-0.009,44.538,15.221,44.097,33.618l0,0c-0.42,17.511-19.272,31.442-42.671,31.531l-1167.102,4.444
						c-22.481,0.085-41.588-12.668-44.079-29.422l-0.63-4.239C934.637,2268.832,954.408,2252.244,980.117,2252.262z"/>
				</g>
				<g>
					<path style="opacity:0.78;fill:#FFFFFF;" d="M967.975,2404.637c157.237,0.287,760.854,0.57,913.278,0.638
						c19.226,0.008,34.637,15.251,34.056,33.643l0,0c-0.553,17.508-15.476,31.422-33.777,31.494l-912.824,3.601
						c-17.583,0.069-32.362-12.696-34.096-29.448l-0.438-4.238C932.194,2421.17,947.869,2404.601,967.975,2404.637z"/>
				</g>
				<path style="opacity:0.78;fill:#FFFFFF;" d="M992.007,2605.52c201.052,0.142,972.858-0.133,1167.752-0.205
					c24.583-0.009,44.538,15.221,44.097,33.618l0,0c-0.42,17.511-19.272,31.442-42.671,31.531l-1167.102,4.444
					c-22.481,0.086-41.588-12.668-44.078-29.422l-0.63-4.239C946.527,2622.09,966.298,2605.502,992.007,2605.52z"/>
				<path style="opacity:0.78;fill:#FFFFFF;" d="M980.633,2774.4c155.251,0.008,751.244-0.777,901.743-0.979
					c18.983-0.025,34.215,15.189,33.659,33.583l0,0c-0.529,17.509-15.249,31.449-33.319,31.554l-901.29,5.216
					c-17.361,0.101-31.966-12.638-33.694-29.388l-0.437-4.237C945.319,2790.996,960.78,2774.399,980.633,2774.4z"/>
			</g>
			<g style="opacity:0.78;">
				<path style="fill:#FFFFFF;" d="M1136.641,1102.371l-81.719,300.832l-22.106-0.371l-144.181-369.078
					c-6.599-17.422-13.318-27.828-20.145-31.223c-6.839-3.389-25.483-5.638-56.016-6.734v-5.672l224.248,8.106v5.612
					c-26.495-0.951-44.888-0.253-55.124,2.096c-10.257,2.351-15.383,7.497-15.383,15.433c0,4.184,1.31,9.254,3.931,15.188
					l102.301,264.853l59.019-214.722l-13.728-44.889c-5.217-16.875-11.519-27.116-18.914-30.72
					c-7.397-3.606-26.348-5.957-56.917-7.054v-5.61l220.458,7.969v5.551c-25.825-0.927-43.752-0.227-53.736,2.101
					c-9.994,2.331-14.989,7.839-14.989,16.522c0,4.543,0.85,9.128,2.561,13.73l82.329,262.203l69.774-189.915
					c7.089-19.871,10.639-36.17,10.639-48.889c0-34.859-25.261-53.193-75.966-55.013v-5.546l162.638,5.879v5.502
					c-29.654-1.064-51.63,13.086-65.88,42.472c-2.105,4.434-9.87,24.25-23.316,59.481l-103.985,286.049l-21.051-0.353
					L1136.641,1102.371z"/>
			</g>
		</g>
		<g>
			<g>
				<g>
					
						<linearGradient id="SVGID_00000104699998050782329830000017811074371307652493_" gradientUnits="userSpaceOnUse" x1="-2550.6294" y1="2925.9985" x2="-2382.7839" y2="2925.9985" gradientTransform="matrix(-1 0 0 1 83.0112 0)">
						<stop  offset="0" style="stop-color:#53D8FF"/>
						<stop  offset="1" style="stop-color:#3840F7"/>
					</linearGradient>
					<path style="fill:url(#SVGID_00000104699998050782329830000017811074371307652493_);" d="M2470.535,2917.88
						c28.754,2.485,78.658,6.523,118,8.254c23.649,1.041,37.265-1.275,45.106-4.414c-0.013,0.884-0.038,1.719-0.073,2.495
						c-0.186,4.139-3.55,7.452-7.731,7.685c-74.339,4.149-133.46,1.436-154.508,0.155c-4.352-0.265-6.946-4.995-4.72-8.705
						C2467.722,2921.496,2469.07,2919.677,2470.535,2917.88z"/>
					
						<linearGradient id="SVGID_00000147922605620578041490000011119172159995951759_" gradientUnits="userSpaceOnUse" x1="-2550.6392" y1="2893.103" x2="-2387.5237" y2="2893.103" gradientTransform="matrix(-1 0 0 1 83.0112 0)">
						<stop  offset="0" style="stop-color:#2B3582"/>
						<stop  offset="1" style="stop-color:#150E42"/>
					</linearGradient>
					<path style="fill:url(#SVGID_00000147922605620578041490000011119172159995951759_);" d="M2588.535,2926.135
						c-39.342-1.731-89.246-5.769-118-8.254c28.27-34.684,118-58.061,118-58.061h25.343c17.43,25.125,19.954,49.047,19.763,61.902
						C2625.799,2924.86,2612.184,2927.175,2588.535,2926.135z"/>
					
						<linearGradient id="SVGID_00000096034707627224705750000012998445448118242990_" gradientUnits="userSpaceOnUse" x1="-2535.1333" y1="2847.1763" x2="-2487.8547" y2="2847.1763" gradientTransform="matrix(-1 0 0 1 83.0112 0)">
						<stop  offset="0" style="stop-color:#F9B776"/>
						<stop  offset="1" style="stop-color:#F47960"/>
					</linearGradient>
					<path style="fill:url(#SVGID_00000096034707627224705750000012998445448118242990_);" d="M2618.145,2818.446l-2.372,46.93
						c-0.257,5.082-4.061,9.352-9.15,10.08c-5.064,0.724-11.846,0.817-19.037-1.577c-4.424-1.473-7.709-5.2-8.525-9.748
						l-8.195-45.685H2618.145z"/>
				</g>
				<g>
					<g>
						
							<linearGradient id="SVGID_00000003815321386706669490000000713736010185452463_" gradientUnits="userSpaceOnUse" x1="-2885.2437" y1="2922.3787" x2="-2820.9226" y2="2922.3787" gradientTransform="matrix(-1 0 0 1 83.0112 0)">
							<stop  offset="0" style="stop-color:#53D8FF"/>
							<stop  offset="1" style="stop-color:#3840F7"/>
						</linearGradient>
						<path style="fill:url(#SVGID_00000003815321386706669490000000713736010185452463_);" d="M2947.31,2925.782
							c12.469-1.739,18.111-8.217,20.477-15.142c0.016,0.062,0.031,0.125,0.047,0.186c1.834,7.305-2.418,14.876-10.921,18.477
							c-10.277,4.352-21.513,5.094-30.237,4.734c-9.359-0.386-17.95-4.259-22.671-10.457l-0.071-0.093
							C2913.328,2928.135,2926.515,2928.683,2947.31,2925.782z"/>
						
							<linearGradient id="SVGID_00000119797281549587474700000007435656116802983065_" gradientUnits="userSpaceOnUse" x1="-2884.7759" y1="2872.8533" x2="-2790.365" y2="2872.8533" gradientTransform="matrix(-1 0 0 1 83.0112 0)">
							<stop  offset="0" style="stop-color:#2B3582"/>
							<stop  offset="1" style="stop-color:#150E42"/>
						</linearGradient>
						<path style="fill:url(#SVGID_00000119797281549587474700000007435656116802983065_);" d="M2888.519,2818.145h20.899
							c31.834-0.65,51.825,66.494,58.369,92.496c-2.366,6.925-8.007,13.403-20.477,15.142c-20.795,2.9-33.982,2.353-43.377-2.295
							c-17.198-22.632-25.725-55.779-29.823-75.124C2869.448,2826.363,2888.519,2818.145,2888.519,2818.145z"/>
					</g>
					
						<linearGradient id="SVGID_00000023277748687899218270000013139034358180942245_" gradientUnits="userSpaceOnUse" x1="-2835.7024" y1="2807.7629" x2="-2779.1997" y2="2807.7629" gradientTransform="matrix(-1 0 0 1 83.0112 0)">
						<stop  offset="0" style="stop-color:#F9B776"/>
						<stop  offset="1" style="stop-color:#F47960"/>
					</linearGradient>
					<path style="fill:url(#SVGID_00000023277748687899218270000013139034358180942245_);" d="M2906.732,2774.586l11.605,46.157
						c1.423,5.66-1.286,11.513-6.518,14.198c-6.492,3.332-15.633,6.833-24.033,5.819c-3.95-0.477-7.232-3.259-8.538-6.979
						l-17.038-48.563L2906.732,2774.586z"/>
				</g>
				
					<linearGradient id="SVGID_00000128451927306227750090000017371946274878757007_" gradientUnits="userSpaceOnUse" x1="-2398.8101" y1="2287.1663" x2="-3024.2612" y2="3198.6748" gradientTransform="matrix(-1 0 0 1 83.0112 0)">
					<stop  offset="0" style="stop-color:#18459F"/>
					<stop  offset="0.1139" style="stop-color:#2874B5"/>
				</linearGradient>
				<path style="fill:url(#SVGID_00000128451927306227750090000017371946274878757007_);" d="M2920.575,2787.928
					c-14.439,12.808-61.403,14.499-61.403,14.499c-169.171-406.028-238.374-463.709-238.374-463.709
					c24.427,153.253,3.938,492.537,3.938,492.537c-27.916,12.319-63.907,0-63.907,0c-2.267-250.896-40.832-469.701-86.388-642.203
					c114.339-2.57,175.144-41.697,194.998-57.4C2764.749,2285.309,2920.575,2787.928,2920.575,2787.928z"/>
				
					<linearGradient id="SVGID_00000019645449914584844150000011109106512442127504_" gradientUnits="userSpaceOnUse" x1="-2125.1355" y1="1628.2631" x2="-3420.4414" y2="2754.8508" gradientTransform="matrix(-1 0 0 1 83.0112 0)">
					<stop  offset="0" style="stop-color:#CE1567"/>
					<stop  offset="1" style="stop-color:#7A1DBC"/>
				</linearGradient>
				<path style="fill:url(#SVGID_00000019645449914584844150000011109106512442127504_);" d="M2640.402,1664.718
					c21.642,107.95,13.885,301.162,8.791,389.29c-1.432,24.771,15.86,59.11,29.836,82.536c2.192,3.675,0.839,8.379-2.967,10.335
					c-23.4,12.026-102.673,49.299-194.548,53.936c-6.126,0.309-11.596-3.863-13.183-9.789
					c-68.151-254.468-147.309-417.074-147.309-417.074C2408.415,1634.394,2640.402,1664.718,2640.402,1664.718z"/>
				
					<linearGradient id="SVGID_00000078747386919359690350000017020475138083192211_" gradientUnits="userSpaceOnUse" x1="-2645.2952" y1="2598.5154" x2="-2618.2207" y2="2544.3662" gradientTransform="matrix(-1 0 0 1 83.0112 0)">
					<stop  offset="0" style="stop-color:#53D8FF"/>
					<stop  offset="1" style="stop-color:#3840F7"/>
				</linearGradient>
				<path style="fill:url(#SVGID_00000078747386919359690350000017020475138083192211_);" d="M2609.255,2329.105
					c0.96,0,1.934-0.259,2.815-0.794c2.553-1.561,3.363-4.889,1.81-7.439c-0.91-1.497-22.793-36.867-67.076-58.232
					c-2.69-1.291-5.931-0.175-7.235,2.524c-1.299,2.693-0.169,5.936,2.527,7.233c41.282,19.92,62.322,53.772,62.531,54.11
					C2605.647,2328.179,2607.43,2329.105,2609.255,2329.105z"/>
				<g>
					
						<linearGradient id="SVGID_00000175320604067632737530000012104271984526175412_" gradientUnits="userSpaceOnUse" x1="-2576.8374" y1="1984.1624" x2="-2777.9778" y2="2162.2766" gradientTransform="matrix(-1 0 0 1 83.0112 0)">
						<stop  offset="0" style="stop-color:#F9B776"/>
						<stop  offset="1" style="stop-color:#F47960"/>
					</linearGradient>
					<path style="fill:url(#SVGID_00000175320604067632737530000012104271984526175412_);" d="M2776.15,1974.534
						c-6.952,50.289-27.49,105.141-68.577,163.407l-15.619-12.733c0,0,18.03-73.152,7.781-156.172
						C2725.079,1964.091,2755.013,1969.188,2776.15,1974.534z"/>
					
						<linearGradient id="SVGID_00000008113800408944681170000013790558987903183003_" gradientUnits="userSpaceOnUse" x1="-2233.1221" y1="1508.8762" x2="-3522.5857" y2="2630.3828" gradientTransform="matrix(-1 0 0 1 83.0112 0)">
						<stop  offset="0" style="stop-color:#CE1567"/>
						<stop  offset="1" style="stop-color:#7A1DBC"/>
					</linearGradient>
					<path style="fill:url(#SVGID_00000008113800408944681170000013790558987903183003_);" d="M2616.229,1797.915l24.173-133.197
						c0,0,161.509,123.455,135.748,309.816c-21.137-5.346-51.071-10.443-76.416-5.499
						C2692.35,1909.231,2670.295,1844.307,2616.229,1797.915z"/>
				</g>
				<g>
					
						<linearGradient id="SVGID_00000180344108960200786480000007648720607447657398_" gradientUnits="userSpaceOnUse" x1="-2030.4193" y1="1741.9348" x2="-3319.8845" y2="2863.4426" gradientTransform="matrix(-1 0 0 1 83.0112 0)">
						<stop  offset="0" style="stop-color:#CE1567"/>
						<stop  offset="1" style="stop-color:#7A1DBC"/>
					</linearGradient>
					<path style="fill:url(#SVGID_00000180344108960200786480000007648720607447657398_);" d="M2321.022,1773.953l62.342,134.263
						c-10.08,81.058-53.624,116.107-100.575,129.55c-2.928-36.943-12.269-66.789-20.937-87.434
						C2321.843,1888.394,2321.022,1773.953,2321.022,1773.953z"/>
					
						<linearGradient id="SVGID_00000072248647009101237360000010952896196271027346_" gradientUnits="userSpaceOnUse" x1="-2199.7771" y1="2001.01" x2="-2041.3708" y2="2001.01" gradientTransform="matrix(-1 0 0 1 83.0112 0)">
						<stop  offset="0" style="stop-color:#F9B776"/>
						<stop  offset="1" style="stop-color:#F47960"/>
					</linearGradient>
					<path style="fill:url(#SVGID_00000072248647009101237360000010952896196271027346_);" d="M2261.851,1950.332
						c8.668,20.645,18.009,50.491,20.937,87.434c-125.265,48.601-158.406-45.655-158.406-45.655l23.151-4.084
						C2199.813,1993.535,2236.331,1976.681,2261.851,1950.332z"/>
				</g>
				
					<linearGradient id="SVGID_00000147210019680140267390000002651915728818790030_" gradientUnits="userSpaceOnUse" x1="-2353.7515" y1="1577.6915" x2="-2355.4817" y2="1873.5032" gradientTransform="matrix(-1 0 0 1 83.0112 0)">
					<stop  offset="0" style="stop-color:#F9B776"/>
					<stop  offset="1" style="stop-color:#F47960"/>
				</linearGradient>
				<path style="fill:url(#SVGID_00000147210019680140267390000002651915728818790030_);" d="M2378.459,1608.196l30.097,110.64
					c3.381,12.429,16.825,19.103,28.785,14.322c12.907-5.16,29.282-12.203,43.379-19.814c15.048-8.124,19.755-27.48,10.23-41.683
					l-62.573-93.3L2378.459,1608.196z"/>
			</g>
			<g>
				
					<linearGradient id="SVGID_00000109006891962019916830000006255407563358534297_" gradientUnits="userSpaceOnUse" x1="-2526.9707" y1="2676.7092" x2="-2672.5828" y2="2869.342" gradientTransform="matrix(-0.9897 -0.1428 -0.1428 0.9897 222.066 -1480.9402)">
					<stop  offset="0" style="stop-color:#F9B776"/>
					<stop  offset="1" style="stop-color:#F47960"/>
				</linearGradient>
				<path style="fill:url(#SVGID_00000109006891962019916830000006255407563358534297_);" d="M2312.614,1524.136
					c-0.274,1.9,25.103,126.257,25.103,126.257l70.698-15.999l-6.541-121.438
					C2401.874,1512.956,2317.204,1492.328,2312.614,1524.136z"/>
				
					<linearGradient id="SVGID_00000134236832588693223720000009478086954694234026_" gradientUnits="userSpaceOnUse" x1="-2638.1768" y1="2723.1768" x2="-2464.2412" y2="2723.1768" gradientTransform="matrix(-0.9897 -0.1428 -0.1428 0.9897 222.066 -1480.9402)">
					<stop  offset="0" style="stop-color:#2B3582"/>
					<stop  offset="1" style="stop-color:#150E42"/>
				</linearGradient>
				<path style="fill:url(#SVGID_00000134236832588693223720000009478086954694234026_);" d="M2385.973,1540.017l8.449,63.658
					c0.108,0.816,0.107,1.623-0.009,2.438c-0.713,4.99-4.425,21.977-21.573,17.12c-15.56-4.408-29.827-8.199-39.681-5.184
					c-4.425,1.353-7.094,5.835-6.168,10.369c2.309,11.298,7.981,36.661,16.272,57.945c1.683,4.319,6.412,6.587,10.862,5.29
					c13.408-3.909,41.457-12.944,62.319-25.499c2.827-1.701,4.51-4.776,4.372-8.072c-0.678-16.07-2.558-64.921-0.976-78.615
					c1.485-12.853,17.259-20.553,24.113-23.314c2.247-0.905,4.008-2.675,4.906-4.925c3.174-7.953,7.549-26.357-15.643-33.898
					c-4.854-1.578-7.412-6.812-5.687-11.615c3.435-9.563,4.883-24.157-13.059-32.198c-18.237-8.173-31.856,1.549-39.21,9.449
					c-2.973,3.194-7.745,3.681-11.434,1.35c-2.1-1.327-4.806-1.762-8.075,0.274c-4.405,2.745-10.239,0.874-12.512-3.792
					c-4.368-8.964-13.267-18.566-31.121-15.508c-31.68,5.425-35.269,40.532-26.911,61.104s42.371,12.737,59.434,2.366
					c12.973-7.885,29.802,0.38,37.124,4.795C2384.082,1534.95,2385.617,1537.332,2385.973,1540.017z"/>
				
					<linearGradient id="SVGID_00000016059025606444304710000002438067801141286538_" gradientUnits="userSpaceOnUse" x1="-2740.2351" y1="2829.2595" x2="-2623.4424" y2="2709.4333" gradientTransform="matrix(-0.9897 -0.1428 -0.1428 0.9897 222.066 -1480.9402)">
					<stop  offset="0" style="stop-color:#F9B776"/>
					<stop  offset="1" style="stop-color:#F47960"/>
				</linearGradient>
				<path style="fill:url(#SVGID_00000016059025606444304710000002438067801141286538_);" d="M2422.686,1602.673
					c0,0-13.024-36.471,0.357-45.403c13.381-8.932,33.199-4.295,28.835,22.126C2446.45,1612.26,2422.686,1602.673,2422.686,1602.673
					z"/>
			</g>
			
				<linearGradient id="SVGID_00000101823014941391202770000002041852971555471534_" gradientUnits="userSpaceOnUse" x1="-2058.2" y1="1982.4063" x2="-2001.4735" y2="1982.4063" gradientTransform="matrix(-1 0 0 1 83.0112 0)">
				<stop  offset="0" style="stop-color:#F9B776"/>
				<stop  offset="1" style="stop-color:#F47960"/>
			</linearGradient>
			<path style="fill:url(#SVGID_00000101823014941391202770000002041852971555471534_);" d="M2133.668,2009.357
				c-6.305,4.926-27.907-5.358-41.125-12.468c-6.442-3.465-9.562-10.998-7.351-17.971c3.181-10.031,8.482-22.98,15.012-24.613
				C2111.04,1951.597,2159.651,1989.058,2133.668,2009.357z"/>
			<g>
				<g>
					
						<linearGradient id="SVGID_00000096036528207932457040000001664762199767927221_" gradientUnits="userSpaceOnUse" x1="-1426.0391" y1="1542.1493" x2="-3818.6414" y2="3287.511" gradientTransform="matrix(-1 0 0 1 83.0112 0)">
						<stop  offset="0" style="stop-color:#2B3582"/>
						<stop  offset="1" style="stop-color:#150E42"/>
					</linearGradient>
					<path style="fill:url(#SVGID_00000096036528207932457040000001664762199767927221_);" d="M3197.289,2314.014l-1649.546-586.666
						l-87.272,242.423l1648.975,603.054c35.023,12.809,74.111-1.396,92.877-33.622c19.277-33.102,37.697-84.823,38.808-162.292
						C3241.535,2348.746,3223.829,2323.453,3197.289,2314.014z"/>
					<g>
						
							<linearGradient id="SVGID_00000031892526423768079580000006374670146005213825_" gradientUnits="userSpaceOnUse" x1="-1342.1586" y1="1930.5767" x2="-1027.0081" y2="1656.6379" gradientTransform="matrix(-1 0 0 1 83.0112 0)">
							<stop  offset="0" style="stop-color:#2B3582"/>
							<stop  offset="1" style="stop-color:#150E42"/>
						</linearGradient>
						<path style="fill:url(#SVGID_00000031892526423768079580000006374670146005213825_);" d="M1037.424,1664.692l227.858,27.976
							c-0.24,31.361-10.51,71.934-45.271,118.479l-190.289-125.527C1019.619,1678.955,1025.412,1663.217,1037.424,1664.692z"/>
						
							<linearGradient id="SVGID_00000088837121987848625720000001114409864594747810_" gradientUnits="userSpaceOnUse" x1="-1066.6208" y1="1528.5132" x2="-2233.4841" y2="2727.7002" gradientTransform="matrix(-1 0 0 1 83.0112 0)">
							<stop  offset="0" style="stop-color:#FDF53F"/>
							<stop  offset="1" style="stop-color:#D93C65"/>
						</linearGradient>
						<path style="fill:url(#SVGID_00000088837121987848625720000001114409864594747810_);" d="M1547.744,1727.348
							c10.438,151.926-87.272,242.423-87.272,242.423l-240.461-158.624c34.761-46.546,45.031-87.118,45.271-118.479
							L1547.744,1727.348z"/>
					</g>
				</g>
				
					<linearGradient id="SVGID_00000139265013382054554900000015118414040753098124_" gradientUnits="userSpaceOnUse" x1="-1778.198" y1="1563.5189" x2="-2831.2585" y2="2645.751" gradientTransform="matrix(-1 0 0 1 83.0112 0)">
					<stop  offset="0" style="stop-color:#A737D5"/>
					<stop  offset="1" style="stop-color:#EF497A"/>
				</linearGradient>
				<path style="fill:url(#SVGID_00000139265013382054554900000015118414040753098124_);" d="M3176.827,2388.353
					c1.998,0,3.868-1.24,4.569-3.234c0.895-2.524-0.431-5.293-2.955-6.184l-1578.174-557.739c-2.533-0.89-5.298,0.431-6.184,2.954
					c-0.895,2.524,0.431,5.294,2.954,6.184l1578.174,557.739C3175.747,2388.263,3176.292,2388.353,3176.827,2388.353z"/>
				
					<linearGradient id="SVGID_00000043437983048920980230000018239669324794162832_" gradientUnits="userSpaceOnUse" x1="-1750.9716" y1="1658.6238" x2="-2804.0344" y2="2740.8582" gradientTransform="matrix(-1 0 0 1 83.0112 0)">
					<stop  offset="0" style="stop-color:#A737D5"/>
					<stop  offset="1" style="stop-color:#EF497A"/>
				</linearGradient>
				<path style="fill:url(#SVGID_00000043437983048920980230000018239669324794162832_);" d="M3149.602,2483.461
					c1.998,0,3.868-1.24,4.569-3.234c0.895-2.524-0.431-5.293-2.955-6.184L1573.042,1916.3c-2.533-0.89-5.293,0.426-6.184,2.954
					c-0.895,2.524,0.431,5.294,2.954,6.184l1578.174,557.744C3148.522,2483.372,3149.066,2483.461,3149.602,2483.461z"/>
			</g>
			
				<linearGradient id="SVGID_00000095317001802954325350000016457299540768440705_" gradientUnits="userSpaceOnUse" x1="-2497.407" y1="2073.8616" x2="-2698.5471" y2="2251.9756" gradientTransform="matrix(-1 0 0 1 83.0112 0)">
				<stop  offset="0" style="stop-color:#F9B776"/>
				<stop  offset="1" style="stop-color:#F47960"/>
			</linearGradient>
			<path style="fill:url(#SVGID_00000095317001802954325350000016457299540768440705_);" d="M2698.394,2122.99l-72.906-5.941
				l-31.574,29.105c0,0,7.47,10.325,30.823,4.39s55.343-7.391,55.343-7.391s32.24,14.534,32.633-12.661L2698.394,2122.99z"/>
		</g>
	</g>
</g>
</svg>
