<?xml version="1.0" encoding="utf-8"?>
<!-- Generator: Adobe Illustrator 27.5.0, SVG Export Plug-In . SVG Version: 6.00 Build 0)  -->
<svg version="1.1" xmlns="http://www.w3.org/2000/svg" xmlns:xlink="http://www.w3.org/1999/xlink" x="0px" y="0px"
	 viewBox="0 0 3710 3710" style="enable-background:new 0 0 3710 3710;" xml:space="preserve">
<g id="Background">
	<g>
		<g>
			<rect style="fill:#FFFFFF;" width="3710" height="3710"/>
		</g>
	</g>
</g>
<g id="Illustration">
	<g>
		<linearGradient id="SVGID_1_" gradientUnits="userSpaceOnUse" x1="3465.1211" y1="3284.4624" x2="1388.9698" y2="1467.8314">
			<stop  offset="0" style="stop-color:#B37CFF"/>
			<stop  offset="1" style="stop-color:#F895E7"/>
		</linearGradient>
		<path style="opacity:0.3;fill:url(#SVGID_1_);" d="M3112.283,2341.005c-268.322,631.791-983.071,985.725-1602.902,890.252
			c-100.859-15.536-377.367-61.812-622.177-280.132C415.93,2530.844,315.144,1698.633,695.307,1112.153
			c276.692-426.854,772.691-668.823,1243.987-656.72c101.517,2.607,490.573,18.675,832.486,300.609
			c50.22,41.411,160.986,139.814,260.813,295.923C3267.004,1418.54,3287.152,1929.259,3112.283,2341.005z"/>
		<g>
			<g>
				<g style="opacity:0.3;">
					
						<linearGradient id="SVGID_00000030449324508917017090000015715482379484615078_" gradientUnits="userSpaceOnUse" x1="1208.4771" y1="633.8641" x2="1776.6232" y2="633.8641" gradientTransform="matrix(0.9977 0.0676 -0.0676 0.9977 331.4361 -40.131)">
						<stop  offset="0" style="stop-color:#B37CFF"/>
						<stop  offset="1" style="stop-color:#F895E7"/>
					</linearGradient>
					<path style="fill:url(#SVGID_00000030449324508917017090000015715482379484615078_);" d="M1491.081,898.558
						c-5.023-0.34-9.08-4.429-9.268-9.57c-0.414-11.243-0.343-22.673,0.206-33.968c0.267-5.496,4.938-9.734,10.432-9.467
						c0.066,0.004,0.13,0.009,0.194,0.013c5.4,0.366,9.536,4.99,9.271,10.42c-0.523,10.732-0.588,21.588-0.197,32.268
						c0.203,5.497-4.09,10.119-9.589,10.32C1491.777,898.59,1491.427,898.582,1491.081,898.558z M1497.589,812.029
						c-0.388-0.026-0.781-0.076-1.173-0.149c-5.406-1.014-8.969-6.22-7.955-11.626c2.084-11.105,4.664-22.232,7.668-33.068
						c1.469-5.302,6.934-8.398,12.259-6.941c5.301,1.471,8.406,6.961,6.937,12.259c-2.854,10.301-5.304,20.87-7.283,31.425
						C1507.101,808.942,1502.556,812.366,1497.589,812.029z M1522.988,729.085c-1.106-0.075-2.219-0.338-3.295-0.804
						c-5.044-2.194-7.358-8.06-5.166-13.106c4.492-10.342,9.491-20.618,14.859-30.541c2.621-4.838,8.664-6.631,13.5-4.022
						c4.837,2.617,6.639,8.663,4.022,13.5c-5.098,9.423-9.844,19.179-14.111,29.001
						C1531.073,727.083,1527.072,729.362,1522.988,729.085z M1566.306,653.888c-1.828-0.124-3.644-0.754-5.228-1.922
						c-4.427-3.264-5.369-9.501-2.106-13.928c6.699-9.081,13.869-17.981,21.313-26.454c3.632-4.125,9.922-4.534,14.057-0.907
						c4.131,3.63,4.537,9.924,0.907,14.057c-7.069,8.046-13.882,16.498-20.244,25.13
						C1572.908,652.705,1569.588,654.11,1566.306,653.888z M1625.303,590.239c-2.564-0.174-5.059-1.334-6.869-3.433
						c-3.594-4.167-3.128-10.456,1.038-14.047c8.524-7.35,17.484-14.441,26.63-21.067c4.452-3.232,10.681-2.24,13.91,2.218
						c3.227,4.454,2.234,10.681-2.22,13.912c-8.694,6.297-17.21,13.036-25.311,20.021
						C1630.414,589.626,1627.826,590.41,1625.303,590.239z M1696.905,541.23c-3.321-0.225-6.454-2.107-8.131-5.262
						c-2.582-4.859-0.738-10.887,4.118-13.471c9.954-5.292,20.262-10.224,30.633-14.653c5.062-2.161,10.912,0.19,13.073,5.25
						c2.161,5.056-0.19,10.91-5.248,13.071c-9.855,4.21-19.646,8.893-29.105,13.922
						C1700.542,540.993,1698.697,541.352,1696.905,541.23z M2062.659,542.252c-1.376-0.093-2.752-0.475-4.045-1.171
						c-9.42-5.076-19.19-9.81-29.037-14.065c-5.048-2.183-7.373-8.045-5.19-13.092c2.181-5.051,8.044-7.375,13.094-5.192
						c10.37,4.482,20.66,9.465,30.582,14.809c4.844,2.61,6.653,8.652,4.044,13.494
						C2070.195,540.586,2066.436,542.508,2062.659,542.252z M1777.537,509.329c-4.122-0.279-7.8-3.126-8.94-7.337
						c-1.438-5.311,1.702-10.78,7.011-12.218c10.883-2.947,22.027-5.456,33.122-7.457c5.417-0.951,10.595,2.617,11.572,8.034
						c0.976,5.413-2.621,10.593-8.036,11.572c-10.537,1.899-21.119,4.282-31.453,7.079
						C1779.715,509.297,1778.61,509.401,1777.537,509.329z M1982.12,509.971c-0.656-0.044-1.318-0.152-1.976-0.333
						c-10.324-2.841-20.909-5.27-31.458-7.229c-5.409-1.006-8.979-6.205-7.976-11.612c1.006-5.407,6.202-9.005,11.612-7.975
						c11.099,2.062,22.237,4.619,33.101,7.605c5.304,1.459,8.423,6.943,6.964,12.245
						C1991.111,507.317,1986.747,510.284,1982.12,509.971z M1863.272,496.238c-5.015-0.34-9.07-4.417-9.267-9.551
						c-0.212-5.497,4.071-10.124,9.569-10.341c11.255-0.434,22.68-0.389,33.957,0.141c0.07,0.001,0.142,0.006,0.212,0.01
						c5.392,0.365,9.525,4.978,9.272,10.401c-0.258,5.497-4.919,9.743-10.415,9.484c-10.712-0.5-21.564-0.542-32.257-0.127
						C1863.982,496.267,1863.624,496.262,1863.272,496.238z"/>
					
						<linearGradient id="SVGID_00000032629507466507121200000018368052428401262014_" gradientUnits="userSpaceOnUse" x1="1804.2412" y1="484.2275" x2="1837.4222" y2="484.2275" gradientTransform="matrix(0.9977 0.0676 -0.0676 0.9977 331.4361 -40.131)">
						<stop  offset="0" style="stop-color:#B37CFF"/>
						<stop  offset="1" style="stop-color:#F895E7"/>
					</linearGradient>
					<path style="fill:url(#SVGID_00000032629507466507121200000018368052428401262014_);" d="M2120.979,580.86
						c-1.957-0.133-3.896-0.841-5.543-2.161c-4.008-3.212-8.15-6.39-12.31-9.456c-4.429-3.26-5.377-9.497-2.115-13.925
						c3.26-4.431,9.5-5.385,13.927-2.113c4.377,3.221,8.733,6.566,12.951,9.945c4.292,3.438,4.987,9.709,1.549,14
						C2127.317,579.797,2124.123,581.074,2120.979,580.86z"/>
				</g>
				<g style="opacity:0.3;">
					
						<linearGradient id="SVGID_00000008869007039281084370000000081487146355865483_" gradientUnits="userSpaceOnUse" x1="1976.4644" y1="737.7769" x2="1999.2334" y2="737.7769" gradientTransform="matrix(0.9977 0.0676 -0.0676 0.9977 331.4361 -40.131)">
						<stop  offset="0" style="stop-color:#B37CFF"/>
						<stop  offset="1" style="stop-color:#F895E7"/>
					</linearGradient>
					<path style="fill:url(#SVGID_00000008869007039281084370000000081487146355865483_);" d="M2265.043,848.182
						c-4.796-0.325-8.782-4.089-9.235-9.03c-0.467-5.113-1.049-10.304-1.731-15.423c-0.726-5.454,3.105-10.463,8.558-11.189
						c5.476-0.729,10.463,3.107,11.189,8.558c0.717,5.391,1.331,10.857,1.824,16.241c0.5,5.478-3.535,10.325-9.013,10.827
						C2266.097,848.214,2265.565,848.217,2265.043,848.182z"/>
					
						<linearGradient id="SVGID_00000099648604518452743900000003574705657161541788_" gradientUnits="userSpaceOnUse" x1="1418.8954" y1="996.7678" x2="2004.0991" y2="996.7678" gradientTransform="matrix(0.9977 0.0676 -0.0676 0.9977 331.4361 -40.131)">
						<stop  offset="0" style="stop-color:#B37CFF"/>
						<stop  offset="1" style="stop-color:#F895E7"/>
					</linearGradient>
					<path style="fill:url(#SVGID_00000099648604518452743900000003574705657161541788_);" d="M1852.909,1270.874
						c-4.573-0.31-9.157-0.699-13.753-1.166c-5.473-0.558-9.458-5.445-8.902-10.918c0.556-5.473,5.472-9.476,10.916-8.904
						c10.606,1.078,21.232,1.724,31.703,1.919c5.505,0.112,9.875,4.643,9.774,10.142c-0.102,5.503-4.645,9.879-10.145,9.776
						C1866.025,1271.602,1859.432,1271.316,1852.909,1270.874z M1787.325,1260.825c-0.555-0.038-1.117-0.123-1.677-0.258
						c-10.803-2.608-21.615-5.704-32.135-9.201c-5.219-1.734-8.045-7.373-6.311-12.591c1.736-5.221,7.386-8.059,12.595-6.31
						c9.992,3.321,20.264,6.26,30.529,8.742c5.347,1.291,8.634,6.673,7.343,12.017
						C1796.512,1258.011,1792.078,1261.147,1787.325,1260.825z M1924.85,1269.062c-4.685-0.318-8.631-3.927-9.206-8.759
						c-0.65-5.465,3.253-10.418,8.715-11.07c10.449-1.241,20.987-2.949,31.325-5.079c5.39-1.101,10.656,2.36,11.765,7.747
						c1.109,5.39-2.36,10.657-7.749,11.767c-10.886,2.241-21.985,4.039-32.989,5.349
						C1926.082,1269.09,1925.459,1269.103,1924.85,1269.062z M1707.014,1231.753c-1.262-0.085-2.526-0.417-3.729-1.01
						c-9.956-4.914-19.823-10.313-29.324-16.046c-4.709-2.842-6.223-8.962-3.38-13.671c2.843-4.713,8.961-6.229,13.673-3.382
						c9.022,5.443,18.39,10.57,27.847,15.236c4.934,2.432,6.958,8.407,4.524,13.339
						C1714.784,1229.948,1710.921,1232.018,1707.014,1231.753z M2007.953,1249.658c-3.843-0.26-7.352-2.752-8.72-6.616
						c-1.836-5.186,0.88-10.879,6.066-12.715c9.915-3.508,19.819-7.493,29.44-11.84c5.013-2.266,10.914-0.04,13.179,4.976
						c2.264,5.012,0.037,10.91-4.976,13.175c-10.128,4.578-20.555,8.773-30.995,12.469
						C2010.625,1249.574,2009.268,1249.747,2007.953,1249.658z M2084.788,1212.488c-3.073-0.208-6.006-1.834-7.77-4.641
						c-2.925-4.659-1.52-10.808,3.14-13.732c8.934-5.611,17.737-11.663,26.161-17.987c4.395-3.309,10.637-2.422,13.946,1.983
						c3.303,4.4,2.414,10.642-1.985,13.947c-8.866,6.656-18.129,13.024-27.531,18.927
						C2088.899,1212.147,2086.814,1212.626,2084.788,1212.488z M2151.691,1159.452c-2.337-0.158-4.626-1.136-6.403-2.933
						c-3.869-3.908-3.835-10.216,0.075-14.085c7.507-7.427,14.781-15.248,21.622-23.254c3.573-4.18,9.856-4.678,14.043-1.099
						c4.18,3.575,4.674,9.859,1.1,14.043c-7.2,8.422-14.856,16.658-22.754,24.472
						C2157.259,1158.687,2154.444,1159.639,2151.691,1159.452z M2205.432,1093.092c-1.619-0.11-3.232-0.617-4.695-1.555
						c-4.631-2.969-5.976-9.129-3.006-13.759c5.699-8.883,11.08-18.108,15.997-27.422c2.568-4.864,8.6-6.725,13.457-4.161
						c4.866,2.568,6.728,8.595,4.159,13.459c-5.178,9.811-10.846,19.527-16.844,28.878
						C2212.466,1091.701,2208.939,1093.33,2205.432,1093.092z M2243.309,1016.523c-0.91-0.062-1.827-0.252-2.728-0.579
						c-5.17-1.875-7.842-7.59-5.965-12.758c3.59-9.896,6.805-20.074,9.554-30.261c1.434-5.312,6.917-8.446,12.212-7.019
						c5.311,1.433,8.454,6.902,7.02,12.214c-2.895,10.722-6.279,21.44-10.06,31.857
						C2251.792,1014.248,2247.625,1016.816,2243.309,1016.523z M2263.425,933.561c-0.204-0.014-0.409-0.036-0.614-0.061
						c-5.455-0.705-9.306-5.7-8.599-11.155c0.996-7.701,1.766-15.522,2.29-23.255c0.19-2.799,0.346-5.596,0.475-8.383
						c0.254-5.497,4.914-9.748,10.408-9.492c5.569,0.147,9.744,4.911,9.492,10.404c-0.135,2.936-0.301,5.872-0.5,8.818
						c-0.551,8.132-1.362,16.364-2.41,24.463C2273.288,930.15,2268.636,933.914,2263.425,933.561z"/>
					
						<linearGradient id="SVGID_00000067203587686530597370000014648204009309193097_" gradientUnits="userSpaceOnUse" x1="1360.5643" y1="1120.109" x2="1393.322" y2="1120.109" gradientTransform="matrix(0.9977 0.0676 -0.0676 0.9977 331.4361 -40.131)">
						<stop  offset="0" style="stop-color:#B37CFF"/>
						<stop  offset="1" style="stop-color:#F895E7"/>
					</linearGradient>
					<path style="fill:url(#SVGID_00000067203587686530597370000014648204009309193097_);" d="M1634.896,1185.556
						c-1.976-0.134-3.929-0.855-5.584-2.192c-4.192-3.392-8.392-6.937-12.482-10.536c-4.131-3.634-4.534-9.928-0.9-14.057
						c3.635-4.129,9.924-4.537,14.057-0.9c3.886,3.418,7.876,6.785,11.855,10.007c4.276,3.457,4.939,9.729,1.479,14.006
						C1641.199,1184.505,1638.021,1185.768,1634.896,1185.556z"/>
				</g>
				<g>
					
						<linearGradient id="SVGID_00000051374152797315736340000001559859709394412987_" gradientUnits="userSpaceOnUse" x1="2955.321" y1="1396.4219" x2="867.9152" y2="480.0015" gradientTransform="matrix(0.9977 0.0676 -0.0676 0.9977 331.4361 -40.131)">
						<stop  offset="0" style="stop-color:#A737D5"/>
						<stop  offset="1" style="stop-color:#EF497A"/>
					</linearGradient>
					<path style="fill:url(#SVGID_00000051374152797315736340000001559859709394412987_);" d="M1656.118,1071.2
						c1.148,1.62,3.199,2.333,5.105,1.775l54.378-15.915c19.824,17.526,42.585,32.017,67.679,42.589l9.213,55.868
						c0.323,1.96,1.854,3.498,3.812,3.832l66.998,11.407c1.958,0.333,3.912-0.613,4.865-2.354l27.18-49.673
						c27.179-1.673,53.453-7.816,77.959-17.795l46.049,33.012c1.614,1.157,3.784,1.163,5.404,0.014l55.44-39.31
						c1.621-1.15,2.334-3.2,1.775-5.105l-15.914-54.378c17.526-19.823,32.017-42.586,42.588-67.679l55.869-9.213
						c1.959-0.323,3.498-1.853,3.832-3.811l11.406-66.999c0.333-1.958-0.612-3.912-2.355-4.864l-49.673-27.181
						c-1.673-27.179-7.814-53.453-17.795-77.958l33.013-46.05c1.156-1.613,1.162-3.784,0.014-5.404l-39.31-55.44
						c-1.148-1.621-3.199-2.333-5.105-1.776l-54.378,15.915c-19.823-17.527-42.585-32.018-67.679-42.589l-9.213-55.87
						c-0.323-1.959-1.853-3.498-3.811-3.832l-66.999-11.406c-1.958-0.334-3.911,0.612-4.865,2.355l-27.18,49.673
						c-27.179,1.672-53.453,7.815-77.959,17.795l-46.048-33.012c-1.614-1.158-3.786-1.163-5.405-0.014l-55.44,39.31
						c-1.62,1.148-2.333,3.199-1.776,5.105l15.914,54.378c-17.526,19.823-32.017,42.586-42.589,67.679l-55.869,9.213
						c-1.959,0.323-3.498,1.854-3.831,3.812l-11.406,66.997c-0.333,1.958,0.612,3.912,2.354,4.866l49.673,27.18
						c1.673,27.179,7.816,53.452,17.795,77.958l-33.011,46.049c-1.158,1.614-1.163,3.784-0.015,5.405L1656.118,1071.2z"/>
					<path style="opacity:0.56;fill:#FFFFFF;" d="M1875.22,939.043c-33.224-2.252-60.745-28.627-63.438-62.791
						c-2.959-37.555,25.184-70.511,62.736-73.472c18.194-1.438,35.854,4.302,49.727,16.15c13.877,11.848,22.31,28.392,23.742,46.584
						c2.959,37.555-25.184,70.511-62.735,73.472C1881.867,939.252,1878.514,939.266,1875.22,939.043z M1883.538,818.623
						c-2.566-0.174-5.158-0.162-7.769,0.043c-28.791,2.268-50.369,27.542-48.101,56.331c2.27,28.793,27.533,50.382,56.332,48.102
						c28.791-2.268,50.369-27.541,48.101-56.33c-1.1-13.95-7.564-26.633-18.204-35.719
						C1905.249,823.667,1894.681,819.379,1883.538,818.623z"/>
					<path style="opacity:0.56;fill:#FFFFFF;" d="M1869.942,1037.58c-5.706-0.387-11.426-1.063-17.141-2.035l0,0
						c-1.799-0.305-3.593-0.641-5.382-1.004c-8.818-1.795-17.48-4.289-25.851-7.442c-0.114-0.043-0.228-0.086-0.342-0.128
						c-0.323-0.123-0.646-0.247-0.969-0.374c-0.629-0.241-1.255-0.491-1.88-0.74c-1.644-0.657-2.608-2.286-2.496-3.964
						c0.028-0.407,0.12-0.818,0.279-1.217c0.817-2.043,3.138-3.028,5.179-2.215c10.511,4.21,21.545,7.314,32.798,9.227
						c55.894,9.525,110.06-11.325,145.569-50.52c19.753-21.798,33.732-49.275,39.023-80.363c0.929-5.451,1.576-10.91,1.943-16.353
						c2.479-36.629-7.632-72.696-29.154-103.047c-24.72-34.865-61.539-58.018-103.67-65.19
						c-87.016-14.805-169.786,43.91-184.592,130.883c-0.913,5.362-1.551,10.752-1.915,16.143
						c-1.58,23.365,1.971,46.817,10.479,68.658c0.219,0.565,0.302,1.147,0.262,1.714c-0.101,1.491-1.042,2.866-2.529,3.443
						c-2.054,0.793-4.361-0.21-5.159-2.268c-8.932-22.931-12.662-47.553-11.003-72.082c0.382-5.66,1.052-11.315,2.008-16.944
						c15.544-91.314,102.504-152.943,193.784-137.404c44.232,7.529,82.882,31.835,108.834,68.437
						c22.595,31.863,33.208,69.727,30.608,108.18c-0.387,5.714-1.066,11.444-2.039,17.165
						c-7.532,44.234-31.836,82.886-68.436,108.838C1946.278,1029.577,1908.403,1040.187,1869.942,1037.58z"/>
				</g>
			</g>
			<g>
				<g style="opacity:0.3;">
					
						<linearGradient id="SVGID_00000085954894946144630980000018414682553101338773_" gradientUnits="userSpaceOnUse" x1="870.5164" y1="1107.0476" x2="886.7101" y2="1107.0476" gradientTransform="matrix(0.9977 0.0676 -0.0676 0.9977 331.4361 -40.131)">
						<stop  offset="0" style="stop-color:#B37CFF"/>
						<stop  offset="1" style="stop-color:#F895E7"/>
					</linearGradient>
					<path style="fill:url(#SVGID_00000085954894946144630980000018414682553101338773_);" d="M1134.209,1137.457
						c-2.655-0.18-4.984-2.078-5.587-4.81c-1.129-5.099-2.12-10.302-2.941-15.464c-0.534-3.354,1.75-6.505,5.108-7.042
						c3.358-0.549,6.508,1.754,7.042,5.108c0.783,4.919,1.727,9.878,2.803,14.744c0.735,3.313-1.36,6.597-4.677,7.336
						C1135.368,1137.457,1134.781,1137.496,1134.209,1137.457z"/>
					
						<linearGradient id="SVGID_00000013163344924228875430000014294233207088372145_" gradientUnits="userSpaceOnUse" x1="863.9612" y1="925.1227" x2="1181.354" y2="925.1227" gradientTransform="matrix(0.9977 0.0676 -0.0676 0.9977 331.4361 -40.131)">
						<stop  offset="0" style="stop-color:#B37CFF"/>
						<stop  offset="1" style="stop-color:#F895E7"/>
					</linearGradient>
					<path style="fill:url(#SVGID_00000013163344924228875430000014294233207088372145_);" d="M1128.265,1090.508
						c-3.111-0.211-5.618-2.747-5.725-5.928c-0.307-8.987-0.153-18.093,0.455-27.06c0.128-1.888,0.278-3.781,0.445-5.678
						c0.305-3.387,3.463-5.744,6.674-5.587c3.384,0.301,5.883,3.289,5.584,6.671c-0.162,1.813-0.306,3.623-0.428,5.427
						c-0.58,8.554-0.726,17.238-0.437,25.808c0.116,3.398-2.542,6.241-5.937,6.36
						C1128.683,1090.524,1128.472,1090.522,1128.265,1090.508z M1133.932,1026.884c-0.29-0.02-0.586-0.058-0.877-0.119
						c-3.324-0.713-5.442-3.982-4.732-7.306c2.276-10.661,5.236-21.275,8.795-31.541c1.112-3.212,4.632-4.901,7.827-3.799
						c3.212,1.115,4.911,4.614,3.799,7.826c-3.395,9.796-6.216,19.92-8.389,30.087
						C1139.707,1025.06,1136.935,1027.088,1133.932,1026.884z M1154.859,966.534c-0.779-0.053-1.56-0.257-2.303-0.62
						c-3.047-1.501-4.297-5.193-2.795-8.24c4.816-9.76,10.294-19.33,16.288-28.431c1.87-2.842,5.674-3.626,8.522-1.753
						c2.836,1.866,3.622,5.683,1.756,8.519c-5.715,8.681-10.94,17.799-15.53,27.11
						C1159.658,965.421,1157.271,966.698,1154.859,966.534z M1189.983,913.174c-1.271-0.086-2.524-0.568-3.568-1.452
						c-2.585-2.205-2.897-6.091-0.692-8.676c7.075-8.3,14.724-16.229,22.742-23.574c2.507-2.293,6.4-2.113,8.69,0.384
						c2.296,2.504,2.125,6.394-0.381,8.693c-7.643,6.997-14.942,14.565-21.686,22.477
						C1193.772,912.57,1191.862,913.301,1189.983,913.174z M1237.073,870.012c-1.775-0.12-3.485-1.007-4.598-2.57
						c-1.971-2.765-1.325-6.605,1.44-8.579c8.871-6.318,18.214-12.151,27.772-17.332c2.989-1.628,6.722-0.514,8.341,2.474
						c1.619,2.988,0.51,6.724-2.474,8.34c-9.12,4.946-18.033,10.508-26.495,16.54
						C1239.852,869.743,1238.442,870.105,1237.073,870.012z M1293.204,839.591c-2.299-0.156-4.416-1.607-5.315-3.895
						c-1.24-3.161,0.321-6.728,3.482-7.971c10.139-3.974,20.622-7.352,31.155-10.034c3.304-0.83,6.641,1.155,7.481,4.445
						c0.839,3.29-1.152,6.642-4.442,7.479c-10.046,2.559-20.036,5.777-29.702,9.566
						C1294.988,839.525,1294.083,839.651,1293.204,839.591z M1355.054,823.822c-2.877-0.195-5.308-2.401-5.682-5.365
						c-0.425-3.371,1.963-6.448,5.334-6.876c10.769-1.36,21.763-2.059,32.682-2.084c3.405,0.05,6.16,2.748,6.165,6.144
						c0.008,3.397-2.741,6.155-6.138,6.166c-10.416,0.017-20.902,0.685-31.169,1.982
						C1355.842,823.839,1355.443,823.848,1355.054,823.822z M1450.401,829.502c-0.354-0.024-0.714-0.079-1.073-0.169
						c-8.705-2.162-17.68-3.884-26.68-5.12c-1.362-0.195-2.702-0.37-4.041-0.527c-3.375-0.409-5.781-3.469-5.374-6.843
						c0.401-3.381,3.497-5.881,6.841-5.377c1.427,0.175,2.851,0.356,4.279,0.561c9.402,1.294,18.812,3.1,27.94,5.368
						c3.299,0.82,5.307,4.154,4.487,7.452C1456.052,827.783,1453.323,829.7,1450.401,829.502z"/>
				</g>
				<g style="opacity:0.3;">
					
						<linearGradient id="SVGID_00000129192970432044619210000015615200498592993922_" gradientUnits="userSpaceOnUse" x1="1005.6032" y1="1229.3885" x2="1367.855" y2="1229.3885" gradientTransform="matrix(0.9977 0.0676 -0.0676 0.9977 331.4361 -40.131)">
						<stop  offset="0" style="stop-color:#B37CFF"/>
						<stop  offset="1" style="stop-color:#F895E7"/>
					</linearGradient>
					<path style="fill:url(#SVGID_00000129192970432044619210000015615200498592993922_);" d="M1373.754,1340.557
						c-3.351-0.227-5.907-3.11-5.724-6.476c0.185-3.39,3.086-5.993,6.478-5.805c10.214,0.56,20.547,0.501,30.715-0.176
						c3.37-0.193,6.324,2.337,6.548,5.731c0.225,3.393-2.343,6.32-5.731,6.548c-10.664,0.704-21.498,0.771-32.203,0.184
						C1373.811,1340.561,1373.781,1340.559,1373.754,1340.557z M1342.488,1336.951c-0.222-0.015-0.44-0.042-0.663-0.081
						c-10.547-1.859-21.089-4.38-31.331-7.489c-3.251-0.991-5.086-4.421-4.098-7.672c0.985-3.257,4.438-5.076,7.672-4.104
						c9.774,2.969,19.832,5.372,29.896,7.15c3.345,0.588,5.579,3.78,4.988,7.124
						C1348.401,1335.009,1345.581,1337.161,1342.488,1336.951z M1436.429,1336.375c-2.721-0.185-5.085-2.175-5.624-4.982
						c-0.639-3.331,1.546-6.555,4.883-7.196c10.051-1.932,20.067-4.487,29.774-7.605c3.246-1.026,6.699,0.743,7.735,3.981
						c1.04,3.232-0.743,6.7-3.977,7.739c-10.175,3.266-20.677,5.945-31.213,7.965
						C1437.473,1336.38,1436.945,1336.41,1436.429,1336.375z M1282.36,1318.652c-0.698-0.047-1.4-0.215-2.078-0.514
						c-9.797-4.343-19.425-9.337-28.611-14.843c-2.916-1.745-3.862-5.524-2.116-8.441c1.745-2.904,5.524-3.852,8.438-2.113
						c8.761,5.248,17.938,10.007,27.279,14.151c3.104,1.378,4.507,5.014,3.129,8.118
						C1287.323,1317.436,1284.866,1318.822,1282.36,1318.652z M1496.229,1317.167c-2.173-0.147-4.201-1.446-5.175-3.56
						c-1.426-3.089-0.076-6.743,3.007-8.166c9.271-4.273,18.375-9.16,27.064-14.532c2.894-1.791,6.684-0.89,8.469,2.001
						c1.785,2.891,0.89,6.684-2.001,8.469c-9.112,5.627-18.658,10.754-28.377,15.238
						C1498.248,1317.063,1497.221,1317.234,1496.229,1317.167z M1549.678,1284.174c-1.663-0.113-3.273-0.896-4.394-2.297
						c-2.121-2.655-1.689-6.527,0.965-8.647c7.996-6.389,15.673-13.318,22.817-20.589c2.384-2.427,6.281-2.459,8.701-0.079
						c2.425,2.38,2.459,6.272,0.079,8.695c-7.49,7.627-15.536,14.892-23.915,21.586
						C1552.682,1283.841,1551.159,1284.274,1549.678,1284.174z M1593.688,1239.322c-1.169-0.079-2.327-0.489-3.326-1.261
						c-2.696-2.068-3.202-5.932-1.132-8.627c6.237-8.11,12.026-16.678,17.207-25.461c1.727-2.918,5.5-3.897,8.424-2.169
						c2.926,1.728,3.899,5.497,2.172,8.426c-5.435,9.206-11.506,18.194-18.044,26.705
						C1597.685,1238.629,1595.672,1239.456,1593.688,1239.322z"/>
					
						<linearGradient id="SVGID_00000036969994379486389880000012657088169135946382_" gradientUnits="userSpaceOnUse" x1="965.7816" y1="1252.0432" x2="990.556" y2="1252.0432" gradientTransform="matrix(0.9977 0.0676 -0.0676 0.9977 331.4361 -40.131)">
						<stop  offset="0" style="stop-color:#B37CFF"/>
						<stop  offset="1" style="stop-color:#F895E7"/>
					</linearGradient>
					<path style="fill:url(#SVGID_00000036969994379486389880000012657088169135946382_);" d="M1228.212,1286.194
						c-1.184-0.08-2.356-0.503-3.363-1.288c-4.152-3.238-8.225-6.615-12.113-10.034c-2.548-2.245-2.8-6.133-0.556-8.685
						c2.247-2.539,6.13-2.794,8.685-0.555c3.705,3.262,7.593,6.482,11.553,9.575c2.679,2.09,3.155,5.958,1.065,8.634
						C1232.178,1285.511,1230.181,1286.327,1228.212,1286.194z"/>
				</g>
				<g>
					
						<linearGradient id="SVGID_00000086670164398370423730000011059815631028236195_" gradientUnits="userSpaceOnUse" x1="2791.5515" y1="1768.8774" x2="704.147" y2="852.4578" gradientTransform="matrix(0.9977 0.0676 -0.0676 0.9977 331.4361 -40.131)">
						<stop  offset="0" style="stop-color:#A737D5"/>
						<stop  offset="1" style="stop-color:#EF497A"/>
					</linearGradient>
					<path style="fill:url(#SVGID_00000086670164398370423730000011059815631028236195_);" d="M1238.688,1207.249
						c0.768,1.084,2.141,1.561,3.416,1.188l36.388-10.649c13.265,11.727,28.495,21.424,45.287,28.499l6.165,37.384
						c0.216,1.311,1.24,2.341,2.55,2.564l44.832,7.633c1.311,0.223,2.618-0.41,3.256-1.575l18.188-33.239
						c18.187-1.12,35.768-5.229,52.167-11.908l30.814,22.09c1.08,0.774,2.533,0.778,3.617,0.009l37.098-26.304
						c1.084-0.769,1.561-2.141,1.188-3.416l-10.65-36.387c11.728-13.265,21.425-28.496,28.499-45.288l37.385-6.164
						c1.311-0.216,2.341-1.24,2.564-2.55l7.632-44.833c0.223-1.31-0.41-2.618-1.576-3.255l-33.239-18.188
						c-1.119-18.187-5.229-35.768-11.908-52.166l22.09-30.815c0.774-1.08,0.778-2.532,0.01-3.616l-26.305-37.099
						c-0.768-1.084-2.14-1.561-3.416-1.188l-36.388,10.65c-13.264-11.728-28.495-21.424-45.288-28.499l-6.165-37.385
						c-0.216-1.311-1.24-2.341-2.55-2.564l-44.833-7.632c-1.31-0.223-2.617,0.41-3.255,1.576l-18.188,33.239
						c-18.187,1.119-35.769,5.229-52.167,11.907l-30.813-22.09c-1.08-0.775-2.533-0.779-3.617-0.01l-37.098,26.304
						c-1.084,0.769-1.561,2.14-1.188,3.416l10.649,36.387c-11.728,13.265-21.424,28.496-28.498,45.288l-37.385,6.164
						c-1.31,0.216-2.341,1.24-2.563,2.551l-7.633,44.832c-0.223,1.311,0.41,2.617,1.575,3.256l33.239,18.188
						c1.12,18.187,5.229,35.767,11.907,52.166l-22.09,30.814c-0.774,1.08-0.778,2.532-0.01,3.617L1238.688,1207.249z"/>
					<path style="opacity:0.56;fill:#FFFFFF;" d="M1385.178,1119.633c-9.901-0.671-19.29-4.48-26.974-11.041
						c-9.452-8.071-15.194-19.342-16.169-31.734c-2.018-25.571,17.149-48.021,42.73-50.044
						c25.617-1.973,48.033,17.159,50.047,42.736c0.978,12.393-2.929,24.423-11,33.872c-8.071,9.455-19.341,15.2-31.736,16.172
						C1389.76,1119.775,1387.453,1119.787,1385.178,1119.633z M1390.757,1039.052c-1.652-0.112-3.329-0.105-5.027,0.027
						c-18.815,1.488-32.914,18.001-31.431,36.817c0.719,9.111,4.941,17.406,11.894,23.339c6.956,5.939,15.803,8.802,24.919,8.096
						l0,0c9.114-0.719,17.406-4.944,23.342-11.894c5.939-6.956,8.812-15.805,8.093-24.922
						C1421.199,1053.4,1407.405,1040.181,1390.757,1039.052z"/>
					<path style="opacity:0.56;fill:#FFFFFF;" d="M1381.415,1188.216c-3.884-0.263-7.785-0.727-11.702-1.389
						c-7.778-1.322-15.429-3.436-22.759-6.293c-0.328-0.131-0.657-0.262-0.985-0.392c-2.539-1.015-4.027-3.53-3.855-6.12
						c0.043-0.629,0.185-1.264,0.431-1.879c1.262-3.154,4.845-4.67,7.997-3.42c6.818,2.732,13.962,4.74,21.23,5.973l0.003,0
						c0.399,0.069,0.801,0.132,1.197,0.195c17.23,2.764,34.496,1.128,50.526-4.53c8.701-3.072,17.041-7.335,24.811-12.74
						c0.063-0.044,0.126-0.088,0.189-0.132c0.193-0.138,0.386-0.269,0.576-0.407c22.569-16.005,37.558-39.839,42.201-67.115
						c0.604-3.53,1.021-7.061,1.259-10.585c1.604-23.712-4.943-47.061-18.874-66.714c-16.005-22.57-39.84-37.553-67.113-42.195
						c-27.259-4.63-54.727,1.614-77.299,17.612c-22.569,16.005-37.558,39.839-42.201,67.115c-0.593,3.47-1.004,6.959-1.241,10.447
						c-1.022,15.129,1.275,30.308,6.784,44.447c0.339,0.872,0.468,1.772,0.405,2.647c-0.156,2.302-1.61,4.425-3.904,5.317
						c-3.169,1.224-6.731-0.33-7.967-3.503c-6.162-15.82-8.735-32.807-7.595-49.728c0.265-3.908,0.725-7.809,1.386-11.691
						c5.197-30.52,21.964-57.184,47.219-75.09c25.251-17.901,55.949-24.925,86.476-19.706c30.517,5.193,57.182,21.958,75.085,47.215
						c15.59,21.982,22.912,48.105,21.117,74.634c-0.267,3.938-0.734,7.893-1.405,11.839
						C1493.346,1151.11,1439.969,1192.184,1381.415,1188.216z"/>
				</g>
			</g>
		</g>
		<g>
			<g>
				
					<linearGradient id="SVGID_00000069374051892708654310000000300904438560874156_" gradientUnits="userSpaceOnUse" x1="2010.5052" y1="3179.1133" x2="1983.8212" y2="2650.7756">
					<stop  offset="0" style="stop-color:#2B3582"/>
					<stop  offset="1" style="stop-color:#150E42"/>
				</linearGradient>
				<polygon style="fill:url(#SVGID_00000069374051892708654310000000300904438560874156_);" points="1728.178,2582.307 
					1671.538,2973.183 2328.671,2973.183 2243.079,2582.307 				"/>
				
					<linearGradient id="SVGID_00000084497472487908122090000004667680259363411092_" gradientUnits="userSpaceOnUse" x1="624.3107" y1="1952.0258" x2="3247.397" y2="1952.0258">
					<stop  offset="0" style="stop-color:#2B3582"/>
					<stop  offset="1" style="stop-color:#150E42"/>
				</linearGradient>
				<path style="fill:url(#SVGID_00000084497472487908122090000004667680259363411092_);" d="M624.311,1330.751V2494.16
					c0,95.706,76.266,173.97,171.94,176.438c424.934,10.957,1911.146,37.527,2315.654,31.564
					c69.524-1.025,125.845-56.661,127.851-126.164c7.8-270.275,20.468-920.198-26.412-1221.932
					c-9.873-63.542-63.508-111.057-127.779-113.113c-356.041-11.39-1931.523-47.557-2335.842-38.477
					C679.991,1204.042,624.311,1261.003,624.311,1330.751z"/>
				
					<linearGradient id="SVGID_00000157267691169450308340000013080724793153955005_" gradientUnits="userSpaceOnUse" x1="1953.2428" y1="1451.5154" x2="1809.1771" y2="3789.292">
					<stop  offset="0" style="stop-color:#FDF53F"/>
					<stop  offset="1" style="stop-color:#D93C65"/>
				</linearGradient>
				<path style="fill:url(#SVGID_00000157267691169450308340000013080724793153955005_);" d="M697.311,1325.088v1105.318
					c0,55.878,44.855,101.409,100.727,102.245l2255.672,27.868c55.393,0.828,100.798-43.738,101.005-99.137l3.774-1095.443
					c0.147-39.611-31.411-72.068-71.01-73.031l-2309.39-46.656C733.798,1245.175,697.311,1280.785,697.311,1325.088z"/>
				<path style="opacity:0.65;fill:#FFFFFF;" d="M3171.698,2605.819c-0.018,0-0.037,0-0.055,0l-2474.385-42.16
					c-1.727-0.031-3.103-1.454-3.074-3.18c0.029-1.732,1.472-3.048,3.181-3.076l2474.385,42.16c1.727,0.031,3.103,1.454,3.074,3.18
					C3174.795,2604.454,3173.399,2605.819,3171.698,2605.819z"/>
				
					<linearGradient id="SVGID_00000168088414519492882360000009250818726561469852_" gradientUnits="userSpaceOnUse" x1="2015.2872" y1="2976.9741" x2="1701.5439" y2="3665.8445">
					<stop  offset="0" style="stop-color:#2B3582"/>
					<stop  offset="1" style="stop-color:#150E42"/>
				</linearGradient>
				<path style="fill:url(#SVGID_00000168088414519492882360000009250818726561469852_);" d="M2470.218,3077.116h-961.76
					c-26.128,0-45.749-18.6-40.697-38.58l12.341-48.807c3.711-14.677,19.859-25.454,39.038-26.052l927.171-28.932
					c20.037-0.625,37.779,10.011,42.145,25.265l22.247,77.738C2516.483,3057.945,2496.768,3077.116,2470.218,3077.116z"/>
				<path style="fill:#FFFFFF;" d="M2026.191,2976.892c-1.706,0-3.1-1.372-3.126-3.082c-0.024-1.729,1.355-3.149,3.082-3.174
					l39.73-0.58c1.66,0.009,3.147,1.356,3.174,3.082c0.024,1.729-1.355,3.149-3.082,3.174l-39.73,0.58
					C2026.223,2976.892,2026.207,2976.892,2026.191,2976.892z"/>
				<path style="fill:#FFFFFF;" d="M1503.368,3050.201c-0.165,0-0.331-0.012-0.498-0.04c-1.706-0.272-2.868-1.875-2.595-3.58
					l5.669-35.499c3.044-19.072,19.27-33.119,38.583-33.403l421.402-6.164c0.015,0,0.032,0,0.047,0c1.706,0,3.1,1.372,3.126,3.082
					c0.024,1.729-1.355,3.149-3.082,3.174l-421.402,6.164c-16.266,0.238-29.935,12.068-32.499,28.131l-5.669,35.499
					C1506.206,3049.104,1504.877,3050.201,1503.368,3050.201z"/>
			</g>
			<g>
				<g style="opacity:0.53;">
					<rect x="1949.58" y="1402.35" style="fill:#FFFFFF;" width="59.328" height="1046.441"/>
					<rect x="2048.712" y="1402.35" style="fill:#FFFFFF;" width="59.328" height="1046.441"/>
					<rect x="2147.844" y="1402.35" style="fill:#FFFFFF;" width="59.328" height="1046.441"/>
					<rect x="2246.976" y="1402.35" style="fill:#FFFFFF;" width="59.328" height="1046.441"/>
					<rect x="2346.107" y="1402.35" style="fill:#FFFFFF;" width="59.328" height="1046.441"/>
					<rect x="2445.239" y="1402.35" style="fill:#FFFFFF;" width="59.328" height="1046.441"/>
					<rect x="2544.37" y="1402.35" style="fill:#FFFFFF;" width="59.328" height="1046.441"/>
				</g>
				
					<linearGradient id="SVGID_00000164472509056900972700000013030962996183913621_" gradientUnits="userSpaceOnUse" x1="1430.7028" y1="3005.8472" x2="2347.9812" y2="1616.4424">
					<stop  offset="0" style="stop-color:#A737D5"/>
					<stop  offset="1" style="stop-color:#EF497A"/>
				</linearGradient>
				
					<rect x="1949.58" y="1901.148" style="fill:url(#SVGID_00000164472509056900972700000013030962996183913621_);" width="59.328" height="547.643"/>
				
					<linearGradient id="SVGID_00000077319702378369393770000000409270120011256238_" gradientUnits="userSpaceOnUse" x1="1543.0112" y1="3079.9963" x2="2460.2881" y2="1690.5939">
					<stop  offset="0" style="stop-color:#A737D5"/>
					<stop  offset="1" style="stop-color:#EF497A"/>
				</linearGradient>
				
					<rect x="2048.712" y="2089.364" style="fill:url(#SVGID_00000077319702378369393770000000409270120011256238_);" width="59.328" height="359.427"/>
				
					<linearGradient id="SVGID_00000093178244834235459600000010597813913275518623_" gradientUnits="userSpaceOnUse" x1="1505.1151" y1="3054.9714" x2="2422.3936" y2="1665.5664">
					<stop  offset="0" style="stop-color:#A737D5"/>
					<stop  offset="1" style="stop-color:#EF497A"/>
				</linearGradient>
				
					<rect x="2147.844" y="1624.201" style="fill:url(#SVGID_00000093178244834235459600000010597813913275518623_);" width="59.328" height="824.59"/>
				
					<linearGradient id="SVGID_00000113351469817485591970000002657800858949708957_" gradientUnits="userSpaceOnUse" x1="1718.1815" y1="3195.6404" x2="2635.4587" y2="1806.2373">
					<stop  offset="0" style="stop-color:#A737D5"/>
					<stop  offset="1" style="stop-color:#EF497A"/>
				</linearGradient>
				
					<rect x="2246.976" y="2250.693" style="fill:url(#SVGID_00000113351469817485591970000002657800858949708957_);" width="59.328" height="198.098"/>
				
					<linearGradient id="SVGID_00000153677476023768945650000011490882660421659297_" gradientUnits="userSpaceOnUse" x1="1668.5377" y1="3162.8657" x2="2585.8164" y2="1773.4604">
					<stop  offset="0" style="stop-color:#A737D5"/>
					<stop  offset="1" style="stop-color:#EF497A"/>
				</linearGradient>
				
					<rect x="2346.107" y="1734.442" style="fill:url(#SVGID_00000153677476023768945650000011490882660421659297_);" width="59.328" height="714.349"/>
				
					<linearGradient id="SVGID_00000140692821032997139290000005729374852511577489_" gradientUnits="userSpaceOnUse" x1="1766.0118" y1="3227.2185" x2="2683.2898" y2="1837.8143">
					<stop  offset="0" style="stop-color:#A737D5"/>
					<stop  offset="1" style="stop-color:#EF497A"/>
				</linearGradient>
				
					<rect x="2445.239" y="1858.127" style="fill:url(#SVGID_00000140692821032997139290000005729374852511577489_);" width="59.328" height="590.664"/>
				
					<linearGradient id="SVGID_00000135662244689089383520000014009718503312997033_" gradientUnits="userSpaceOnUse" x1="1865.9596" y1="3293.2026" x2="2783.2366" y2="1903.8">
					<stop  offset="0" style="stop-color:#A737D5"/>
					<stop  offset="1" style="stop-color:#EF497A"/>
				</linearGradient>
				
					<rect x="2544.37" y="1992.567" style="fill:url(#SVGID_00000135662244689089383520000014009718503312997033_);" width="59.328" height="456.224"/>
			</g>
			<g>
				<path style="opacity:0.44;fill:#FFFFFF;" d="M1784.457,2454.581l-924.543-6.946c-18.239-0.137-32.953-14.961-32.953-33.201
					v-475.013c0-18.337,14.865-33.202,33.202-33.202h924.543c18.337,0,33.202,14.865,33.202,33.202v481.958
					C1817.909,2439.814,1802.891,2454.719,1784.457,2454.581z"/>
				<path style="opacity:0.44;fill:#FFFFFF;" d="M1641.052,2120.686l-118.887-125.694L1351.699,2180.4l-120.284-129.786
					l-112.81,127.524l-86.508-105.099l-170.487,177.498v128.357c0,16.964,13.685,30.752,30.648,30.88l859.888,6.459
					c17.145,0.129,31.112-13.734,31.112-30.879v-349.186L1641.052,2120.686z"/>
				<rect x="1641.779" y="2117.191" style="fill:#FFFFFF;" width="3.128" height="299.043"/>
				<rect x="1520.601" y="1994.993" style="fill:#FFFFFF;" width="3.128" height="419.513"/>
				<rect x="1350.136" y="2178.139" style="fill:#FFFFFF;" width="3.128" height="235.087"/>
				<rect x="1233.047" y="2055.211" style="fill:#FFFFFF;" width="3.128" height="358.015"/>
				<rect x="1117.042" y="2174.327" style="fill:#FFFFFF;" width="3.128" height="238.898"/>
				<rect x="1032.367" y="2064.127" style="fill:#FFFFFF;" width="3.128" height="346.808"/>
				
					<linearGradient id="SVGID_00000054266126267860701270000007193517545359354515_" gradientUnits="userSpaceOnUse" x1="1055.7798" y1="1998.0724" x2="946.1672" y2="2329.46">
					<stop  offset="0" style="stop-color:#FDF53F"/>
					<stop  offset="1" style="stop-color:#D93C65"/>
				</linearGradient>
				
					<circle style="fill:url(#SVGID_00000054266126267860701270000007193517545359354515_);" cx="1033.931" cy="2064.126" r="26.123"/>
				
					<linearGradient id="SVGID_00000127740496917114902860000000560289436001594523_" gradientUnits="userSpaceOnUse" x1="1132.9989" y1="2130.8147" x2="1060.7902" y2="2349.1206">
					<stop  offset="0" style="stop-color:#FDF53F"/>
					<stop  offset="1" style="stop-color:#D93C65"/>
				</linearGradient>
				<path style="fill:url(#SVGID_00000127740496917114902860000000560289436001594523_);" d="M1135.815,2174.329
					c0,9.504-7.705,17.209-17.209,17.209c-9.505,0-17.209-7.705-17.209-17.209c0-9.504,7.704-17.209,17.209-17.209
					C1128.11,2157.119,1135.815,2164.824,1135.815,2174.329z"/>
				
					<linearGradient id="SVGID_00000175293356587708804100000016156220958131956886_" gradientUnits="userSpaceOnUse" x1="1249.0037" y1="2011.6981" x2="1176.795" y2="2230.0037">
					<stop  offset="0" style="stop-color:#FDF53F"/>
					<stop  offset="1" style="stop-color:#D93C65"/>
				</linearGradient>
				<path style="fill:url(#SVGID_00000175293356587708804100000016156220958131956886_);" d="M1251.82,2055.212
					c0,9.505-7.705,17.209-17.209,17.209c-9.505,0-17.21-7.705-17.21-17.209c0-9.504,7.705-17.209,17.21-17.209
					C1244.115,2038.003,1251.82,2045.708,1251.82,2055.212z"/>
				
					<linearGradient id="SVGID_00000044174831984196076540000014045877905851627429_" gradientUnits="userSpaceOnUse" x1="1366.092" y1="2134.6243" x2="1293.8835" y2="2352.9294">
					<stop  offset="0" style="stop-color:#FDF53F"/>
					<stop  offset="1" style="stop-color:#D93C65"/>
				</linearGradient>
				<path style="fill:url(#SVGID_00000044174831984196076540000014045877905851627429_);" d="M1368.908,2178.138
					c0,9.504-7.705,17.209-17.209,17.209c-9.505,0-17.209-7.705-17.209-17.209c0-9.504,7.705-17.209,17.209-17.209
					C1361.203,2160.929,1368.908,2168.634,1368.908,2178.138z"/>
				
					<linearGradient id="SVGID_00000127723595336101405940000007738452244645374101_" gradientUnits="userSpaceOnUse" x1="1536.5585" y1="1951.4783" x2="1464.3503" y2="2169.7822">
					<stop  offset="0" style="stop-color:#FDF53F"/>
					<stop  offset="1" style="stop-color:#D93C65"/>
				</linearGradient>
				<path style="fill:url(#SVGID_00000127723595336101405940000007738452244645374101_);" d="M1539.375,1994.992
					c0,9.504-7.704,17.209-17.209,17.209c-9.504,0-17.209-7.705-17.209-17.209c0-9.505,7.705-17.209,17.209-17.209
					C1531.67,1977.783,1539.375,1985.487,1539.375,1994.992z"/>
				
					<linearGradient id="SVGID_00000031186121268513584640000013031930810798476188_" gradientUnits="userSpaceOnUse" x1="1657.7357" y1="2073.6782" x2="1585.5275" y2="2291.9827">
					<stop  offset="0" style="stop-color:#CB236D"/>
					<stop  offset="1" style="stop-color:#4C246D"/>
				</linearGradient>
				<path style="fill:url(#SVGID_00000031186121268513584640000013031930810798476188_);" d="M1660.552,2117.192
					c0,9.504-7.704,17.209-17.209,17.209c-9.504,0-17.209-7.705-17.209-17.209c0-9.504,7.705-17.209,17.209-17.209
					C1652.848,2099.983,1660.552,2107.688,1660.552,2117.192z"/>
			</g>
			<g style="opacity:0.48;">
				<path style="fill:#FFFFFF;" d="M1094.108,1827.135H840.666c-10.602,0-19.197,5.985-19.197,13.369
					c0,7.384,8.595,13.369,19.197,13.369h253.442c10.602,0,19.197-5.985,19.197-13.369
					C1113.305,1833.12,1104.71,1827.135,1094.108,1827.135z"/>
				<path style="fill:#FFFFFF;" d="M1094.108,1767.94H840.666c-10.602,0-19.197,5.985-19.197,13.369s8.595,13.369,19.197,13.369
					h253.442c10.602,0,19.197-5.986,19.197-13.369S1104.71,1767.94,1094.108,1767.94z"/>
				<path style="fill:#FFFFFF;" d="M1094.108,1708.745H840.666c-10.602,0-19.197,5.985-19.197,13.369
					c0,7.384,8.595,13.369,19.197,13.369h253.442c10.602,0,19.197-5.985,19.197-13.369
					C1113.305,1714.73,1104.71,1708.745,1094.108,1708.745z"/>
			</g>
			<g style="opacity:0.48;">
				<path style="fill:#FFFFFF;" d="M1446.41,1827.135h-253.442c-10.602,0-19.197,5.985-19.197,13.369
					c0,7.384,8.595,13.369,19.197,13.369h253.442c10.602,0,19.197-5.985,19.197-13.369
					C1465.607,1833.12,1457.012,1827.135,1446.41,1827.135z"/>
				<path style="fill:#FFFFFF;" d="M1446.41,1767.94h-253.442c-10.602,0-19.197,5.985-19.197,13.369s8.595,13.369,19.197,13.369
					h253.442c10.602,0,19.197-5.986,19.197-13.369S1457.012,1767.94,1446.41,1767.94z"/>
				<path style="fill:#FFFFFF;" d="M1446.41,1708.745h-253.442c-10.602,0-19.197,5.985-19.197,13.369
					c0,7.384,8.595,13.369,19.197,13.369h253.442c10.602,0,19.197-5.985,19.197-13.369
					C1465.607,1714.73,1457.012,1708.745,1446.41,1708.745z"/>
			</g>
			<g style="opacity:0.48;">
				<path style="fill:#FFFFFF;" d="M1798.712,1827.135H1545.27c-10.602,0-19.197,5.985-19.197,13.369
					c0,7.384,8.595,13.369,19.197,13.369h253.442c10.602,0,19.197-5.985,19.197-13.369
					C1817.909,1833.12,1809.314,1827.135,1798.712,1827.135z"/>
				<path style="fill:#FFFFFF;" d="M1798.712,1767.94H1545.27c-10.602,0-19.197,5.985-19.197,13.369s8.595,13.369,19.197,13.369
					h253.442c10.602,0,19.197-5.986,19.197-13.369S1809.314,1767.94,1798.712,1767.94z"/>
				<path style="fill:#FFFFFF;" d="M1798.712,1708.745H1545.27c-10.602,0-19.197,5.985-19.197,13.369
					c0,7.384,8.595,13.369,19.197,13.369h253.442c10.602,0,19.197-5.985,19.197-13.369
					C1817.909,1714.73,1809.314,1708.745,1798.712,1708.745z"/>
			</g>
			<g>
				<g>
					<circle style="opacity:0.91;fill:#FFFFFF;" cx="2871.011" cy="1882.764" r="117.271"/>
					
						<linearGradient id="SVGID_00000006670698414867128120000010657906270633814168_" gradientUnits="userSpaceOnUse" x1="3030.7148" y1="1735.0388" x2="2621.8525" y2="2123.0605">
						<stop  offset="0" style="stop-color:#FDF53F"/>
						<stop  offset="1" style="stop-color:#D93C65"/>
					</linearGradient>
					<path style="fill:url(#SVGID_00000006670698414867128120000010657906270633814168_);" d="M2940.692,1857.979
						c3.63,8.827,5.645,18.488,5.645,28.623c0,41.602-33.725,75.327-75.326,75.327c-41.602,0-75.326-33.725-75.326-75.327
						c0-41.601,33.724-75.326,75.326-75.326c1.274,0,2.541,0.034,3.799,0.096v-19.094c-1.261-0.05-2.526-0.082-3.799-0.082
						c-52.14,0-94.407,42.267-94.407,94.407c0,52.14,42.267,94.407,94.407,94.407c52.14,0,94.407-42.267,94.407-94.407
						c0-12.838-2.567-25.076-7.209-36.233L2940.692,1857.979z"/>
					<path style="opacity:0.5;fill:#FFFFFF;" d="M2967.399,2049.71h-191.103c-11.995,0-21.719,9.724-21.719,21.719
						c0,11.995,9.724,21.719,21.719,21.719h191.103c11.995,0,21.72-9.723,21.72-21.719
						C2989.119,2059.434,2979.394,2049.71,2967.399,2049.71z"/>
				</g>
				<g>
					<circle style="opacity:0.91;fill:#FFFFFF;" cx="2870.508" cy="1505.846" r="117.271"/>
					
						<linearGradient id="SVGID_00000146470380027111189770000002021561254855223227_" gradientUnits="userSpaceOnUse" x1="3003.6311" y1="1381.7157" x2="2640.6807" y2="1726.1656">
						<stop  offset="0" style="stop-color:#FDF53F"/>
						<stop  offset="1" style="stop-color:#D93C65"/>
					</linearGradient>
					<path style="fill:url(#SVGID_00000146470380027111189770000002021561254855223227_);" d="M2910.371,1573.415
						c-11.621,7.335-25.377,11.596-40.136,11.596c-41.602,0-75.326-33.725-75.326-75.327c0-41.601,33.724-75.326,75.326-75.326
						c1.275,0,2.541,0.034,3.8,0.096v-19.094c-1.261-0.05-2.527-0.082-3.8-0.082c-52.14,0-94.407,42.268-94.407,94.407
						c0,52.14,42.267,94.407,94.407,94.407c18.197,0,35.188-5.153,49.603-14.073L2910.371,1573.415z"/>
					<path style="opacity:0.5;fill:#FFFFFF;" d="M2967.903,1672.792h-191.104c-11.995,0-21.719,9.724-21.719,21.719
						c0,11.995,9.724,21.718,21.719,21.718h191.104c11.995,0,21.719-9.723,21.719-21.718
						C2989.622,1682.516,2979.898,1672.792,2967.903,1672.792z"/>
				</g>
				<g>
					
						<ellipse transform="matrix(0.0553 -0.9985 0.9985 0.0553 454.4973 5003.5688)" style="opacity:0.91;fill:#FFFFFF;" cx="2871.429" cy="2261.601" rx="117.271" ry="117.271"/>
					
						<linearGradient id="SVGID_00000167364680051694418990000016681884757143721650_" gradientUnits="userSpaceOnUse" x1="3007.0798" y1="2134.3528" x2="2644.1299" y2="2478.8022">
						<stop  offset="0" style="stop-color:#FDF53F"/>
						<stop  offset="1" style="stop-color:#D93C65"/>
					</linearGradient>
					<path style="fill:url(#SVGID_00000167364680051694418990000016681884757143721650_);" d="M2935.295,2303.952
						c-13.557,19.903-36.397,32.975-62.294,32.975c-41.602,0-75.327-33.724-75.327-75.326c0-41.601,33.725-75.326,75.327-75.326
						c1.274,0,2.541,0.034,3.8,0.096v-19.094c-1.261-0.05-2.527-0.083-3.8-0.083c-52.139,0-94.407,42.268-94.407,94.407
						c0,52.14,42.268,94.407,94.407,94.407c32.255,0,60.727-16.18,77.756-40.862L2935.295,2303.952z"/>
					<path style="opacity:0.5;fill:#FFFFFF;" d="M2775.878,2468.147h191.104c11.995,0,21.718-9.724,21.718-21.719
						c0-11.995-9.723-21.72-21.718-21.72h-191.104c-11.995,0-21.719,9.724-21.719,21.72
						C2754.159,2458.423,2763.883,2468.147,2775.878,2468.147z"/>
				</g>
			</g>
		</g>
		<g>
			
				<linearGradient id="SVGID_00000037669596254276725860000012743716939627293609_" gradientUnits="userSpaceOnUse" x1="-1708.0815" y1="-80.2851" x2="-3478.1392" y2="2574.7979" gradientTransform="matrix(-1 0 0 1 239.4117 0)">
				<stop  offset="0" style="stop-color:#53D8FF"/>
				<stop  offset="1" style="stop-color:#3840F7"/>
			</linearGradient>
			<path style="fill:url(#SVGID_00000037669596254276725860000012743716939627293609_);" d="M3140.951,629.825L2031.33,624.49
				c-13.374-0.122-24.234,14.67-24.132,32.869l2.458,439.019c0.102,18.302,11.248,32.907,24.692,32.358l1103.297-23.629
				c12.834-0.525,23.085-14.717,23.25-32.188l3.866-410.055C3164.931,644.771,3154.248,629.946,3140.951,629.825z"/>
			<path style="fill:#FFFFFF;" d="M2033.644,1100.578c-2.053,0-3.647-1.942-3.663-4.42l-2.457-439.014
				c-0.006-1.153,0.303-2.164,0.918-3.009c0.892-1.219,1.982-1.475,2.74-1.475l1109.63,5.336c0.756,0.005,1.833,0.272,2.717,1.495
				c0.611,0.85,0.917,1.859,0.907,3.003l-3.867,410.053c-0.022,2.428-1.536,4.317-3.521,4.397h-0.026L2033.644,1100.578z
				 M2031.176,655.506c-0.069,0-0.21,0-0.435,0.308c-0.253,0.347-0.375,0.778-0.372,1.314l2.457,439.014
				c0.005,0.972,0.521,1.592,0.788,1.592l1103.347-23.632c0.292-0.022,0.756-0.656,0.764-1.581l3.867-410.051
				c0.004-0.533-0.117-0.961-0.37-1.314c-0.225-0.311-0.368-0.314-0.429-0.314L2031.176,655.506z"/>
			<g style="opacity:0.6;">
				<rect x="2076.322" y="856.682" style="fill:#FFFFFF;" width="54" height="206.355"/>
				<rect x="2166.551" y="927.603" style="fill:#FFFFFF;" width="54" height="135.434"/>
				<rect x="2256.78" y="752.326" style="fill:#FFFFFF;" width="54" height="310.711"/>
				<rect x="2347.008" y="988.393" style="fill:#FFFFFF;" width="54" height="74.645"/>
				<rect x="2437.237" y="793.866" style="fill:#FFFFFF;" width="54" height="269.171"/>
				<rect x="2527.465" y="840.471" style="fill:#FFFFFF;" width="54" height="222.566"/>
				<rect x="2617.694" y="891.129" style="fill:#FFFFFF;" width="54" height="171.908"/>
				<rect x="2707.923" y="689.511" style="fill:#FFFFFF;" width="54" height="373.526"/>
				<rect x="2798.152" y="729.024" style="fill:#FFFFFF;" width="54" height="334.013"/>
				<rect x="2888.38" y="788.8" style="fill:#FFFFFF;" width="54" height="274.237"/>
				<rect x="2978.609" y="995.32" style="fill:#FFFFFF;" width="54" height="67.717"/>
				<rect x="3068.838" y="863.774" style="fill:#FFFFFF;" width="54" height="199.263"/>
			</g>
		</g>
		<g>
			
				<linearGradient id="SVGID_00000139274500675135760000000011985203558910480541_" gradientUnits="userSpaceOnUse" x1="1240.3815" y1="1178.6003" x2="1489.4518" y2="2095.1797">
				<stop  offset="0" style="stop-color:#53D8FF"/>
				<stop  offset="1" style="stop-color:#3840F7"/>
			</linearGradient>
			<path style="fill:url(#SVGID_00000139274500675135760000000011985203558910480541_);" d="M1823.914,1121.14l-1069.657-5.142
				c-12.892-0.118-23.361,14.142-23.263,31.685l2.369,423.207c0.099,17.643,10.843,31.722,23.802,31.192l1063.561-22.778
				c12.372-0.506,22.254-14.187,22.413-31.029l3.727-395.287C1847.03,1135.548,1836.731,1121.257,1823.914,1121.14z"/>
			<path style="fill:#FFFFFF;" d="M756.487,1574.94c-1.979,0-3.516-1.872-3.531-4.26l-2.369-423.202
				c-0.005-1.109,0.292-2.083,0.884-2.9c0.864-1.176,1.913-1.422,2.643-1.422l1069.665,5.144c0.729,0.005,1.767,0.262,2.619,1.441
				c0.589,0.819,0.884,1.792,0.874,2.895l-3.728,395.285c-0.021,2.34-1.481,4.161-3.394,4.239h-0.025L756.487,1574.94z
				 M754.108,1145.897c-0.067,0-0.203,0-0.42,0.297c-0.242,0.332-0.36,0.75-0.358,1.267l2.369,423.202
				c0.005,0.937,0.502,1.534,0.759,1.534l1063.609-22.781c0.277-0.019,0.728-0.629,0.736-1.524l3.728-395.282
				c0.004-0.514-0.113-0.927-0.356-1.267c-0.217-0.3-0.355-0.303-0.414-0.303L754.108,1145.897z"/>
			<g>
				
					<ellipse transform="matrix(0.7071 -0.7071 0.7071 0.7071 -645.413 1049.2943)" style="fill:#FFFFFF;" cx="943.904" cy="1303.73" rx="110.744" ry="110.744"/>
				
					<ellipse transform="matrix(0.7071 -0.7071 0.7071 0.7071 -565.0777 1243.241)" style="fill:#FFFFFF;" cx="1218.186" cy="1303.73" rx="110.744" ry="110.744"/>
				
					<ellipse transform="matrix(0.7071 -0.7071 0.7071 0.7071 -487.0272 1438.9213)" style="fill:#FFFFFF;" cx="1493.418" cy="1307.354" rx="110.744" ry="110.744"/>
				<g>
					
						<linearGradient id="SVGID_00000090274183925777817500000016576289642637639069_" gradientUnits="userSpaceOnUse" x1="1094.7201" y1="1164.2257" x2="708.612" y2="1530.653">
						<stop  offset="0" style="stop-color:#FDF53F"/>
						<stop  offset="1" style="stop-color:#D93C65"/>
					</linearGradient>
					<path style="fill:url(#SVGID_00000090274183925777817500000016576289642637639069_);" d="M1009.708,1280.324
						c3.427,8.335,5.331,17.459,5.331,27.03c0,39.286-31.848,71.134-71.134,71.134c-39.286,0-71.134-31.848-71.134-71.134
						c0-39.286,31.848-71.134,71.134-71.134c1.203,0,2.399,0.032,3.588,0.091v-18.032c-1.191-0.047-2.386-0.078-3.588-0.078
						c-49.238,0-89.153,39.915-89.153,89.153s39.915,89.153,89.153,89.153c49.238,0,89.153-39.915,89.153-89.153
						c0-12.124-2.424-23.68-6.808-34.217L1009.708,1280.324z"/>
					
						<linearGradient id="SVGID_00000183230290019143800890000002665354539624175546_" gradientUnits="userSpaceOnUse" x1="1343.9003" y1="1186.5076" x2="1001.1492" y2="1511.7877">
						<stop  offset="0" style="stop-color:#FDF53F"/>
						<stop  offset="1" style="stop-color:#D93C65"/>
					</linearGradient>
					<path style="fill:url(#SVGID_00000183230290019143800890000002665354539624175546_);" d="M1255.831,1367.539
						c-10.975,6.927-23.965,10.95-37.902,10.95c-39.286,0-71.134-31.848-71.134-71.134c0-39.286,31.848-71.134,71.134-71.134
						c1.203,0,2.399,0.032,3.588,0.091v-18.032c-1.191-0.047-2.386-0.078-3.588-0.078c-49.238,0-89.153,39.915-89.153,89.153
						s39.915,89.153,89.153,89.153c17.184,0,33.23-4.867,46.842-13.29L1255.831,1367.539z"/>
					
						<linearGradient id="SVGID_00000080920415714350134280000008134029201942239366_" gradientUnits="userSpaceOnUse" x1="1621.519" y1="1187.1877" x2="1278.7682" y2="1512.4678">
						<stop  offset="0" style="stop-color:#FDF53F"/>
						<stop  offset="1" style="stop-color:#D93C65"/>
					</linearGradient>
					<path style="fill:url(#SVGID_00000080920415714350134280000008134029201942239366_);" d="M1553.729,1347.349
						c-12.803,18.795-34.371,31.14-58.827,31.14c-39.287,0-71.135-31.848-71.135-71.134c0-39.286,31.848-71.134,71.135-71.134
						c1.203,0,2.399,0.032,3.588,0.091v-18.032c-1.191-0.047-2.386-0.078-3.588-0.078c-49.238,0-89.153,39.915-89.153,89.153
						s39.915,89.153,89.153,89.153c30.46,0,57.347-15.279,73.429-38.588L1553.729,1347.349z"/>
				</g>
				<g>
					<path style="opacity:0.5;fill:#FFFFFF;" d="M1034.928,1461.385H854.46c-11.328,0-20.511,9.183-20.511,20.511
						c0,11.327,9.183,20.51,20.511,20.51h180.468c11.327,0,20.51-9.183,20.51-20.51
						C1055.439,1470.568,1046.255,1461.385,1034.928,1461.385z"/>
					<path style="opacity:0.5;fill:#FFFFFF;" d="M1310.16,1461.385h-180.468c-11.327,0-20.51,9.183-20.51,20.511
						c0,11.327,9.183,20.51,20.51,20.51h180.468c11.328,0,20.51-9.183,20.51-20.51
						C1330.671,1470.568,1321.488,1461.385,1310.16,1461.385z"/>
					<path style="opacity:0.5;fill:#FFFFFF;" d="M1403.184,1502.406h180.468c11.327,0,20.51-9.183,20.51-20.51
						c0-11.328-9.182-20.511-20.51-20.511h-180.468c-11.327,0-20.51,9.183-20.51,20.511
						C1382.674,1493.223,1391.857,1502.406,1403.184,1502.406z"/>
				</g>
			</g>
		</g>
		<g>
			
				<linearGradient id="SVGID_00000042701277290871372700000008455094774210391446_" gradientUnits="userSpaceOnUse" x1="1094.4783" y1="3103.4775" x2="499.3542" y2="3750.8062">
				<stop  offset="0" style="stop-color:#CB236D"/>
				<stop  offset="1" style="stop-color:#4C246D"/>
			</linearGradient>
			<path style="fill:url(#SVGID_00000042701277290871372700000008455094774210391446_);" d="M906.359,3151.699
				c0,0-6.163,34.891-9.185,69.429c-1.181,13.499,9.226,25.219,22.764,25.783c45.995,1.916,144.381,5.641,179.685,4.065
				c5.307-0.237,8.777-5.67,6.813-10.607c-1.646-4.136-4.821-7.48-8.865-9.339l-162.515-74.692L906.359,3151.699z"/>
			
				<linearGradient id="SVGID_00000097499044664505010980000010398403452443190974_" gradientUnits="userSpaceOnUse" x1="901.3101" y1="3151.5559" x2="954.1719" y2="3151.5559">
				<stop  offset="0" style="stop-color:#F9B776"/>
				<stop  offset="1" style="stop-color:#F47960"/>
			</linearGradient>
			<path style="fill:url(#SVGID_00000097499044664505010980000010398403452443190974_);" d="M901.31,3131.199l4.951,41.735
				c0,0,28.469,13.252,47.91-1.671l-11.79-46.509L901.31,3131.199z"/>
			
				<linearGradient id="SVGID_00000042716022517318413780000004822513020390311598_" gradientUnits="userSpaceOnUse" x1="2004.9463" y1="1557.7356" x2="52.1638" y2="3591.4619">
				<stop  offset="0" style="stop-color:#53D8FF"/>
				<stop  offset="1" style="stop-color:#3840F7"/>
			</linearGradient>
			<path style="fill:url(#SVGID_00000042716022517318413780000004822513020390311598_);" d="M905.032,2346.578
				c-2.139,10.899-11.481,543.871,45.49,782.714c0.929,3.897-1.046,7.914-4.755,9.43c-8.739,3.57-25.869,8.74-46.398,9.43
				c-6.358,0.214-12.058-3.919-13.851-10.021c-16.285-55.415-94.32-333.062-104.499-598.289c-11.375-296.365,0-10.091,0-10.091
				l6.671-183.195L905.032,2346.578z"/>
			
				<linearGradient id="SVGID_00000047758252233056757840000005803659881173908415_" gradientUnits="userSpaceOnUse" x1="960.9719" y1="2980.7385" x2="365.8487" y2="3628.0662">
				<stop  offset="0" style="stop-color:#CB236D"/>
				<stop  offset="1" style="stop-color:#4C246D"/>
			</linearGradient>
			<path style="fill:url(#SVGID_00000047758252233056757840000005803659881173908415_);" d="M719.414,3169.902
				c0,0-9.811,17.614-19.309,64.42c-1.715,8.453,4.191,16.543,12.775,17.387c15.187,1.493,38.568,3.413,57.297,3.285
				c8.634-0.059,15.372-7.577,14.331-16.148c-2.074-17.084-8.537-45.114-28.503-66.961L719.414,3169.902z"/>
			
				<linearGradient id="SVGID_00000126282546194384663210000018145329205398929842_" gradientUnits="userSpaceOnUse" x1="710.7971" y1="3148.8447" x2="756.4384" y2="3148.8447">
				<stop  offset="0" style="stop-color:#F9B776"/>
				<stop  offset="1" style="stop-color:#F47960"/>
			</linearGradient>
			<path style="fill:url(#SVGID_00000126282546194384663210000018145329205398929842_);" d="M710.797,3116.222l11.57,63.114
				c0,0,11.44,8.509,34.071,2.341l-5.523-67.907L710.797,3116.222z"/>
			
				<linearGradient id="SVGID_00000131324984360149182120000001700196714199585921_" gradientUnits="userSpaceOnUse" x1="1933.7766" y1="1489.3979" x2="-19.0016" y2="3523.1199">
				<stop  offset="0" style="stop-color:#53D8FF"/>
				<stop  offset="1" style="stop-color:#3840F7"/>
			</linearGradient>
			<path style="fill:url(#SVGID_00000131324984360149182120000001700196714199585921_);" d="M679.539,2362.934
				c-46.594,281.2,10.108,695.01,29.231,776.003c1.171,4.958,5.173,8.757,10.198,9.591c8.536,1.415,22.59,2.569,36.445-1.455
				c4.773-1.386,8.127-5.692,8.322-10.659c2.565-65.48-2.052-467.465,41.363-626.33c2.201-8.051,7.117-15.072,13.919-19.908
				l84.266-59.906l6.461-96.833L679.539,2362.934z"/>
			<g>
				
					<linearGradient id="SVGID_00000176736504963449388240000001876951133951927706_" gradientUnits="userSpaceOnUse" x1="591.0405" y1="2265.7544" x2="1422.8235" y2="1667.1481">
					<stop  offset="0" style="stop-color:#CB236D"/>
					<stop  offset="1" style="stop-color:#4C246D"/>
				</linearGradient>
				<path style="fill:url(#SVGID_00000176736504963449388240000001876951133951927706_);" d="M976.441,1830.112
					c-139.635-2.307-293.706,36.664-293.706,36.664c-41.622,242.864-7.278,522.991-7.278,522.991
					c108.102,28.349,230.047-17.332,230.047-17.332c17.967-101.512,101.797-387.198,101.797-387.198
					c68.226-8.468,124.428-28.151,170.711-54.175c-35.304-40.923-51.947-92.995-59.176-123.776
					C1069.466,1822.629,1019.509,1830.824,976.441,1830.112z"/>
				
					<linearGradient id="SVGID_00000090277000467167263200000008270689625776029573_" gradientUnits="userSpaceOnUse" x1="1118.8358" y1="1772.4584" x2="1388.8971" y2="1772.4584">
					<stop  offset="0" style="stop-color:#F9B776"/>
					<stop  offset="1" style="stop-color:#F47960"/>
				</linearGradient>
				<path style="fill:url(#SVGID_00000090277000467167263200000008270689625776029573_);" d="M1388.897,1624.438
					c-13.717-16.568-31.077-8.73-31.077-8.73c-20.549,86.799-128.292,157.177-238.984,191.578
					c7.229,30.781,23.872,82.853,59.176,123.776C1361.714,1827.773,1388.897,1624.438,1388.897,1624.438z"/>
			</g>
			<g>
				
					<linearGradient id="SVGID_00000126291958949190046620000004184346415096964229_" gradientUnits="userSpaceOnUse" x1="9119.042" y1="1727.1899" x2="9300.2598" y2="2139.5015" gradientTransform="matrix(-1 0 0 1 10447.7783 0)">
					<stop  offset="0" style="stop-color:#F9B776"/>
					<stop  offset="1" style="stop-color:#F47960"/>
				</linearGradient>
				<path style="fill:url(#SVGID_00000126291958949190046620000004184346415096964229_);" d="M1385.568,1628.651
					c1.435,4.562-15.186,11.511-24.972-7.151c-0.342-8.944-5.781-47.261-0.437-54.547c28.464-38.806,83.649-87.451,83.649-87.451
					c9.326,9.203,1.643,18.244,1.643,18.244l-26.771,27.888c5.599,10.119,12.43,18.66,15.63,30.9
					c2.425,9.269,0.941,19.174-3.74,27.61c-4.699,8.466-11.11,19.471-17.171,28.084
					C1401.926,1628.528,1385.568,1628.651,1385.568,1628.651z"/>
				
					<linearGradient id="SVGID_00000072982940718395982800000010884253527595212446_" gradientUnits="userSpaceOnUse" x1="1387.6008" y1="1589.8754" x2="1463.2152" y2="1473.618">
					<stop  offset="0" style="stop-color:#F9B776"/>
					<stop  offset="1" style="stop-color:#F47960"/>
				</linearGradient>
				<path style="fill:url(#SVGID_00000072982940718395982800000010884253527595212446_);" d="M1406.97,1543.729l-24.395,20.681
					l-7.66,20.591l21.751,24.13c0,0,7.313-40.855,12.749-49.698C1414.851,1550.591,1412.032,1546.315,1406.97,1543.729z"/>
			</g>
			
				<linearGradient id="SVGID_00000014595915235793209370000011842926412065160595_" gradientUnits="userSpaceOnUse" x1="481.434" y1="2113.4531" x2="1313.215" y2="1514.8483">
				<stop  offset="0" style="stop-color:#CB236D"/>
				<stop  offset="1" style="stop-color:#4C246D"/>
			</linearGradient>
			<path style="fill:url(#SVGID_00000014595915235793209370000011842926412065160595_);" d="M736.293,2001.984l-53.558-135.207
				c0,0-130.426,88.619-151.875,200.979c24.644,1.815,69.488,8.225,113.382,30.388
				C653.887,2045.089,736.293,2001.984,736.293,2001.984z"/>
			
				<linearGradient id="SVGID_00000031896320991617242710000004961094641711951798_" gradientUnits="userSpaceOnUse" x1="527.886" y1="2154.9929" x2="869.6509" y2="2154.9929">
				<stop  offset="0" style="stop-color:#F9B776"/>
				<stop  offset="1" style="stop-color:#F47960"/>
			</linearGradient>
			<path style="fill:url(#SVGID_00000031896320991617242710000004961094641711951798_);" d="M850.272,2129.209
				c0,0-146.436,82.759-195.846,12.093c-10.259-14.673-12.711-29.256-10.184-43.159c-43.894-22.163-88.738-28.573-113.382-30.388
				c-6.467,33.872-3.048,69.898,16.856,106.309c86.549,158.323,321.936-8.75,321.936-8.75L850.272,2129.209z"/>
			<g>
				
					<linearGradient id="SVGID_00000121970850591784427730000015984814801469075873_" gradientUnits="userSpaceOnUse" x1="973.0469" y1="1912.009" x2="1160.9709" y2="2695.0278">
					<stop  offset="0" style="stop-color:#9CFFFB"/>
					<stop  offset="1" style="stop-color:#9BFFFA"/>
				</linearGradient>
				<path style="fill:url(#SVGID_00000121970850591784427730000015984814801469075873_);" d="M832.677,2233.908l79.919-279.096
					c0.907-3.169,3.61-5.479,6.884-5.861c14.48-1.689,56.437-6.433,104.882-10.53c58.352-4.936,126.117-8.935,166.611-5.533
					c5.757,0.484,9.236,6.573,6.675,11.752c-23.027,46.587-117.747,236.093-165.18,298.172c-1.571,2.057-4.002,3.259-6.59,3.235
					l-185.426-1.725C835.056,2244.271,831.192,2239.095,832.677,2233.908z"/>
				
					<linearGradient id="SVGID_00000103961347918377995220000006524335425269744817_" gradientUnits="userSpaceOnUse" x1="1090.7052" y1="1788.5839" x2="1050.6824" y2="1964.3361">
					<stop  offset="0" style="stop-color:#53D8FF"/>
					<stop  offset="1" style="stop-color:#3840F7"/>
				</linearGradient>
				<path style="fill:url(#SVGID_00000103961347918377995220000006524335425269744817_);" d="M1032.651,1914.224l57.943-9.654
					c3.086-0.514,5.613,2.435,4.633,5.405l-5.736,17.381c-0.5,1.513-1.819,2.608-3.399,2.819l-55.758,7.448
					c-2.885,0.386-5.263-2.236-4.6-5.07l3.551-15.174C1029.668,1915.744,1030.995,1914.5,1032.651,1914.224z"/>
				
					<linearGradient id="SVGID_00000049929416390214945970000017301953192282599318_" gradientUnits="userSpaceOnUse" x1="1069.759" y1="1862.3063" x2="1050.6177" y2="1977.1547">
					<stop  offset="0" style="stop-color:#53D8FF"/>
					<stop  offset="1" style="stop-color:#3840F7"/>
				</linearGradient>
				<path style="fill:url(#SVGID_00000049929416390214945970000017301953192282599318_);" d="M989.265,1963.278l4.773-24.864
					c0.479-2.494,2.538-4.378,5.064-4.635l117.032-11.876c3.939-0.4,7.093,3.21,6.168,7.06l-7.441,30.983
					c-0.596,2.479-2.753,4.27-5.3,4.398l-114.363,5.757C991.476,1970.288,988.562,1966.938,989.265,1963.278z"/>
				
					<linearGradient id="SVGID_00000182514734781310622640000000851957339973279104_" gradientUnits="userSpaceOnUse" x1="844.2763" y1="2119.1589" x2="950.7498" y2="2119.1589">
					<stop  offset="0" style="stop-color:#F9B776"/>
					<stop  offset="1" style="stop-color:#F47960"/>
				</linearGradient>
				<path style="fill:url(#SVGID_00000182514734781310622640000000851957339973279104_);" d="M851.986,2166.478
					c0,0-11.133-45.777-6.642-62.019c4.49-16.241,13.191-37.123,42.193-32.483c29.002,4.641,63.213,16.858,63.213,16.858
					s-1.728,21.155-23.77,14.33l13.669,10.576c0,0-1.954,16.939-20.572,7.889l12.713,14.026c0,0-7.996,13.911-21.694,4.989
					S890.831,2171.99,851.986,2166.478z"/>
			</g>
			
				<linearGradient id="SVGID_00000091704434070199351460000007602312178184951471_" gradientUnits="userSpaceOnUse" x1="790.3137" y1="1789.6255" x2="925.4364" y2="1789.6255">
				<stop  offset="0" style="stop-color:#F9B776"/>
				<stop  offset="1" style="stop-color:#F47960"/>
			</linearGradient>
			<path style="fill:url(#SVGID_00000091704434070199351460000007602312178184951471_);" d="M835.002,1716.751l-44.43,128.487
				c-0.736,2.128,0.139,4.486,2.11,5.575c12.111,6.696,55.745,26.051,108.327-7.287c5.478-3.473,9.207-9.137,10.039-15.569
				l14.388-111.205H835.002z"/>
			<g>
				
					<linearGradient id="SVGID_00000160190898368310041600000004860674842091355320_" gradientUnits="userSpaceOnUse" x1="-4779.4907" y1="-905.9349" x2="-4829.9844" y2="-1072.4755" gradientTransform="matrix(0.746 -0.6659 0.6659 0.746 5126.3354 -803.1727)">
					<stop  offset="0" style="stop-color:#F9B776"/>
					<stop  offset="1" style="stop-color:#F47960"/>
				</linearGradient>
				<path style="fill:url(#SVGID_00000160190898368310041600000004860674842091355320_);" d="M931.675,1597.768
					c0,0,48.788,91.838,42.534,128.937c-6.254,37.098-66.719,34.435-119.52,4.305l-36.896-99.166L931.675,1597.768z"/>
				
					<linearGradient id="SVGID_00000045611613820315824800000009356785766566471823_" gradientUnits="userSpaceOnUse" x1="-4825.0459" y1="-1196.1067" x2="-4782.8081" y2="-955.1955" gradientTransform="matrix(0.746 -0.6659 0.6659 0.746 5126.3354 -803.1727)">
					<stop  offset="0" style="stop-color:#2B3582"/>
					<stop  offset="1" style="stop-color:#150E42"/>
				</linearGradient>
				<path style="fill:url(#SVGID_00000045611613820315824800000009356785766566471823_);" d="M857.023,1682.309
					c2.146-0.95,2.938-3.576,1.652-5.54c-3.908-5.971-11.236-18.153-13.573-28.819c0,0-8.771-5.617,22.323-13.059
					c31.093-7.443,77.463-18.995,87.208-45.461c9.503-25.804-15.465-90.697-55.297-38.992c-1.515,1.968-4.484,2.011-5.998,0.042
					c-6.53-8.499-23.697-26.139-47.532-15.445c-22.304,10.008-24.817,26.352-24.511,34.59c0.09,2.424-2.076,4.307-4.458,3.853
					c-11.278-2.15-38.339-3.998-50.97,23.763c-10.404,22.866-3.642,35.81,2.517,42.141c1.996,2.05,1.121,5.428-1.615,6.266
					c-7.412,2.269-16.983,8.553-16.024,25.917c1.325,24.004,28.164,21.89,35.805,20.796c1.252-0.179,2.513,0.25,3.361,1.188
					c6.553,7.251,36.072,38.038,68.022,41.749c2.767,0.321,4.911-2.411,4.005-5.045l-13.827-40.192
					c-0.643-1.867,0.251-3.914,2.056-4.714L857.023,1682.309z"/>
				
					<linearGradient id="SVGID_00000113315052170670192150000010002733686645955765_" gradientUnits="userSpaceOnUse" x1="-4831.1069" y1="-906.7094" x2="-4876.5376" y2="-1056.55" gradientTransform="matrix(0.746 -0.6659 0.6659 0.746 5126.3354 -803.1727)">
					<stop  offset="0" style="stop-color:#F9B776"/>
					<stop  offset="1" style="stop-color:#F47960"/>
				</linearGradient>
				<path style="fill:url(#SVGID_00000113315052170670192150000010002733686645955765_);" d="M862.581,1688.014
					c0,0-34.738-23.833-37.276-3.762c-2.538,20.07,31.282,29.072,48.033,21.589L862.581,1688.014z"/>
			</g>
		</g>
	</g>
</g>
</svg>
