<?xml version="1.0" encoding="utf-8"?>
<!-- Generator: Adobe Illustrator 27.5.0, SVG Export Plug-In . SVG Version: 6.00 Build 0)  -->
<svg version="1.1" xmlns="http://www.w3.org/2000/svg" xmlns:xlink="http://www.w3.org/1999/xlink" x="0px" y="0px"
	 viewBox="0 0 3710 3710" style="enable-background:new 0 0 3710 3710;" xml:space="preserve">
<g id="Background">
	<g>
		<g>
			<rect style="fill:#FFFFFF;" width="3710" height="3710"/>
		</g>
	</g>
</g>
<g id="Illustration">
	<g>
		<path style="fill:#F4F7FA;" d="M1113.92,594.818c-96.332,140.426,16.619,368.091-126.321,473.703
			c-139.142,102.806-310.073-65.706-441.205,22.788C351.867,1222.587,387.391,1823.283,671.8,2196.507
			c85.531,112.242,156.998,155.913,188.65,282.853c67.966,272.572-170.902,434.714-125.445,569.524
			c102.351,303.542,1676.439,558.249,2308.034-353.994c294.98-426.055,339.116-1041.283,75.56-1508.552
			C2642.357,341.991,1330.073,279.728,1113.92,594.818z"/>
		<g>
			<g>
				<defs>
					<path id="SVGID_1_" d="M1980.108,2816.03c52.563-140.271,108.099-353.356,62.369-593.297
						c-59.976-314.678-241.435-399.068-460.152-873.974c-138.293-300.278-231.78-511.229-136.982-695.557
						c74.288-144.448,255.309-255.251,409.987-231.731c128.61,19.556,254.065,134.266,321.004,227.31
						c54.555,75.831,73.124,141.28,142.243,161.288c70.637,20.448,110.749-30.678,172.53-20.205
						c125.289,21.24,181.116,268.942,190.138,308.975c100.366,445.324-133.755,894.684-238.241,1089.466
						C2356.613,2349.358,2212.89,2578.09,1980.108,2816.03z"/>
				</defs>
				
					<linearGradient id="SVGID_00000093152030429464861440000009968734263242475923_" gradientUnits="userSpaceOnUse" x1="1406.8462" y1="1617.1707" x2="2705.7117" y2="1617.1707">
					<stop  offset="0" style="stop-color:#AA80F9"/>
					<stop  offset="0.9964" style="stop-color:#6165D7"/>
				</linearGradient>
				
					<use xlink:href="#SVGID_1_"  style="overflow:visible;fill:url(#SVGID_00000093152030429464861440000009968734263242475923_);"/>
				<clipPath id="SVGID_00000136387414889116167680000017189902597189545884_">
					<use xlink:href="#SVGID_1_"  style="overflow:visible;"/>
				</clipPath>
				<g style="opacity:0.5;clip-path:url(#SVGID_00000136387414889116167680000017189902597189545884_);">
					<path style="fill:#FFFFFF;" d="M1903.72,2944.106l-5.14-4.78c138.239-148.677,246.583-298.066,322.023-444.018
						c111.29-215.305,147.171-417.006,106.648-599.5c-31.734-142.909-107.971-269.45-213.487-444.587
						c-84.224-139.798-156.52-231.275-220.306-311.982c-83.273-105.367-149.048-188.592-201.847-330.323
						c-53.586-143.853-75.649-302.267-65.575-470.839l7.004,0.418c-10.015,167.592,11.904,325.039,65.146,467.971
						c52.413,140.698,117.886,223.539,200.777,328.423c63.914,80.87,136.356,172.531,220.81,312.71
						c101.877,169.098,182.345,302.661,214.326,446.688c40.891,184.142,4.801,387.439-107.263,604.244
						C2151.106,2645.048,2042.393,2794.96,1903.72,2944.106z"/>
					<path style="fill:#FFFFFF;" d="M2042.401,1350.695c-30.922,0-133.52-3.641-255.716-47.021
						c-85.764-30.448-164.319-74.225-233.482-130.114c-86.443-69.854-158.357-158.919-213.746-264.721l6.216-3.255
						c54.942,104.947,126.249,193.27,211.94,262.518c68.544,55.391,146.405,98.777,231.419,128.959
						c129.777,46.072,236.975,46.906,258.597,46.581c-50.943-303.475,9.014-539.002,68.451-683.397
						c33.811-82.139,71.044-144.141,96.324-181.689c27.439-40.753,47.194-62.401,47.389-62.616l5.171,4.746
						c-0.776,0.845-78.282,86.344-142.522,242.538c-59.271,144.121-119.048,379.641-67.219,683.228l0.667,3.908l-3.959,0.188
						C2051.739,1350.556,2048.434,1350.695,2042.401,1350.695z"/>
					<path style="fill:#FFFFFF;" d="M2273.786,1734.034l-2.222-1.252c-1.645-0.925-166.621-93.334-350.153-153.599
						c-182.801-60.025-491.647,40.301-494.745,41.321l-2.197-6.665c3.12-1.028,314.166-102.06,499.131-41.324
						c172.56,56.662,328.745,141.625,349.163,152.907c133.949-125.557,189.481-421.428,212.481-648.07
						c25.076-247.113,17.908-467.426,17.833-469.622l7.014-0.24c0.075,2.202,7.259,222.989-17.865,470.572
						c-14.764,145.486-37.632,271.651-67.97,374.991c-38.029,129.535-88.023,223.489-148.594,279.255L2273.786,1734.034z"/>
					<path style="fill:#FFFFFF;" d="M2258.433,2437.888l0.445-6.979c6.053-94.957-16.475-179.969-66.96-252.678
						c-40.456-58.264-98.872-108.862-173.626-150.39c-127.603-70.884-260.275-90.935-261.601-91.131l1.018-6.942
						c1.336,0.195,135.11,20.39,263.825,91.847c75.743,42.05,134.989,93.368,176.09,152.528
						c50.192,72.248,73.276,156.38,68.659,250.144c27.549-18.751,149.189-104.383,286.836-244.478
						c143.821-146.377,335.035-383.851,429.226-683.916l182.784-582.3l6.696,2.101l-182.784,582.3
						c-94.629,301.464-286.635,539.914-431.045,686.865c-156.438,159.191-292.345,248.333-293.7,249.214L2258.433,2437.888z"/>
				</g>
			</g>
		</g>
		<g>
			<g>
				<defs>
					<path id="SVGID_00000127754968816523542350000015277898905493851326_" d="M2349.472,2301.726
						c189.261-23.283,427.04-79.947,644.362-214.371c55.461-34.305,398.073-246.228,333.548-406.428
						c-22.729-56.431-76.781-58.786-108.488-133.703c-37.57-88.771,14.271-142.284,39.439-262.269
						c15.017-71.595,58.967-281.117-75.528-376.495c-80.371-56.995-220.827-70.651-321.488-32.932
						c-147.647,55.325-180.744,210.336-232.207,473.587c-45.62,233.362-19.302,285.772-55.086,453.241
						C2547.466,1926.644,2489.646,2100.528,2349.472,2301.726z"/>
				</defs>
				
					<linearGradient id="SVGID_00000140702380861294549160000008571891834785219229_" gradientUnits="userSpaceOnUse" x1="3210.9785" y1="883.8813" x2="2742.8745" y2="2140.3728">
					<stop  offset="0.0036" style="stop-color:#E38DDD"/>
					<stop  offset="1" style="stop-color:#9571F6"/>
				</linearGradient>
				
					<use xlink:href="#SVGID_00000127754968816523542350000015277898905493851326_"  style="overflow:visible;fill:url(#SVGID_00000140702380861294549160000008571891834785219229_);"/>
				<clipPath id="SVGID_00000054962920677190380850000001921157240026493595_">
					<use xlink:href="#SVGID_00000127754968816523542350000015277898905493851326_"  style="overflow:visible;"/>
				</clipPath>
				<g style="opacity:0.5;clip-path:url(#SVGID_00000054962920677190380850000001921157240026493595_);">
					<path style="fill:#FFFFFF;" d="M1727.402,2475.897c-59.141,0-119.378-4.026-180.611-12.098l0.918-6.956
						c214.253,28.236,416.374,6.733,600.753-63.914c245.626-94.115,445.84-274.578,595.082-536.376
						c155.422-272.636,216.641-565.177,240.631-762.579c16.614-136.706-8.937-282.356-75.942-432.907l6.411-2.854
						c67.529,151.728,93.266,298.625,76.497,436.608c-24.067,198.043-85.501,491.558-241.5,765.209
						c-150.068,263.244-351.488,444.741-598.668,539.451C2018.212,2450.349,1876.324,2475.895,1727.402,2475.897z"/>
					<path style="fill:#FFFFFF;" d="M2904.969,1490.707l-2.284-2.176c-0.615-0.588-62.232-59.778-118.188-155.11
						c-51.695-88.071-109.063-225.945-88.794-382.624l6.96,0.901c-20.005,154.634,36.693,290.904,87.779,377.991
						c49.44,84.279,103.297,140.029,114.836,151.55c367.641-313.183,324.845-611.242,302.918-695.279
						c-0.67-2.563-0.905-3.483-0.983-4.148l6.966-0.836l-3.483,0.418l3.48-0.452c0.075,0.476,0.372,1.566,0.811,3.247
						c22.237,85.223,65.775,387.893-307.613,704.478L2904.969,1490.707z"/>
					<path style="fill:#FFFFFF;" d="M2769.055,1857.402c-6.583,0-13.219-0.055-19.938-0.168l-1.876-0.033l-1.016-1.576
						c-1.393-2.164-139.509-220.035-156.772-538.439l-17.415-321.158l7.008-0.38l17.414,321.158
						c16.386,302.221,142.19,513.199,154.678,533.441c138.008,2.106,333.87-19.938,486.939-135.924
						c91.922-69.651,125.169-141.234,125.493-141.948l6.391,2.901c-0.339,0.749-8.548,18.651-28.398,45.52
						c-18.256,24.71-50.228,61.915-98.877,98.841C3159.191,1783.016,3009.844,1857.402,2769.055,1857.402z"/>
				</g>
			</g>
		</g>
		<g>
			<g>
				
					<linearGradient id="SVGID_00000016793229249882715900000000572944885131771539_" gradientUnits="userSpaceOnUse" x1="1121.578" y1="2098.9111" x2="91.3252" y2="2208.2678" gradientTransform="matrix(1 -0.0155 0 1 -4.000000e-04 6.126)">
					<stop  offset="0" style="stop-color:#FFC444"/>
					<stop  offset="0.9964" style="stop-color:#F36F56"/>
				</linearGradient>
				<path style="fill:url(#SVGID_00000016793229249882715900000000572944885131771539_);" d="M3021.966,1311.906l-2323.81-44.17
					c-49.07-0.933-89.771,39.019-89.771,88.118v1497.698c0,50.484,42.928,89.648,93.271,85.091l2323.811-210.338
					c45.281-4.099,80.287-42.371,80.287-87.78v-1243.19C3105.753,1350.573,3068.701,1312.794,3021.966,1311.906z"/>
			</g>
			<g>
				
					<linearGradient id="SVGID_00000013162498479759900860000006701870539518112933_" gradientUnits="userSpaceOnUse" x1="1671.7435" y1="1649.1943" x2="2529.3386" y2="3548.5654" gradientTransform="matrix(1 -0.0155 0 1 -4.000000e-04 6.126)">
					<stop  offset="0" style="stop-color:#FFC444"/>
					<stop  offset="0.9964" style="stop-color:#F36F56"/>
				</linearGradient>
				<path style="fill:url(#SVGID_00000013162498479759900860000006701870539518112933_);" d="M3061.911,1311.287L738.1,1267.117
					c-49.07-0.933-89.771,39.019-89.771,88.118v1497.698c0,50.484,42.928,89.648,93.271,85.091l2323.811-210.338
					c45.281-4.098,80.287-42.371,80.287-87.78v-1243.19C3145.698,1349.954,3108.646,1312.175,3061.911,1311.287z"/>
			</g>
			<g>
				
					<linearGradient id="SVGID_00000056422708615494705060000003140820113966966963_" gradientUnits="userSpaceOnUse" x1="1875.7473" y1="1900.8531" x2="1960.1667" y2="56.4255" gradientTransform="matrix(1 -0.0155 0 1 -4.000000e-04 6.126)">
					<stop  offset="0" style="stop-color:#FFC444"/>
					<stop  offset="0.9964" style="stop-color:#F36F56"/>
				</linearGradient>
				<path style="fill:url(#SVGID_00000056422708615494705060000003140820113966966963_);" d="M2149.568,2158.267l973.72-819.272
					c-15.229-16.639-36.948-27.244-61.377-27.708L738.1,1267.117c-22.11-0.42-42.505,7.478-58.259,20.758l1301.718,880.159
					C2032.855,2202.718,2101.479,2198.729,2149.568,2158.267z"/>
				
					<linearGradient id="SVGID_00000054258073026602338090000009598946087952103853_" gradientUnits="userSpaceOnUse" x1="1671.7205" y1="1649.2048" x2="2529.3157" y2="3548.5767" gradientTransform="matrix(1 -0.0155 0 1 -4.000000e-04 6.126)">
					<stop  offset="0" style="stop-color:#FFC444"/>
					<stop  offset="0.9964" style="stop-color:#F36F56"/>
				</linearGradient>
				<path style="fill:url(#SVGID_00000054258073026602338090000009598946087952103853_);" d="M2149.568,2158.267
					c-48.089,40.462-116.713,44.452-168.009,9.767L679.841,1287.875c-19.209,16.189-31.511,40.384-31.511,67.359v1497.699
					c0,50.485,42.928,89.648,93.271,85.091l2323.811-210.338c45.281-4.099,80.287-42.372,80.287-87.78v-1243.19
					c0-22.318-8.506-42.531-22.41-57.722L2149.568,2158.267z"/>
			</g>
			
				<linearGradient id="SVGID_00000059995934782533959810000012794810438979618207_" gradientUnits="userSpaceOnUse" x1="1654.8667" y1="1719.7173" x2="2979.6189" y2="-336.6131" gradientTransform="matrix(1 -0.0155 0 1 -4.000000e-04 6.126)">
				<stop  offset="0" style="stop-color:#FFC444"/>
				<stop  offset="0.9964" style="stop-color:#F36F56"/>
			</linearGradient>
			<path style="fill:url(#SVGID_00000059995934782533959810000012794810438979618207_);" d="M2149.568,2158.267l973.72-819.272
				c-15.229-16.639-36.948-27.244-61.377-27.708L738.1,1267.117c-22.11-0.42-42.505,7.478-58.259,20.758l1301.718,880.159
				C2032.855,2202.718,2101.479,2198.729,2149.568,2158.267z"/>
			
				<linearGradient id="SVGID_00000013911951556580978950000007395572360835514255_" gradientUnits="userSpaceOnUse" x1="1914.6757" y1="1539.507" x2="2772.271" y2="3438.8787" gradientTransform="matrix(1 -0.0155 0 1 -4.000000e-04 6.126)">
				<stop  offset="0" style="stop-color:#FFC444"/>
				<stop  offset="0.9964" style="stop-color:#F36F56"/>
			</linearGradient>
			<path style="opacity:0.37;fill:url(#SVGID_00000013911951556580978950000007395572360835514255_);" d="M3123.288,1338.995
				l-973.72,819.272c-48.089,40.462-116.713,44.452-168.009,9.767L679.841,1287.875c-19.209,16.189-31.511,40.384-31.511,67.359
				v220.881c47.03-20.494,86.827-24.903,119.175-22.701c89.43,6.086,110.784,61.583,282.025,139.522
				c160.111,72.873,176.909,40.498,247.491,94.012c135.98,103.098,76.513,225.444,195.691,336.55
				c124.103,115.696,231.182,22.739,408.649,131.806c187.529,115.251,127.496,255.638,282.025,335.213
				c216.497,111.485,437.577-110.906,621.606,1.882c55.643,34.103,91.219,88.654,114.154,148.526l146.265-13.239
				c45.281-4.099,80.287-42.372,80.287-87.78v-1243.19C3145.698,1374.398,3137.192,1354.186,3123.288,1338.995z"/>
		</g>
		<g>
			
				<linearGradient id="SVGID_00000049182614601816888150000005555869635935337375_" gradientUnits="userSpaceOnUse" x1="1355.3577" y1="3234.6692" x2="1204.5118" y2="3298.0244">
				<stop  offset="0" style="stop-color:#40447E"/>
				<stop  offset="0.9964" style="stop-color:#3C3B6B"/>
			</linearGradient>
			<path style="fill:url(#SVGID_00000049182614601816888150000005555869635935337375_);" d="M2595.668,3152.126L448.33,3133.424
				v55.335c0,15.019,9.366,27.79,22.051,30.066l607.203,108.966c7.206,1.293,14.514,1.636,21.785,1.023l1472.964-124.239
				c13.15-1.109,23.335-13.919,23.335-29.351V3152.126z"/>
			<g>
				
					<linearGradient id="SVGID_00000175282556357080176330000002523535217003771319_" gradientUnits="userSpaceOnUse" x1="1153.9324" y1="2569.8408" x2="990.2257" y2="2638.5977">
					<stop  offset="0" style="stop-color:#40447E"/>
					<stop  offset="0.9964" style="stop-color:#3C3B6B"/>
				</linearGradient>
				<path style="fill:url(#SVGID_00000175282556357080176330000002523535217003771319_);" d="M1904.412,3062.425l-1432.449,101.23
					c-25.633,1.811-46.474-17.437-46.474-42.996V2096.627c0-25.56,20.841-46.281,46.474-46.281h1432.449
					c21.118,0,38.192,18.731,38.192,41.837v925.705C1942.604,3040.994,1925.53,3060.932,1904.412,3062.425z"/>
				
					<linearGradient id="SVGID_00000155855845933896884440000009708948484505185679_" gradientUnits="userSpaceOnUse" x1="448.3301" y1="2607.0593" x2="1965.4445" y2="2607.0593">
					<stop  offset="0" style="stop-color:#40447E"/>
					<stop  offset="0.9964" style="stop-color:#3C3B6B"/>
				</linearGradient>
				<path style="fill:url(#SVGID_00000155855845933896884440000009708948484505185679_);" d="M1927.253,3062.425l-1432.448,101.23
					c-25.633,1.811-46.474-17.437-46.474-42.996V2096.627c0-25.56,20.841-46.281,46.474-46.281h1432.448
					c21.118,0,38.192,18.731,38.192,41.837v925.705C1965.444,3040.994,1948.371,3060.932,1927.253,3062.425z"/>
				
					<linearGradient id="SVGID_00000140712770362426757290000017516763261135548319_" gradientUnits="userSpaceOnUse" x1="1406.7275" y1="2239.3442" x2="244.0052" y2="4140.1436">
					<stop  offset="0" style="stop-color:#FF9085"/>
					<stop  offset="1" style="stop-color:#FB6FBB"/>
				</linearGradient>
				<path style="fill:url(#SVGID_00000140712770362426757290000017516763261135548319_);" d="M1882.628,2997.16l-1334.176,87.932
					c-20.859,1.375-37.811-14.424-37.811-35.29v-896.541c0-20.866,16.951-37.852,37.811-37.938l1334.176-5.521
					c17.42-0.072,31.511,15.276,31.511,34.282v816.588C1914.14,2979.677,1900.048,2996.013,1882.628,2997.16z"/>
				<path style="fill:#FFFFFF;" d="M1261.619,2078.356c0,9.515-7.373,17.25-16.477,17.278c-9.116,0.028-16.513-7.681-16.513-17.217
					s7.398-17.272,16.513-17.279C1254.246,2061.132,1261.619,2068.841,1261.619,2078.356z"/>
				<path style="opacity:0.48;fill:#FFFFFF;" d="M1582.127,2781.568c-110.429-59.416-197.259,15.871-281.056-58.412
					c-50.803-45.035-25.861-78.618-88.373-145.917c-69.237-74.54-114.314-49.483-183.896-116.569
					c-87.982-84.826-43.978-150.823-119.764-211.725c-91.938-73.883-191.089-5.5-278.608-76.356
					c-37.748-30.561-58.459-74.991-69.274-122.242h-85.633c-15.006,0-27.192,12.162-27.192,27.165v1061.497
					c0,15.003,12.186,26.301,27.192,25.235l1459.9-103.627c7.164-0.509,13.517-4.692,17.594-10.756
					c-106.869-3.895-172.524-39.72-214.492-76.757C1656.422,2900.652,1670.663,2829.204,1582.127,2781.568z"/>
			</g>
			
				<linearGradient id="SVGID_00000137131535719648876470000017143379302112464541_" gradientUnits="userSpaceOnUse" x1="448.3301" y1="3168.0823" x2="2595.668" y2="3168.0823">
				<stop  offset="0" style="stop-color:#40447E"/>
				<stop  offset="0.9964" style="stop-color:#3C3B6B"/>
			</linearGradient>
			<path style="fill:url(#SVGID_00000137131535719648876470000017143379302112464541_);" d="M1891.51,3057.833L448.33,3164.388
				l629.253,112.922c7.206,1.293,14.514,1.636,21.785,1.023l1496.299-126.207l-681.201-93.569
				C1906.849,3057.511,1899.166,3057.268,1891.51,3057.833z"/>
			
				<linearGradient id="SVGID_00000113326523465735599330000013667775178698194831_" gradientUnits="userSpaceOnUse" x1="658.9127" y1="3150.4883" x2="2232.2537" y2="3150.4883">
				<stop  offset="0" style="stop-color:#40447E"/>
				<stop  offset="0.9964" style="stop-color:#3C3B6B"/>
			</linearGradient>
			<polygon style="opacity:0.3;fill:url(#SVGID_00000113326523465735599330000013667775178698194831_);" points="658.913,3167.067 
				1860.403,3077.036 2232.254,3127.701 1041.113,3223.941 			"/>
		</g>
		<g>
			<path style="opacity:0.63;fill:#FFFFFF;" d="M2720.324,1916.47l-15.441-14.665c-7.141-6.785-18.245-7.095-25.76-0.737
				l-804.304,680.988l-387.924-368.434c-7.45-7.076-19.131-7.076-26.581,0L610.62,3020.635c-7.729,7.34-8.042,19.554-0.702,27.283
				c3.793,3.995,8.889,6.009,13.996,6.009c4.772,0,9.554-1.76,13.287-5.306l836.405-794.389l387.183,367.732
				c7.138,6.783,18.242,7.098,25.762,0.737l804.302-680.988l29.471,27.99V1916.47z"/>
			<ellipse style="fill:#FFFFFF;" cx="1462.421" cy="2266.155" rx="95.351" ry="90.561"/>
			<ellipse style="fill:#FFFFFF;" cx="2691.019" cy="1915.799" rx="95.351" ry="90.561"/>
		</g>
		<g>
			<g>
				
					<linearGradient id="SVGID_00000039842866929355729310000012940036572913372051_" gradientUnits="userSpaceOnUse" x1="4432.1729" y1="413.3712" x2="5272.834" y2="984.3857" gradientTransform="matrix(-1 0 0 1 5597.1724 0)">
					<stop  offset="0" style="stop-color:#311944"/>
					<stop  offset="1" style="stop-color:#6B3976"/>
				</linearGradient>
				<path style="fill:url(#SVGID_00000039842866929355729310000012940036572913372051_);" d="M1118.813,717.104
					c15.815-10.253,1.405-40.081,0.553-104.148c-1.044-78.511,19.809-93.141,3.06-123.943
					c-20.48-37.665-72.033-53.253-106.188-53.987c-7.533-0.161-9.294-4.275-72.404,12.069
					c-113.7,29.447-142.164-2.119-193.081,29.412c-49.193,30.466-27.652,63.83-75.422,99.557
					c-77.432,57.912-158.857-4.698-214.197,43.745c-52.345,45.82-53.551,162.559,1.508,226.266
					c62.416,72.222,174.963,50.524,250.399,36.203c15.872-3.012,96.037-19.847,179.505-81.454
					c46.173-34.083,77.878-70.478,98.048-97.295c4.734-5.328,12.121-11.783,21.872-12.821c11.707-1.25,21.111,5.911,25.643,9.049
					C1061.909,716.235,1103.278,727.175,1118.813,717.104z"/>
				
					<linearGradient id="SVGID_00000168811121066742085840000000483360077463337355_" gradientUnits="userSpaceOnUse" x1="4412.7163" y1="763.9359" x2="4629.8218" y2="1359.9869" gradientTransform="matrix(-1 0 0 1 5690.7979 0)">
					<stop  offset="0" style="stop-color:#FFC444"/>
					<stop  offset="0.9964" style="stop-color:#F36F56"/>
				</linearGradient>
				<path style="fill:url(#SVGID_00000168811121066742085840000000483360077463337355_);" d="M1055.269,674.076
					c20.334-18.526,92.899,17.18,140.989,64.568c56.497,55.674,52.154,100.814,101.459,169.977
					c24.509,34.385,66.532,80.674,140.99,121.222c-5.271,13.176-10.542,26.355-15.811,39.529
					c-36.001,2.166-106.678,0.892-172.615-42.162c-45.803-29.909-69.37-69.54-114.636-147.58
					C1090.217,801.31,1029.852,697.235,1055.269,674.076z"/>
				
					<linearGradient id="SVGID_00000128481466314126585340000001861824536872543914_" gradientUnits="userSpaceOnUse" x1="3335.2131" y1="4032.7395" x2="3458.7581" y2="4032.7395" gradientTransform="matrix(-0.831 -0.5562 -0.5562 0.831 6533.2197 279.3084)">
					<stop  offset="0" style="stop-color:#311944"/>
					<stop  offset="1" style="stop-color:#6B3976"/>
				</linearGradient>
				<path style="fill:url(#SVGID_00000128481466314126585340000001861824536872543914_);" d="M1499.381,1762.533l-23.123-49.127
					c-3.285-6.979-8.406-12.933-14.817-17.223l-11.449-7.663c0,0-27.369-0.727-31.628,16.476
					c-0.916,21.846,41.538,70.659,68.387,90.043c4.458,3.217,10.813,7.506,14.676,5.299
					C1507.966,1796.6,1503.378,1776.505,1499.381,1762.533z"/>
				
					<linearGradient id="SVGID_00000032649087014606146660000004670878565536366522_" gradientUnits="userSpaceOnUse" x1="4112.2119" y1="1802.8744" x2="4313.8159" y2="1198.0603" gradientTransform="matrix(-1 0 0 1 5597.1724 0)">
					<stop  offset="0" style="stop-color:#FFC444"/>
					<stop  offset="0.9964" style="stop-color:#F36F56"/>
				</linearGradient>
				<path style="fill:url(#SVGID_00000032649087014606146660000004670878565536366522_);" d="M1455.929,1661.808
					c-3.641,21.071,0.965,32.057,5.93,38.211c3.494,4.331,31.851,51.087,20.204,58.637c-5.256,3.407-41.282-41.328-44.776-48.183
					c-3.164-6.207-5.221-4.742-5.406-21.654c-0.12-11.135-2.385-20.096-4.164-25.703
					C1437.121,1662.679,1446.524,1662.245,1455.929,1661.808z"/>
				
					<linearGradient id="SVGID_00000050644222375463949460000013646194234767111851_" gradientUnits="userSpaceOnUse" x1="4078.4087" y1="1525.1383" x2="4147.6484" y2="1525.1383" gradientTransform="matrix(-1 0 0 1 5597.1724 0)">
					<stop  offset="0" style="stop-color:#311944"/>
					<stop  offset="1" style="stop-color:#6B3976"/>
				</linearGradient>
				<path style="fill:url(#SVGID_00000050644222375463949460000013646194234767111851_);" d="M1496.878,1494.81
					c0,0,25.593,30.537,21.428,64.015c-4.165,33.475-48.985-15.467-55.232-32.009c-6.25-16.54-13.549-40.106-13.549-40.106
					S1480.953,1467.157,1496.878,1494.81z"/>
				
					<linearGradient id="SVGID_00000039834692762000440200000010464927864732239234_" gradientUnits="userSpaceOnUse" x1="4038.2793" y1="1715.2584" x2="4151.3408" y2="1376.0734" gradientTransform="matrix(-1 0 0 1 5597.1724 0)">
					<stop  offset="0" style="stop-color:#FFC444"/>
					<stop  offset="0.9964" style="stop-color:#F36F56"/>
				</linearGradient>
				<path style="fill:url(#SVGID_00000039834692762000440200000010464927864732239234_);" d="M1487.115,1447.029
					c0,0-6.943,35.577,6.299,54.354c6.595,9.352,15.492,17.284,12.876,24.897c-1.753,5.102-8.41,8.767-14.049,8.188
					c-10.796-1.109-16.78-17.66-21.002-29.333c-6.234-17.242-9.709-54.138-9.709-54.138L1487.115,1447.029z"/>
				
					<linearGradient id="SVGID_00000091712313269660478660000002831899164362837416_" gradientUnits="userSpaceOnUse" x1="4177.5918" y1="1143.8116" x2="4261.9214" y2="1631.3422" gradientTransform="matrix(-1 0 0 1 5597.1724 0)">
					<stop  offset="0" style="stop-color:#AA80F9"/>
					<stop  offset="0.9964" style="stop-color:#6165D7"/>
				</linearGradient>
				<path style="fill:url(#SVGID_00000091712313269660478660000002831899164362837416_);" d="M1466.718,1477.019
					c7.871-2.866,15.742-5.734,23.612-8.6c12.278-28.045,27.264-74.109,22.259-130.097
					c-12.873-143.986-146.043-220.285-160.837-228.451c-36.283,18.205-73.034,43.886-74.365,76.262
					c-1.67,40.642,53.695,62.125,105.741,121.554C1414.368,1343.358,1447.75,1396.51,1466.718,1477.019z"/>
				
					<linearGradient id="SVGID_00000105403191315247069920000016289241762616568253_" gradientUnits="userSpaceOnUse" x1="4296.6851" y1="1721.6069" x2="4416.5918" y2="1342.1218" gradientTransform="matrix(-1 0 0 1 5597.1724 0)">
					<stop  offset="0" style="stop-color:#AA80F9"/>
					<stop  offset="0.9964" style="stop-color:#6165D7"/>
				</linearGradient>
				<path style="fill:url(#SVGID_00000105403191315247069920000016289241762616568253_);" d="M1458.234,1678.277
					c26.005-101.585,19.361-184.482,11.859-232.237c-11.339-72.178-34.401-218.996-132.425-273.744
					c-21.406-11.955-52.006-22.661-89.302-55.899c-31.146-27.756-50.942-56.948-62.886-77.514
					c-131.094-38.457-252.011-22.872-305.367,47.436c-6.165,8.125-21.6,25.746-24.585,51.729
					c-6.738,58.625,50.866,129.205,115.503,143.943c82.149,18.733,129.807-65.618,202.59-37.554
					c20.359,7.85,37.62,27.304,72.142,66.212c43.917,49.495,68.604,95.167,77.944,113.442
					c27.811,54.419,48.901,94.591,51.977,146.654c0.716,12.128,1.144,36.632,15.35,63.059
					c10.905,20.287,25.686,33.813,36.683,42.169C1437.89,1676.743,1448.062,1677.512,1458.234,1678.277z"/>
				
					<linearGradient id="SVGID_00000000200396984263925160000002132350566463520431_" gradientUnits="userSpaceOnUse" x1="4296.6958" y1="1721.6117" x2="4416.6025" y2="1342.1261" gradientTransform="matrix(-1 0 0 1 5597.1724 0)">
					<stop  offset="0" style="stop-color:#AA80F9"/>
					<stop  offset="0.9964" style="stop-color:#6165D7"/>
				</linearGradient>
				<path style="opacity:0.3;fill:url(#SVGID_00000000200396984263925160000002132350566463520431_);" d="M855.527,1138.049
					c2.985-25.984,18.421-43.605,24.585-51.729c53.357-70.307,174.273-85.892,305.367-47.436
					c11.945,20.566,31.741,49.758,62.885,77.514c37.297,33.238,67.898,43.944,89.303,55.899
					c59.857,33.431,91.735,101.184,110.089,165.319c-27.231-42.222-50.542-53.448-68.581-53.648
					c-25.821-0.286-37.358,21.79-68.189,18.777c-32.954-3.22-40.488-30.468-67.2-33.599c-7.996-0.937-17.833,0.297-29.65,6.587
					c-15.768-16.51-27.521-26.283-40.516-31.293c-72.782-28.064-120.441,56.286-202.59,37.554
					C906.393,1267.254,848.789,1196.674,855.527,1138.049z"/>
				
					<linearGradient id="SVGID_00000005981139890951077460000015355767893216692663_" gradientUnits="userSpaceOnUse" x1="4465.4209" y1="1094.6058" x2="4549.5562" y2="1581.0129" gradientTransform="matrix(-1 0 0 1 5597.1724 0)">
					<stop  offset="0" style="stop-color:#AA80F9"/>
					<stop  offset="0.9964" style="stop-color:#6165D7"/>
				</linearGradient>
				<path style="fill:url(#SVGID_00000005981139890951077460000015355767893216692663_);" d="M1390.311,1217.733
					c-14.838-0.788-37.687-1.244-65.249,1.479c-130.805,12.926-166.864,77.628-274.971,93.416
					c-25.573,3.736-139.437,20.365-188.755-45.459c-35.405-47.258-30.048-128.687,8.678-160.715
					c16.39-13.554,32.617-13.178,137.582-12.229c39.53,0.358,79.061,0.486,118.589,0.99c167.327,2.132,199.327-9.456,229.772,18.22
					C1370.16,1126.345,1390.928,1154.076,1390.311,1217.733z"/>
				<g>
					<g>
						
							<linearGradient id="SVGID_00000120538132729664750410000010242541604651888794_" gradientUnits="userSpaceOnUse" x1="4590.3716" y1="699.2274" x2="4807.4766" y2="1295.278" gradientTransform="matrix(-1 0 0 1 5690.7979 0)">
							<stop  offset="0" style="stop-color:#FFC444"/>
							<stop  offset="0.9964" style="stop-color:#F36F56"/>
						</linearGradient>
						<path style="fill:url(#SVGID_00000120538132729664750410000010242541604651888794_);" d="M1037.066,680.866
							c0,0-132.077-38.517-190.245,27.33c-10.68,12.089-19.123,27.987-25.267,58.673c-31.31,156.378,87.115,250.304,40.458,332.801
							c-18.528,32.76-51.161,42.631-74.351,101.507c-3.926,9.967-18.126,46.02-5.096,57.38
							c11.476,10.005,30.348-11.118,63.873-7.038c35.502,4.319,43.796,31.592,67.683,27.621
							c15.574-2.59,22.287-15.886,45.231-49.036c33.215-47.992,49.823-71.988,61.728-80.402
							c46.972-33.197,83.277,10.095,136.844-22.776c19.393-11.902,91.245-104.413,70.106-79l0,0
							c-50.316-62.771-62.008-114.558-63.209-150.565c-1.318-39.475,10.061-57.417,0-104.082c0,0-11.225-52.067-51.723-96.778
							C1107.283,690.083,1100.353,683.399,1037.066,680.866z"/>
					</g>
				</g>
				<g>
					
						<linearGradient id="SVGID_00000083081087588651993950000012849436956513170604_" gradientUnits="userSpaceOnUse" x1="-2622.8779" y1="1513.3335" x2="-2614.2859" y2="1284.4692" gradientTransform="matrix(0.984 0.1784 -0.1784 0.984 3848.7361 -244.2395)">
						<stop  offset="0" style="stop-color:#FFC444"/>
						<stop  offset="0.9964" style="stop-color:#F36F56"/>
					</linearGradient>
					<path style="fill:url(#SVGID_00000083081087588651993950000012849436956513170604_);" d="M994.66,595.198
						c1.789,8.357,10.893,53.199-7.454,64.736c-3.977,2.503-11.618,3.934-26.902,6.799c-10.007,1.875-18.402,3.025-24.324,3.734
						c0.856,7.519,3.388,19.758,12.066,30.892c24.326,31.209,73.101,23.133,80.056,21.866c24.534-4.467,48.677-12.048,54.508-16.681
						c8.878-7.054,15.858-12.347,19.986-17.724c-9.495-4.588-28.662-16.688-41.527-20.648c-9.614-2.957-18.638-5.068-26.847-6.583
						c-1.348-8.662-2.699-17.324-4.049-25.987C1018.335,622.133,1006.498,608.667,994.66,595.198z"/>
					
						<linearGradient id="SVGID_00000039107071167436416830000007037485546392380572_" gradientUnits="userSpaceOnUse" x1="-2625.5591" y1="1311.2913" x2="-2629.2371" y2="1607.6101" gradientTransform="matrix(0.984 0.1784 -0.1784 0.984 3848.7361 -244.2395)">
						<stop  offset="0" style="stop-color:#FFC444"/>
						<stop  offset="0.9964" style="stop-color:#F36F56"/>
					</linearGradient>
					<path style="fill:url(#SVGID_00000039107071167436416830000007037485546392380572_);" d="M993.801,617.547
						c0,0,3.316,32.862,35.26,38.653c28.603,5.186,50.133-63.931,35.495-81.809c-4.883-5.963-16.937-11.637-27.387-11.337
						c-7.349,0.213-32.172,9.667-35.637,34.505c-4.944-5.208-11.104-6.705-14.141-4.524c-3.852,2.767-1.789,10.811-1.32,12.633
						C987.691,611.982,991.814,615.896,993.801,617.547z"/>
				</g>
				
					<linearGradient id="SVGID_00000163773756219492436330000005927268861104000906_" gradientUnits="userSpaceOnUse" x1="4458.9155" y1="1078.9518" x2="4913.6196" y2="1078.9518" gradientTransform="matrix(-1 0 0 1 5690.7979 0)">
					<stop  offset="0" style="stop-color:#FFC444"/>
					<stop  offset="0.9964" style="stop-color:#F36F56"/>
				</linearGradient>
				<path style="opacity:0.3;fill:url(#SVGID_00000163773756219492436330000005927268861104000906_);" d="M1228.03,1047.926
					c-6.054-7.553-11.52-14.937-16.504-22.164c-27.75-9.298-51.757-12.758-71.124-13.698c-43.684-2.118-67.604,8.159-97.339-9.734
					c-33.752-20.312-27.778-48.506-60.35-64.244c-34.281-16.563-58.52,2.154-91.499-3.893c-19.916-3.652-44.176-16.97-68.933-55.824
					c18.958,93.544,74.095,160.539,39.732,221.3c-18.528,32.76-51.161,42.631-74.351,101.507c-3.926,9.967-18.126,46.02-5.096,57.38
					c11.476,10.005,30.348-11.118,63.873-7.038c35.502,4.319,43.798,31.592,67.683,27.621c15.574-2.59,22.287-15.886,45.231-49.036
					c33.216-47.992,49.823-71.988,61.728-80.402c46.972-33.197,83.278,10.095,136.844-22.776
					C1177.317,1115.023,1249.169,1022.513,1228.03,1047.926z"/>
			</g>
			<g>
				
					<linearGradient id="SVGID_00000132047007823909721960000010504135908152368549_" gradientUnits="userSpaceOnUse" x1="5831.3369" y1="1088.2522" x2="6157.979" y2="1088.2522" gradientTransform="matrix(-1 0 0 1 7107.1655 0)">
					<stop  offset="0" style="stop-color:#40447E"/>
					<stop  offset="0.9964" style="stop-color:#3C3B6B"/>
				</linearGradient>
				<path style="fill:url(#SVGID_00000132047007823909721960000010504135908152368549_);" d="M1267.828,1063.976l-298.846,14.542
					c-4.113,0.201-7.865,2.405-10.041,5.899l-8.269,13.273c-4.116,6.606,0.83,15.128,8.609,14.831l316.548-12.059L1267.828,1063.976
					z"/>
				
					<linearGradient id="SVGID_00000180340163288325834670000007619059682127151526_" gradientUnits="userSpaceOnUse" x1="5622.4497" y1="882.2051" x2="5836.605" y2="1094.6471" gradientTransform="matrix(-1 0 0 1 7107.1655 0)">
					<stop  offset="0" style="stop-color:#40447E"/>
					<stop  offset="0.9964" style="stop-color:#3C3B6B"/>
				</linearGradient>
				<path style="fill:url(#SVGID_00000180340163288325834670000007619059682127151526_);" d="M1578.653,897.558l-308.74,5.983
					c-9.136,0.177-17.501,5.154-22.015,13.096l-106.913,188.103l326.068-12.99c8.949-0.357,17.116-5.203,21.717-12.889
					l99.055-165.485C1592.041,906.333,1586.862,897.398,1578.653,897.558z"/>
				
					<linearGradient id="SVGID_00000032611994032104609070000010406426052455158687_" gradientUnits="userSpaceOnUse" x1="5622.4502" y1="882.2052" x2="5836.6055" y2="1094.6473" gradientTransform="matrix(-1 0 0 1 7107.1655 0)">
					<stop  offset="0" style="stop-color:#40447E"/>
					<stop  offset="0.9964" style="stop-color:#3C3B6B"/>
				</linearGradient>
				<path style="opacity:0.3;fill:url(#SVGID_00000032611994032104609070000010406426052455158687_);" d="M1247.896,916.638
					c4.515-7.943,12.88-12.92,22.016-13.097l6.766-0.131c1.008,9.966,4.066,19.083,10.165,26.443
					c19.037,22.979,50.667,8.805,74.241,33.123c25.896,26.714,1.973,58.514,25.126,83.378c24.371,26.168,63.779,4.862,109.08,21.609
					l-6.523,10.898c-4.599,7.686-12.766,12.532-21.716,12.889l-326.068,12.99L1247.896,916.638z"/>
			</g>
			<g>
				
					<linearGradient id="SVGID_00000039838054879857680730000004178701890739953582_" gradientUnits="userSpaceOnUse" x1="4681.8193" y1="1050.1155" x2="5380.5005" y2="458.0119" gradientTransform="matrix(-1 0 0 1 5690.7979 0)">
					<stop  offset="0" style="stop-color:#FFC444"/>
					<stop  offset="0.9964" style="stop-color:#F36F56"/>
				</linearGradient>
				<path style="fill:url(#SVGID_00000039838054879857680730000004178701890739953582_);" d="M993.335,1053.99
					c3.889-10.272,7.78-20.542,11.669-30.815c-42.99-11.788-102.446-29.201-163.431-50.993c-9.551-3.414-20.898-7.641-24.615-17.691
					c-10.428-28.193,55.865-57.407,81.637-118.966c23.835-56.933,10.716-135.942-16.945-145.276
					c-57.56-19.423-261.678,234.654-188.776,341.76C734.083,1092.554,861.132,1102.194,993.335,1053.99z"/>
			</g>
			
				<linearGradient id="SVGID_00000063619757816978953230000013178781242876848046_" gradientUnits="userSpaceOnUse" x1="-4295.6167" y1="1023.8422" x2="-4404.1982" y2="1126.1664" gradientTransform="matrix(1 0 0 1 5366.8867 0)">
				<stop  offset="0" style="stop-color:#FFC444"/>
				<stop  offset="0.9964" style="stop-color:#F36F56"/>
			</linearGradient>
			<path style="fill:url(#SVGID_00000063619757816978953230000013178781242876848046_);" d="M1005.004,1023.174
				c26.989-14.337,59.294,0.359,61.376,1.342c5.93,2.799,14.561,7.786,23.281,16.693c0.986,1.345,12.693,17.567,8.429,22.765
				c-3.419,4.165-16.658,0.712-32.569-9.184c-6.67-0.935-16.599-1.794-28.493-0.698c-21.844,2.015-31.85,8.916-39.78,2.959
				c-5.806-4.36-7.785-13.58-5.695-20.434C993.796,1029.254,1000.436,1025.602,1005.004,1023.174z"/>
		</g>
	</g>
</g>
</svg>
