<?xml version="1.0" encoding="utf-8"?>
<!-- Generator: Adobe Illustrator 27.5.0, SVG Export Plug-In . SVG Version: 6.00 Build 0)  -->
<svg version="1.1" xmlns="http://www.w3.org/2000/svg" xmlns:xlink="http://www.w3.org/1999/xlink" x="0px" y="0px"
	 viewBox="0 0 3710 3710" style="enable-background:new 0 0 3710 3710;" xml:space="preserve">
<g id="Background">
	<g>
		<g>
			<rect style="fill:#FFFFFF;" width="3710" height="3710"/>
		</g>
	</g>
</g>
<g id="Illustration">
	<g>
		
			<linearGradient id="SVGID_1_" gradientUnits="userSpaceOnUse" x1="1287.3857" y1="3576.9634" x2="-742.4777" y2="1385.9994" gradientTransform="matrix(-1 0 0 1 1601.9641 0)">
			<stop  offset="0" style="stop-color:#B37CFF"/>
			<stop  offset="1" style="stop-color:#F895E7"/>
		</linearGradient>
		<path style="opacity:0.3;fill:url(#SVGID_1_);" d="M595.069,2327.55c279.458,650.846,1017.138,930.4,1595.121,882.735
			c157.813-13.014,475.336-39.2,723.261-272.809c476.123-448.631,402.795-1386.395-52.99-1938.499
			c-58.696-71.099-464.979-547.459-1098.096-541.083c-463.534,4.669-788.883,265.569-828.445,298.072
			c-49.976,41.06-160.204,138.633-259.547,293.424C440.954,1413.099,420.436,1920.836,595.069,2327.55z"/>
		<g>
			<g>
				<g style="opacity:0.3;">
					
						<linearGradient id="SVGID_00000080902001854306323640000000063148893481519287_" gradientUnits="userSpaceOnUse" x1="3016.0474" y1="356.0161" x2="3596.7407" y2="356.0161" gradientTransform="matrix(-0.5749 0.8182 0.8182 0.5749 2412.356 -2119.4695)">
						<stop  offset="0" style="stop-color:#B37CFF"/>
						<stop  offset="1" style="stop-color:#F895E7"/>
					</linearGradient>
					<path style="fill:url(#SVGID_00000080902001854306323640000000063148893481519287_);" d="M1149.603,695.611
						c-3.694,4.241-10.128,4.68-14.365,0.985c-8.236-7.177-16.904-14.104-25.768-20.588c-4.485-3.28-5.501-9.54-2.32-14.066
						c0.038-0.054,0.075-0.107,0.114-0.163c3.319-4.538,9.69-5.524,14.229-2.204c9.329,6.825,18.456,14.116,27.124,21.673
						c3.965,3.454,4.605,9.307,1.647,13.517C1150.061,695.056,1149.842,695.34,1149.603,695.611z M1064.165,647.41
						c-9.66-5.213-19.633-10.061-29.654-14.414c-5.153-2.239-7.521-8.235-5.281-13.393c2.266-5.169,8.239-7.521,13.397-5.28
						c10.542,4.579,21.042,9.682,31.206,15.165c4.948,2.67,6.794,8.848,4.124,13.795c-0.194,0.359-0.407,0.703-0.636,1.029
						C1074.396,648.475,1068.753,649.886,1064.165,647.41z M984.032,615.129c-10.549-2.924-21.352-5.424-32.117-7.43
						c-5.526-1.03-9.172-6.348-8.142-11.875c1.036-5.52,6.346-9.169,11.875-8.142c11.336,2.114,22.716,4.747,33.821,7.826
						c5.418,1.502,8.592,7.112,7.093,12.53c-0.321,1.155-0.828,2.208-1.479,3.135C992.678,614.597,988.294,616.311,984.032,615.129z
						 M898.691,601.58c-10.949-0.493-22.045-0.514-32.983-0.068c-5.618,0.227-10.359-4.141-10.587-9.758
						c-0.223-5.617,4.145-10.354,9.758-10.587c11.518-0.468,23.2-0.444,34.722,0.07c5.616,0.253,9.966,5.01,9.714,10.627
						c-0.09,2.01-0.757,3.857-1.833,5.39C905.548,600.005,902.297,601.74,898.691,601.58z M812.459,607.382
						c-10.758,1.947-21.588,4.382-32.181,7.242c-5.431,1.463-11.017-1.751-12.482-7.179c-1.466-5.432,1.75-11.019,7.18-12.479
						c11.145-3.008,22.539-5.57,33.859-7.618c5.531-1.003,10.829,2.671,11.829,8.205c0.505,2.788-0.177,5.516-1.687,7.665
						C817.491,605.333,815.204,606.885,812.459,607.382z M729.661,632.118c-10.077,4.283-20.092,9.053-29.773,14.178
						c-4.969,2.63-11.132,0.734-13.76-4.233c-2.632-4.97-0.739-11.13,4.232-13.763c10.187-5.394,20.732-10.414,31.336-14.922
						c5.175-2.198,11.151,0.212,13.352,5.387c1.429,3.361,0.91,7.06-1.046,9.844C732.947,630.112,731.476,631.348,729.661,632.118z
						 M489.467,924.062c-5.525-1.039-9.163-6.361-8.123-11.888c2.131-11.319,4.787-22.7,7.892-33.822
						c1.512-5.417,7.128-8.581,12.544-7.067c5.413,1.51,8.578,7.126,7.067,12.541c-2.948,10.56-5.468,21.366-7.49,32.115
						c-0.278,1.475-0.859,2.813-1.669,3.967C497.461,923.074,493.518,924.826,489.467,924.062z M654.451,674.568
						c-8.867,6.414-17.563,13.29-25.845,20.443c-4.258,3.674-10.688,3.202-14.361-1.053c-3.676-4.258-3.183-10.667,1.055-14.36
						c8.723-7.53,17.881-14.773,27.219-21.526c4.556-3.294,10.92-2.273,14.216,2.284c2.614,3.613,2.511,8.365,0.083,11.821
						C656.186,673.074,655.392,673.885,654.451,674.568z M513.41,838.624c-5.151-2.249-7.504-8.252-5.254-13.406
						c4.611-10.553,9.74-21.047,15.236-31.193c2.659-4.96,8.859-6.776,13.802-4.1c4.942,2.678,6.777,8.858,4.1,13.803
						c-5.224,9.641-10.099,19.614-14.479,29.644c-0.279,0.64-0.62,1.234-1.006,1.784
						C523.085,839.036,517.921,840.595,513.41,838.624z M590.626,732.749c-7.203,8.231-14.147,16.881-20.636,25.715
						c-3.327,4.534-9.698,5.508-14.232,2.179c-4.472-3.285-5.48-9.535-2.304-14.054c0.041-0.059,0.083-0.119,0.128-0.175
						c6.828-9.302,14.137-18.41,21.717-27.074c3.706-4.229,10.137-4.659,14.368-0.956c3.952,3.457,4.586,9.3,1.632,13.504
						C591.093,732.183,590.866,732.471,590.626,732.749z"/>
					
						<linearGradient id="SVGID_00000091718966126204164690000001737152565269828769_" gradientUnits="userSpaceOnUse" x1="3624.9712" y1="203.0465" x2="3658.8867" y2="203.0465" gradientTransform="matrix(-0.5749 0.8182 0.8182 0.5749 2412.356 -2119.4695)">
						<stop  offset="0" style="stop-color:#B37CFF"/>
						<stop  offset="1" style="stop-color:#F895E7"/>
					</linearGradient>
					<path style="fill:url(#SVGID_00000091718966126204164690000001737152565269828769_);" d="M492.875,991.071
						c1.152-1.64,1.836-3.636,1.846-5.794c0.024-5.249,0.161-10.584,0.399-15.861c0.257-5.615-4.09-10.378-9.705-10.633
						c-5.617-0.258-10.386,4.087-10.632,9.708c-0.254,5.549-0.396,11.16-0.424,16.685c-0.027,5.621,4.509,10.204,10.129,10.231
						C487.955,995.424,491.023,993.707,492.875,991.071z"/>
				</g>
				<g style="opacity:0.3;">
					
						<linearGradient id="SVGID_00000170999779748172823100000007733258692692394136_" gradientUnits="userSpaceOnUse" x1="3801.0181" y1="462.195" x2="3824.2915" y2="462.195" gradientTransform="matrix(-0.5749 0.8182 0.8182 0.5749 2412.356 -2119.4695)">
						<stop  offset="0" style="stop-color:#B37CFF"/>
						<stop  offset="1" style="stop-color:#F895E7"/>
					</linearGradient>
					<path style="fill:url(#SVGID_00000170999779748172823100000007733258692692394136_);" d="M612.685,1277.4
						c2.825-4.02,2.396-9.607-1.239-13.143c-3.763-3.658-7.514-7.457-11.143-11.291c-3.867-4.083-10.311-4.259-14.393-0.393
						c-4.099,3.883-4.257,10.312-0.393,14.393c3.823,4.035,7.772,8.037,11.733,11.89c4.031,3.919,10.477,3.828,14.397-0.202
						C612.033,1278.259,612.378,1277.838,612.685,1277.4z"/>
					
						<linearGradient id="SVGID_00000047739106660892662370000000577680321004378265_" gradientUnits="userSpaceOnUse" x1="3231.1389" y1="726.9254" x2="3829.2681" y2="726.9254" gradientTransform="matrix(-0.5749 0.8182 0.8182 0.5749 2412.356 -2119.4695)">
						<stop  offset="0" style="stop-color:#B37CFF"/>
						<stop  offset="1" style="stop-color:#F895E7"/>
					</linearGradient>
					<path style="fill:url(#SVGID_00000047739106660892662370000000577680321004378265_);" d="M1201.595,1237.749
						c-3.453,4.437-9.851,5.234-14.29,1.777c-4.435-3.455-5.226-9.84-1.777-14.287c6.577-8.446,12.894-17.305,18.856-26.426
						c3.045-4.694,9.387-6.027,14.093-2.951c4.706,3.076,6.027,9.385,2.953,14.093c-2.583,3.952-5.221,7.845-7.915,11.678
						C1209.673,1227.102,1205.663,1232.525,1201.595,1237.749z M1235.001,1166.392c-5.077-2.41-7.24-8.482-4.828-13.561
						c4.627-9.753,8.895-19.804,12.679-29.879c1.958-5.263,7.846-7.928,13.111-5.952c5.261,1.976,7.925,7.847,5.948,13.109
						c-3.984,10.608-8.474,21.19-13.347,31.451c-0.253,0.532-0.546,1.033-0.873,1.499
						C1244.892,1167.043,1239.551,1168.551,1235.001,1166.392z M1164.596,1279.086c-8.115,7.902-16.679,15.567-25.458,22.776
						c-4.345,3.569-10.761,2.939-14.331-1.407c-3.567-4.344-2.933-10.754,1.407-14.329c8.339-6.845,16.47-14.121,24.174-21.627
						c4.03-3.922,10.474-3.839,14.399,0.191c3.469,3.563,3.801,9.019,1.042,12.946
						C1165.469,1278.147,1165.059,1278.634,1164.596,1279.086z M1265.644,1084.631c-5.484-1.236-8.93-6.686-7.691-12.17
						c2.372-10.514,4.32-21.255,5.794-31.922c0.768-5.575,5.905-9.462,11.478-8.691c5.569,0.769,9.459,5.906,8.69,11.475
						c-1.552,11.235-3.605,22.547-6.101,33.617c-0.303,1.337-0.852,2.555-1.595,3.613
						C1273.918,1083.827,1269.789,1085.566,1265.644,1084.631z M1093.98,1334.018c-9.648,5.921-19.685,11.51-29.834,16.615
						c-5.022,2.527-11.14,0.505-13.668-4.516c-2.53-5.025-0.505-11.145,4.518-13.671c9.639-4.851,19.173-10.159,28.335-15.782
						c4.793-2.941,11.063-1.439,14.003,3.354c2.191,3.571,1.915,7.961-0.348,11.182
						C1096.211,1332.302,1095.201,1333.269,1093.98,1334.018z M1013.029,1372.131c-10.735,3.677-21.75,6.943-32.739,9.71
						c-5.454,1.37-10.985-1.935-12.359-7.389c-1.373-5.461,1.935-10.991,7.389-12.356c10.441-2.629,20.909-5.733,31.111-9.226
						c5.32-1.823,11.108,1.013,12.931,6.333c1.096,3.205,0.502,6.582-1.307,9.157
						C1016.862,1370.059,1015.141,1371.408,1013.029,1372.131z M925.693,1391.698c-11.286,1.253-22.753,2.042-34.074,2.349
						c-5.623,0.151-10.299-4.282-10.453-9.901c-0.152-5.628,4.283-10.301,9.901-10.452c10.76-0.289,21.651-1.042,32.379-2.233
						c5.588-0.62,10.622,3.408,11.241,8.995c0.286,2.568-0.409,5.015-1.785,6.974
						C931.28,1389.736,928.714,1391.362,925.693,1391.698z M836.169,1391.748c-11.286-1.245-22.65-2.987-33.776-5.179
						c-5.516-1.086-9.109-6.439-8.021-11.957c1.085-5.507,6.441-9.104,11.958-8.018c10.563,2.081,21.352,3.735,32.075,4.917
						c5.588,0.617,9.618,5.645,9.001,11.234c-0.195,1.765-0.83,3.373-1.783,4.73
						C843.556,1390.414,839.995,1392.168,836.169,1391.748z M748.776,1372.114c-10.708-3.692-21.4-7.893-31.782-12.485
						c-5.143-2.275-7.469-8.289-5.193-13.43c2.269-5.125,8.285-7.467,13.428-5.192c9.862,4.364,20.017,8.352,30.188,11.862
						c5.314,1.831,8.137,7.628,6.303,12.942c-0.319,0.925-0.757,1.777-1.293,2.54
						C757.886,1371.967,753.166,1373.628,748.776,1372.114z M667.912,1333.809c-7.109-4.373-14.172-9.021-20.989-13.811
						c-2.47-1.735-4.91-3.491-7.329-5.271c-4.527-3.331-5.628-9.712-2.165-14.231c3.329-4.53,9.703-5.501,14.234-2.169
						c2.298,1.69,4.621,3.364,6.967,5.012c6.482,4.555,13.191,8.971,19.951,13.13c4.789,2.945,6.282,9.216,3.336,14.004
						c-0.111,0.179-0.226,0.356-0.346,0.527C678.502,1335.369,672.52,1336.646,667.912,1333.809z"/>
					
						<linearGradient id="SVGID_00000062911961591231976080000006152004448072541103_" gradientUnits="userSpaceOnUse" x1="3171.5156" y1="853.0188" x2="3204.9983" y2="853.0188" gradientTransform="matrix(-0.5749 0.8182 0.8182 0.5749 2412.356 -2119.4695)">
						<stop  offset="0" style="stop-color:#B37CFF"/>
						<stop  offset="1" style="stop-color:#F895E7"/>
					</linearGradient>
					<path style="fill:url(#SVGID_00000062911961591231976080000006152004448072541103_);" d="M1285.871,993.546
						c1.164-1.656,1.847-3.672,1.848-5.846c0-5.512-0.118-11.128-0.349-16.692c-0.232-5.619-4.975-9.985-10.592-9.752
						c-5.618,0.234-9.985,4.969-9.752,10.592c0.218,5.286,0.329,10.62,0.331,15.853c-0.002,5.62,4.556,10.179,10.179,10.179
						C1280.984,997.879,1284.03,996.165,1285.871,993.546z"/>
				</g>
				<g>
					
						<linearGradient id="SVGID_00000134964007725394751460000010732422111670500502_" gradientUnits="userSpaceOnUse" x1="4801.5166" y1="1135.4242" x2="2667.9597" y2="198.7426" gradientTransform="matrix(-0.5749 0.8182 0.8182 0.5749 2412.356 -2119.4695)">
						<stop  offset="0" style="stop-color:#A737D5"/>
						<stop  offset="1" style="stop-color:#EF497A"/>
					</linearGradient>
					<path style="fill:url(#SVGID_00000134964007725394751460000010732422111670500502_);" d="M1162.572,870.018
						c-0.55-1.955-2.277-3.345-4.304-3.463l-57.814-3.371c-13.059-23.684-29.988-45.455-50.509-64.257l10.334-56.945
						c0.362-1.998-0.583-4.005-2.353-4.998l-60.571-34.006c-1.77-0.995-3.977-0.756-5.492,0.593l-43.237,38.473
						c-26.737-7.731-54.14-10.849-81.159-9.666l-32.98-47.603c-1.156-1.668-3.244-2.42-5.198-1.871l-66.877,18.784
						c-1.954,0.549-3.346,2.278-3.463,4.305l-3.37,57.814c-23.684,13.058-45.456,29.987-64.257,50.51l-56.945-10.334
						c-1.998-0.363-4.005,0.581-4.999,2.352l-34.008,60.572c-0.993,1.771-0.754,3.976,0.595,5.492l38.473,43.237
						c-7.732,26.737-10.849,54.14-9.665,81.159l-47.604,32.98c-1.668,1.156-2.421,3.243-1.871,5.198l18.784,66.877
						c0.549,1.954,2.278,3.345,4.303,3.463l57.816,3.371c13.057,23.684,29.987,45.455,50.509,64.257l-10.334,56.945
						c-0.363,1.997,0.582,4.005,2.352,4.999l60.573,34.007c1.77,0.994,3.976,0.755,5.492-0.594l43.237-38.473
						c26.737,7.731,54.14,10.849,81.159,9.666l32.98,47.603c1.155,1.669,3.242,2.42,5.198,1.871l66.877-18.784
						c1.954-0.549,3.345-2.277,3.463-4.303l3.37-57.815c23.684-13.058,45.455-29.987,64.258-50.509l56.945,10.334
						c1.996,0.362,4.004-0.582,4.998-2.353l34.006-60.572c0.993-1.77,0.756-3.976-0.594-5.492l-38.472-43.236
						c7.731-26.737,10.848-54.14,9.665-81.159l47.604-32.98c1.669-1.156,2.42-3.244,1.871-5.198L1162.572,870.018z"/>
					<path style="opacity:0.56;fill:#FFFFFF;" d="M928.993,1033.979c-26.493,27.936-70.773,29.114-98.713,2.62
						c-13.535-12.833-21.261-30.17-21.754-48.813c-0.496-18.641,6.296-36.365,19.135-49.897
						c26.494-27.937,70.773-29.114,98.714-2.62c25.417,24.103,28.683,62.927,9.114,90.776
						C933.548,1028.804,931.381,1031.459,928.993,1033.979z M824.809,987.354c0.38,14.296,6.303,27.586,16.681,37.428
						c21.419,20.309,55.373,19.41,75.684-2.01c20.325-21.42,19.41-55.373-2.01-75.687c-21.419-20.309-55.373-19.41-75.684,2.01
						c-1.842,1.943-3.517,3.995-5.028,6.146C827.888,964.58,824.502,975.735,824.809,987.354z"/>
					<path style="opacity:0.56;fill:#FFFFFF;" d="M1017.183,1085.194c3.361-4.783,6.501-9.763,9.402-14.929l0,0
						c0.914-1.625,1.8-3.267,2.662-4.922c4.243-8.161,7.829-16.647,10.705-25.327c0.039-0.118,0.079-0.236,0.118-0.354
						c0.11-0.336,0.219-0.672,0.326-1.01c0.213-0.655,0.417-1.313,0.621-1.97c0.534-1.729-0.14-3.542-1.545-4.532
						c-0.342-0.24-0.727-0.431-1.147-0.561c-2.149-0.664-4.423,0.547-5.089,2.691c-3.411,11.059-8.039,21.823-13.753,31.995
						c-28.363,50.539-79.752,80.177-133.725,83.197c-30.02,1.684-60.841-4.872-88.946-20.653c-4.929-2.766-9.682-5.761-14.243-8.969
						c-30.7-21.578-52.861-52.798-63.143-89.411c-11.814-42.057-6.542-86.198,14.843-124.288
						c44.174-78.663,144.041-106.69,222.671-62.544c4.848,2.722,9.541,5.679,14.059,8.856
						c19.582,13.765,35.935,31.662,47.822,52.464c0.308,0.537,0.717,0.978,1.193,1.31c1.249,0.878,2.947,1.014,4.362,0.204
						c1.95-1.122,2.637-3.6,1.515-5.558c-12.48-21.839-29.647-40.632-50.206-55.083c-4.743-3.335-9.668-6.439-14.756-9.297
						c-82.554-46.35-187.429-16.867-233.763,65.657c-22.452,39.989-27.984,86.327-15.582,130.479
						c10.794,38.438,34.059,71.213,66.288,93.867c4.79,3.365,9.779,6.509,14.95,9.414c39.992,22.451,86.33,27.986,130.481,15.585
						C961.75,1140.709,994.529,1117.433,1017.183,1085.194z"/>
				</g>
			</g>
			<g>
				<g style="opacity:0.3;">
					
						<linearGradient id="SVGID_00000073688238527429294270000011878765590992000699_" gradientUnits="userSpaceOnUse" x1="2670.6267" y1="839.6962" x2="2687.1794" y2="839.6962" gradientTransform="matrix(-0.5749 0.8182 0.8182 0.5749 2412.356 -2119.4695)">
						<stop  offset="0" style="stop-color:#B37CFF"/>
						<stop  offset="1" style="stop-color:#F895E7"/>
					</linearGradient>
					<path style="fill:url(#SVGID_00000073688238527429294270000011878765590992000699_);" d="M1569.521,564.76
						c1.564-2.226,1.553-5.296-0.231-7.532c-3.326-4.175-6.824-8.307-10.397-12.278c-2.322-2.581-6.294-2.791-8.88-0.468
						c-2.595,2.316-2.79,6.299-0.468,8.88c3.405,3.784,6.739,7.722,9.914,11.706c2.16,2.714,6.117,3.161,8.836,1
						C1568.776,565.682,1569.183,565.24,1569.521,564.76z"/>
					
						<linearGradient id="SVGID_00000063617333855936179130000002705626267314084776_" gradientUnits="userSpaceOnUse" x1="2663.9233" y1="653.7399" x2="2988.3225" y2="653.7399" gradientTransform="matrix(-0.5749 0.8182 0.8182 0.5749 2412.356 -2119.4695)">
						<stop  offset="0" style="stop-color:#B37CFF"/>
						<stop  offset="1" style="stop-color:#F895E7"/>
					</linearGradient>
					<path style="fill:url(#SVGID_00000063617333855936179130000002705626267314084776_);" d="M1535.638,530.366
						c-2.277,2.621-6.245,2.906-8.87,0.63c-6.624-5.739-13.619-11.206-20.789-16.244c-1.512-1.063-3.042-2.111-4.588-3.148
						c-2.879-1.937-3.647-5.843-1.711-8.726c1.939-2.653,5.843-3.647,8.73-1.712c1.616,1.087,3.216,2.185,4.798,3.297
						c7.516,5.281,14.851,11.013,21.795,17.034c2.459,2.129,2.862,5.752,1.03,8.36
						C1535.913,530.029,1535.779,530.198,1535.638,530.366z M1473.849,495.443c-9.476-4.809-19.335-9.076-29.301-12.675
						c-3.267-1.182-4.956-4.781-3.777-8.05c1.178-3.247,4.783-4.959,8.05-3.777c10.446,3.772,20.782,8.243,30.717,13.288
						c3.097,1.572,4.334,5.357,2.763,8.456c-0.138,0.271-0.298,0.53-0.469,0.773
						C1480.064,495.975,1476.671,496.874,1473.849,495.443z M1413.894,473.813c-10.35-2.338-20.954-4.048-31.526-5.087
						c-3.453-0.34-5.981-3.418-5.641-6.872c0.343-3.467,3.411-5.986,6.871-5.645c11.086,1.087,22.212,2.887,33.063,5.334
						c3.387,0.766,5.517,4.132,4.751,7.519c-0.19,0.824-0.53,1.576-0.988,2.229C1419.003,473.313,1416.454,474.388,1413.894,473.813
						z M1350.455,467.574c-10.623,0.272-21.329,1.208-31.803,2.783c-3.438,0.514-6.639-1.851-7.153-5.285
						c-0.512-3.426,1.848-6.634,5.281-7.152c10.991-1.65,22.209-2.631,33.353-2.917c3.471-0.09,6.359,2.656,6.449,6.127
						c0.031,1.399-0.391,2.704-1.14,3.769C1354.336,466.473,1352.527,467.521,1350.455,467.574z M1287.416,477.013
						c-10.233,2.847-20.382,6.353-30.176,10.421c-3.203,1.333-6.884-0.188-8.218-3.395c-1.334-3.207,0.181-6.89,3.396-8.218
						c10.261-4.265,20.903-7.939,31.626-10.926c3.346-0.928,6.813,1.028,7.743,4.371c0.526,1.89,0.131,3.819-0.914,5.306
						C1290.066,475.719,1288.872,476.606,1287.416,477.013z M1228.578,501.468c-9.224,5.245-18.204,11.115-26.695,17.453
						c-2.78,2.076-6.723,1.504-8.798-1.278c-2.075-2.783-1.507-6.71,1.277-8.803c8.903-6.645,18.326-12.804,28.002-18.306
						c3.02-1.713,6.858-0.66,8.572,2.357c1.241,2.185,1.032,4.801-0.321,6.727C1230.097,500.355,1229.415,500.994,1228.578,501.468z
						 M1177.53,539.554c-7.631,7.325-14.904,15.228-21.613,23.494c-2.192,2.693-6.151,3.104-8.845,0.914
						c-2.696-2.186-3.068-6.111-0.919-8.848c7.039-8.66,14.663-16.947,22.666-24.63c2.507-2.404,6.488-2.323,8.893,0.182
						c2.115,2.202,2.305,5.552,0.611,7.964C1178.093,538.955,1177.83,539.266,1177.53,539.554z M1113.74,620.123
						c-3.148-1.469-4.506-5.208-3.037-8.356c4.065-8.712,8.68-17.35,13.696-25.653c0.756-1.267,1.527-2.514,2.306-3.761
						c1.749-2.981,5.726-3.834,8.671-1.979c2.943,1.846,3.827,5.725,1.983,8.669c-0.735,1.165-1.457,2.342-2.179,3.55
						c-4.804,7.946-9.205,16.186-13.083,24.493c-0.159,0.343-0.347,0.665-0.555,0.961
						C1119.82,620.496,1116.543,621.432,1113.74,620.123z"/>
				</g>
				<g style="opacity:0.3;">
					
						<linearGradient id="SVGID_00000113342190900622439840000014555635774334021268_" gradientUnits="userSpaceOnUse" x1="2808.7114" y1="964.7228" x2="3178.97" y2="964.7228" gradientTransform="matrix(-0.5749 0.8182 0.8182 0.5749 2412.356 -2119.4695)">
						<stop  offset="0" style="stop-color:#B37CFF"/>
						<stop  offset="1" style="stop-color:#F895E7"/>
					</linearGradient>
					<path style="fill:url(#SVGID_00000113342190900622439840000014555635774334021268_);" d="M1576.869,885.747
						c-6.416,8.884-13.433,17.451-20.848,25.472c-2.359,2.545-6.336,2.704-8.887,0.344c-2.552-2.36-2.664-6.334-0.344-8.888
						c7.075-7.645,13.764-15.819,19.886-24.294c2.031-2.816,5.965-3.448,8.778-1.416c2.792,2.018,3.44,5.903,1.466,8.711
						C1576.902,885.699,1576.885,885.724,1576.869,885.747z M1585.966,860.39c-3.037-1.68-4.137-5.508-2.455-8.544
						c5.057-9.141,9.613-18.679,13.537-28.353c1.307-3.195,4.972-4.769,8.194-3.458c3.218,1.305,4.764,4.968,3.462,8.189
						c-4.114,10.138-8.887,20.135-14.191,29.711c-0.112,0.202-0.231,0.393-0.361,0.579
						C1592.33,861.106,1588.808,861.963,1585.966,860.39z M1532.211,933.984c-8.378,7.074-17.258,13.697-26.395,19.683
						c-2.905,1.902-6.807,1.089-8.706-1.814c-1.907-2.905-1.093-6.787,1.809-8.706c8.718-5.709,17.186-12.025,25.183-18.771
						c2.655-2.24,6.621-1.904,8.857,0.745c1.884,2.232,1.946,5.39,0.343,7.671C1533,933.224,1532.636,933.625,1532.211,933.984z
						 M1611.487,801.428c-3.353-0.9-5.34-4.353-4.44-7.705c2.712-10.087,4.83-20.438,6.292-30.773
						c0.491-3.434,3.674-5.827,7.104-5.346c3.44,0.488,5.835,3.669,5.347,7.108c-1.53,10.839-3.751,21.7-6.598,32.278
						c-0.199,0.731-0.517,1.397-0.928,1.982C1616.789,801.07,1614.108,802.132,1611.487,801.428z M1477.24,969.984
						c-9.811,4.841-20.021,9.129-30.351,12.753c-3.277,1.149-6.867-0.578-8.016-3.854c-1.15-3.277,0.57-6.868,3.854-8.016
						c9.855-3.451,19.591-7.544,28.946-12.164c3.113-1.535,6.884-0.259,8.422,2.86c1.054,2.132,0.782,4.58-0.498,6.401
						C1479.013,968.795,1478.217,969.501,1477.24,969.984z M1415.227,991.75c-10.706,2.354-21.651,4.078-32.527,5.127
						c-3.455,0.334-6.525-2.195-6.858-5.652c-0.336-3.452,2.194-6.53,5.656-6.863c10.37-1.002,20.811-2.649,31.028-4.895
						c3.391-0.746,6.746,1.4,7.492,4.792c0.393,1.792-0.019,3.574-0.999,4.968C1418.147,990.467,1416.824,991.399,1415.227,991.75z
						 M1349.781,998.043c-10.966-0.276-22.01-1.23-32.82-2.829c-3.438-0.51-5.808-3.706-5.3-7.143c0.507-3.434,3.71-5.803,7.138-5.3
						c10.31,1.529,20.84,2.437,31.294,2.694c3.473,0.088,6.218,2.974,6.128,6.445c-0.028,1.29-0.448,2.474-1.136,3.453
						C1353.917,997.027,1351.966,998.096,1349.781,998.043z"/>
					
						<linearGradient id="SVGID_00000130642768875379832100000000998119388061600410_" gradientUnits="userSpaceOnUse" x1="2768.0076" y1="987.8937" x2="2793.3303" y2="987.8937" gradientTransform="matrix(-0.5749 0.8182 0.8182 0.5749 2412.356 -2119.4695)">
						<stop  offset="0" style="stop-color:#B37CFF"/>
						<stop  offset="1" style="stop-color:#F895E7"/>
					</linearGradient>
					<path style="fill:url(#SVGID_00000130642768875379832100000000998119388061600410_);" d="M1627.282,735.076
						c0.697-0.992,1.115-2.196,1.139-3.5c0.096-5.381,0.031-10.789-0.186-16.075c-0.145-3.468-3.074-6.168-6.544-6.025
						c-3.462,0.153-6.161,3.075-6.024,6.544c0.21,5.041,0.27,10.201,0.181,15.336c-0.062,3.473,2.707,6.337,6.177,6.397
						C1624.19,737.788,1626.122,736.726,1627.282,735.076z"/>
				</g>
				<g>
					
						<linearGradient id="SVGID_00000142162216351869980470000008969482074239244679_" gradientUnits="userSpaceOnUse" x1="4634.1338" y1="1516.1439" x2="2500.5786" y2="579.4629" gradientTransform="matrix(-0.5749 0.8182 0.8182 0.5749 2412.356 -2119.4695)">
						<stop  offset="0" style="stop-color:#A737D5"/>
						<stop  offset="1" style="stop-color:#EF497A"/>
					</linearGradient>
					<path style="fill:url(#SVGID_00000142162216351869980470000008969482074239244679_);" d="M1545.245,647.899
						c-0.368-1.308-1.524-2.238-2.88-2.318l-38.687-2.256c-8.738-15.848-20.067-30.416-33.798-42.997l6.915-38.105
						c0.242-1.337-0.39-2.679-1.574-3.345l-40.532-22.755c-1.184-0.666-2.661-0.506-3.675,0.396l-28.932,25.745
						c-17.891-5.174-36.228-7.26-54.308-6.468l-22.069-31.854c-0.774-1.117-2.171-1.619-3.478-1.252l-44.751,12.57
						c-1.308,0.367-2.239,1.524-2.318,2.88l-2.255,38.686c-15.849,8.738-30.417,20.066-42.998,33.799l-38.105-6.915
						c-1.337-0.242-2.68,0.389-3.345,1.574l-22.756,40.532c-0.665,1.185-0.504,2.66,0.398,3.675l25.745,28.932
						c-5.174,17.891-7.26,36.228-6.467,54.308l-31.855,22.069c-1.116,0.773-1.62,2.17-1.252,3.478l12.57,44.752
						c0.367,1.307,1.524,2.237,2.879,2.317l38.688,2.256c8.737,15.848,20.065,30.417,33.798,42.998l-6.915,38.105
						c-0.243,1.336,0.389,2.679,1.574,3.345l40.532,22.756c1.184,0.665,2.66,0.505,3.675-0.398L1308,888.663
						c17.891,5.174,36.228,7.26,54.308,6.468l22.068,31.854c0.773,1.117,2.17,1.619,3.478,1.252l44.751-12.57
						c1.308-0.367,2.238-1.524,2.318-2.88l2.255-38.687c15.849-8.738,30.417-20.066,42.998-33.799l38.105,6.915
						c1.336,0.242,2.679-0.39,3.345-1.574l22.755-40.532c0.665-1.184,0.505-2.661-0.398-3.675l-25.744-28.932
						c5.174-17.891,7.259-36.228,6.467-54.308l31.855-22.069c1.117-0.773,1.619-2.171,1.252-3.478L1545.245,647.899z"/>
					<path style="opacity:0.56;fill:#FFFFFF;" d="M1389.555,758.188c-8.741,9.224-20.552,14.487-33.253,14.822
						c-12.697,0.339-24.769-4.289-33.988-13.034c-19.029-18.043-19.822-48.155-1.786-67.243
						c18.052-19.027,48.214-19.826,67.236-1.783c9.22,8.741,14.484,20.55,14.822,33.249c0.273,10.323-2.735,20.233-8.567,28.532
						C1392.679,754.639,1391.187,756.464,1389.555,758.188z M1330.964,750.849c6.783,6.432,15.662,9.838,25.007,9.591
						c9.338-0.249,18.027-4.122,24.457-10.902l0,0c6.422-6.79,9.834-15.661,9.586-25.006c-0.245-9.339-4.122-18.026-10.9-24.455
						c-13.998-13.274-36.183-12.686-49.461,1.308c-1.196,1.265-2.28,2.593-3.253,3.978
						C1316.595,719.318,1318.232,738.776,1330.964,750.849z"/>
					<path style="opacity:0.56;fill:#FFFFFF;" d="M1450.937,793.83c2.288-3.256,4.427-6.653,6.419-10.192
						c3.949-7.03,7.188-14.469,9.63-22.131c0.107-0.345,0.214-0.69,0.322-1.035c0.826-2.67-0.217-5.469-2.385-6.997
						c-0.527-0.37-1.123-0.665-1.771-0.865c-3.318-1.025-6.825,0.848-7.859,4.156c-2.212,7.174-5.209,14.141-8.901,20.71
						l-0.002,0.003c-0.202,0.361-0.41,0.721-0.615,1.077c-8.88,15.468-21.28,28.136-36.08,37.238
						c-8.034,4.94-16.784,8.826-26.073,11.526c-0.076,0.022-0.151,0.044-0.226,0.066c-0.234,0.065-0.462,0.133-0.693,0.196
						c-27.227,7.645-55.802,4.234-80.461-9.611c-3.193-1.789-6.267-3.728-9.221-5.804c-19.874-13.969-34.219-34.181-40.88-57.886
						c-7.646-27.227-4.229-55.8,9.614-80.456c13.844-24.637,36.464-42.451,63.688-50.102c27.226-7.645,55.803-4.234,80.461,9.611
						c3.139,1.759,6.176,3.676,9.1,5.73c12.679,8.914,23.264,20.497,30.958,33.964c0.475,0.83,1.107,1.51,1.843,2.023
						c1.929,1.356,4.551,1.566,6.735,0.316c3.01-1.731,4.065-5.561,2.338-8.583c-8.61-15.067-20.454-28.032-34.633-38.003
						c-3.276-2.302-6.671-4.444-10.18-6.414c-27.593-15.49-59.561-19.308-90.025-10.751c-30.457,8.558-55.773,28.436-71.251,56.049
						c-15.491,27.588-19.311,59.555-10.75,90.018c7.445,26.519,23.497,49.131,45.732,64.759c3.301,2.319,6.743,4.491,10.311,6.494
						C1349.496,858.921,1416.448,842.911,1450.937,793.83z"/>
				</g>
			</g>
		</g>
		<g>
			
				<linearGradient id="SVGID_00000030483927583809932800000000960663747332673418_" gradientUnits="userSpaceOnUse" x1="-722.205" y1="743.5056" x2="-748.8979" y2="3306.0737" gradientTransform="matrix(-1 0 0 1 1601.9641 0)">
				<stop  offset="0" style="stop-color:#CB236D"/>
				<stop  offset="1" style="stop-color:#4C246D"/>
			</linearGradient>
			<path style="fill:url(#SVGID_00000030483927583809932800000000960663747332673418_);" d="M2401.156,664.577V3164.83
				c0,16.513-6.684,31.428-18.057,40.628c-8.633,7.002-19.531,11.453-31.539,11l-27.381-1.01
				c-27.679-1.044-52.642-26.374-52.642-55.31V668.812L2401.156,664.577z"/>
			<g>
				
					<linearGradient id="SVGID_00000168113983290629341780000016120174033128127625_" gradientUnits="userSpaceOnUse" x1="-597.9719" y1="349.1943" x2="-884.3864" y2="828.6274" gradientTransform="matrix(-1 0 0 1 1601.9641 0)">
					<stop  offset="0" style="stop-color:#CB236D"/>
					<stop  offset="1" style="stop-color:#4C246D"/>
				</linearGradient>
				<path style="fill:url(#SVGID_00000168113983290629341780000016120174033128127625_);" d="M2453.277,574.881
					c0,42.193-21.438,79.963-53.724,102.177c-18.169,12.515-39.769,20.08-62.882,20.771c-11.474,0.343-22.58-1.015-33.035-3.896
					c-7.874-2.15-15.386-5.153-22.466-8.902c-1.787-0.973-3.574-1.946-5.326-3.03c-33.024-19.888-54.98-56.642-54.98-99.352
					c0-65.567,51.764-120.592,115.807-122.958C2400.957,457.315,2453.277,508.862,2453.277,574.881z"/>
				
					<linearGradient id="SVGID_00000025430850055809551490000008275012049225185408_" gradientUnits="userSpaceOnUse" x1="-600.9604" y1="395.0883" x2="-823.64" y2="767.8345" gradientTransform="matrix(-1 0 0 1 1601.9641 0)">
					<stop  offset="0" style="stop-color:#B37CFF"/>
					<stop  offset="1" style="stop-color:#F895E7"/>
				</linearGradient>
				<path style="opacity:0.3;fill:url(#SVGID_00000025430850055809551490000008275012049225185408_);" d="M2399.89,570.554
					c0,32.804-16.667,62.169-41.769,79.44c-14.126,9.73-30.919,15.611-48.889,16.149c-8.921,0.267-17.555-0.789-25.684-3.029
					c-6.122-1.671-11.962-4.007-17.467-6.921c-1.39-0.757-2.779-1.513-4.141-2.356c-25.676-15.462-42.745-44.037-42.745-77.243
					c0-50.976,40.245-93.757,90.037-95.597C2359.213,479.15,2399.89,519.225,2399.89,570.554z"/>
			</g>
			<g>
				
					<linearGradient id="SVGID_00000065072165841731668740000011568376243182451372_" gradientUnits="userSpaceOnUse" x1="2526.1765" y1="177.3992" x2="2526.1765" y2="1041.8042" gradientTransform="matrix(0.946 0.1287 -0.1364 0.9906 -220.249 -129.6694)">
					<stop  offset="0" style="stop-color:#FDF53F"/>
					<stop  offset="1" style="stop-color:#D93C65"/>
				</linearGradient>
				<path style="fill:url(#SVGID_00000065072165841731668740000011568376243182451372_);" d="M1464.232,753.927l9.952,5.145
					l188.566-115.617l923.461,136.514l129.166,14.779l-7.623,24.111c-1.031,2.594-147.99,109.68-147.99,109.68l114.376,150.116
					l-5.502,15.438c-0.653,1.832-2.445,2.945-4.283,2.661l-118.75-18.396l-923.979-143.133c-2.585-0.401-4.969-1.653-6.807-3.577
					L1466.228,776.09c-1.948-2.039-2.967-4.858-2.804-7.757L1464.232,753.927z"/>
				
					<linearGradient id="SVGID_00000147187584442100169080000004111694623604336004_" gradientUnits="userSpaceOnUse" x1="-719.9068" y1="411.3151" x2="-777.9755" y2="1137.8159" gradientTransform="matrix(-0.9434 -0.1461 -0.1531 0.9882 1485.7129 119.4275)">
					<stop  offset="0" style="stop-color:#FDF53F"/>
					<stop  offset="1" style="stop-color:#D93C65"/>
				</linearGradient>
				<path style="fill:url(#SVGID_00000147187584442100169080000004111694623604336004_);" d="M1673.172,633.301l1042.205,161.447
					c0.968,0.15,1.25,1.461,0.441,2.052l-146.86,107.431c-1.99,1.456-2.523,4.291-1.2,6.38l105.03,165.904
					c0.519,0.819-0.15,1.905-1.084,1.761l-1042.86-161.548c-2.974-0.461-5.724-1.876-7.872-4.052L1465.548,755.26
					c-0.657-0.665-0.508-1.813,0.297-2.292l197.928-117.811C1666.632,633.455,1669.943,632.801,1673.172,633.301z"/>
			</g>
			<g>
				
					<linearGradient id="SVGID_00000015355948651799948700000013119139597897624214_" gradientUnits="userSpaceOnUse" x1="-112.0574" y1="1170.2556" x2="-95.0808" y2="1943.6431" gradientTransform="matrix(-0.9486 0.0803 0.0843 0.9964 1915.9443 -78.376)">
					<stop  offset="0" style="stop-color:#A737D5"/>
					<stop  offset="1" style="stop-color:#EF497A"/>
				</linearGradient>
				<path style="fill:url(#SVGID_00000015355948651799948700000013119139597897624214_);" d="M1554.891,1728.543l10.574,2.586
					l151.48-152.735l902.999-82.721l120.512-15.056c2.503-0.313,4.68,1.714,4.546,4.233l-1.042,19.706
					c-0.379,2.693-114.909,137.839-114.909,137.839l142.391,115.862l-1.653,15.878c-0.196,1.884-1.633,3.349-3.433,3.502
					l-116.312,9.841l-905.006,76.574c-2.532,0.214-5.07-0.425-7.245-1.824l-175.937-113.161c-2.307-1.484-3.915-3.918-4.426-6.7
					L1554.891,1728.543z"/>
				
					<linearGradient id="SVGID_00000003815730427482497890000008180372637876750518_" gradientUnits="userSpaceOnUse" x1="-84.9104" y1="1556.8276" x2="-141.478" y2="2264.5476" gradientTransform="matrix(-0.9486 0.0803 0.0843 0.9964 1915.9443 -78.376)">
					<stop  offset="0" style="stop-color:#B37CFF"/>
					<stop  offset="1" style="stop-color:#F895E7"/>
				</linearGradient>
				<path style="fill:url(#SVGID_00000003815730427482497890000008180372637876750518_);" d="M1724.454,1566.389l1017.777-86.115
					c2.088-0.177,3.348,2.258,1.999,3.861l-112.065,133.128c-1.534,1.822-1.389,4.669,0.321,6.326l137.237,133.001
					c0.672,0.651,0.265,1.79-0.667,1.869l-1021.447,86.426c-2.913,0.246-5.834-0.463-8.36-2.029l-182.807-113.351
					c-0.79-0.49-0.912-1.589-0.249-2.24l159.815-156.962C1718.317,1568.035,1721.292,1566.656,1724.454,1566.389z"/>
				<g>
					<path style="opacity:0.56;fill:#FFFFFF;" d="M2328.922,1630.711l-567.259,44.34c-2.102,0.164-3.956-1.421-4.12-3.523
						l-2.04-26.098c-0.164-2.102,1.421-3.956,3.523-4.12l567.259-44.34c2.102-0.164,3.956,1.421,4.12,3.523l2.04,26.098
						C2332.61,1628.693,2331.024,1630.547,2328.922,1630.711z"/>
					<path style="opacity:0.56;fill:#FFFFFF;" d="M2329.325,1720.243l-562.728,43.986c-2.102,0.164-3.956-1.421-4.12-3.523
						l-1.904-24.354c-0.164-2.102,1.421-3.956,3.523-4.12l562.728-43.986c2.102-0.164,3.956,1.421,4.12,3.523l1.904,24.354
						C2333.012,1718.224,2331.427,1720.078,2329.325,1720.243z"/>
				</g>
			</g>
			<g>
				
					<linearGradient id="SVGID_00000114790364627548874520000001255006193008147376_" gradientUnits="userSpaceOnUse" x1="3161.0449" y1="796.9243" x2="3177.8369" y2="1561.9008" gradientTransform="matrix(1.0459 -0.0869 0.0828 0.9966 -898.0639 164.1957)">
					<stop  offset="0" style="stop-color:#53D8FF"/>
					<stop  offset="1" style="stop-color:#3840F7"/>
				</linearGradient>
				<path style="fill:url(#SVGID_00000114790364627548874520000001255006193008147376_);" d="M3197.857,1218.431l-10.967,4.365
					l-190.099-123.065l-989.342,75.911l-137.759,7.864l5.622,21.552c0.877,2.567,147.805,115.653,147.805,115.653l-133.601,138.036
					l4.544,15.241c0.539,1.808,2.345,2.992,4.315,2.828l127.292-10.573l990.44-82.271c2.771-0.23,5.4-1.296,7.506-3.042
					l170.29-141.22c2.232-1.851,3.546-4.512,3.614-7.321L3197.857,1218.431z"/>
				
					<linearGradient id="SVGID_00000011745849149178609260000004464374140748996280_" gradientUnits="userSpaceOnUse" x1="3187.7026" y1="1178.0248" x2="3131.5701" y2="1880.3044" gradientTransform="matrix(1.0459 -0.0869 0.0828 0.9966 -898.0639 164.1957)">
					<stop  offset="0" style="stop-color:#53D8FF"/>
					<stop  offset="1" style="stop-color:#3840F7"/>
				</linearGradient>
				<path style="fill:url(#SVGID_00000011745849149178609260000004464374140748996280_);" d="M2986.597,1089.295L1871.748,1181.9
					c-1.835,0.152-2.521,2.484-1.061,3.606l144.713,111.178c1.966,1.511,2.296,4.321,0.732,6.245l-124.963,153.786
					c-0.621,0.764-0.022,1.899,0.959,1.818l1117.873-92.856c3.188-0.265,6.218-1.465,8.674-3.436l177.682-142.604
					c0.734-0.589,0.669-1.727-0.128-2.228l-199.833-125.751C2993.51,1089.839,2990.058,1089.007,2986.597,1089.295z"/>
				<g>
					<path style="opacity:0.56;fill:#FFFFFF;" d="M2971.07,1197.841l-554.05,43.307c-2.102,0.164-3.956-1.421-4.12-3.523
						l-2.122-27.147c-0.164-2.102,1.421-3.956,3.523-4.12l554.05-43.307c2.102-0.164,3.956,1.421,4.12,3.523l2.122,27.147
						C2974.757,1195.822,2973.172,1197.677,2971.07,1197.841z"/>
					<path style="opacity:0.56;fill:#FFFFFF;" d="M2971.84,1290.128l-549.623,42.961c-2.102,0.164-3.956-1.421-4.121-3.523
						l-1.981-25.348c-0.164-2.102,1.421-3.956,3.523-4.12l549.623-42.961c2.102-0.164,3.956,1.421,4.12,3.523l1.981,25.348
						C2975.527,1288.109,2973.941,1289.963,2971.84,1290.128z"/>
				</g>
			</g>
			<g>
				
					<linearGradient id="SVGID_00000119105466619202057550000006895465018022742957_" gradientUnits="userSpaceOnUse" x1="2361.2188" y1="770.726" x2="2246.0754" y2="1301.4641">
					<stop  offset="0" style="stop-color:#A737D5"/>
					<stop  offset="1" style="stop-color:#EF497A"/>
				</linearGradient>
				<circle style="fill:url(#SVGID_00000119105466619202057550000006895465018022742957_);" cx="2336.113" cy="886.448" r="39.58"/>
				
					<linearGradient id="SVGID_00000057859387418937658240000010277937018245155509_" gradientUnits="userSpaceOnUse" x1="2336.823" y1="789.5554" x2="2339.3867" y2="906.3478">
					<stop  offset="0" style="stop-color:#A737D5"/>
					<stop  offset="1" style="stop-color:#EF497A"/>
				</linearGradient>
				
					<circle style="fill:url(#SVGID_00000057859387418937658240000010277937018245155509_);" cx="2338.812" cy="880.151" r="24.288"/>
			</g>
			<g>
				
					<linearGradient id="SVGID_00000173843498691502481880000005527050805356075430_" gradientUnits="userSpaceOnUse" x1="2354.0256" y1="1177.011" x2="2243.1216" y2="1688.208">
					<stop  offset="0" style="stop-color:#A737D5"/>
					<stop  offset="1" style="stop-color:#EF497A"/>
				</linearGradient>
				
					<circle style="fill:url(#SVGID_00000173843498691502481880000005527050805356075430_);" cx="2329.844" cy="1288.472" r="38.123"/>
				
					<linearGradient id="SVGID_00000085959936409458298830000014114786095523448234_" gradientUnits="userSpaceOnUse" x1="2330.5278" y1="1195.1469" x2="2332.9973" y2="1307.6393">
					<stop  offset="0" style="stop-color:#A737D5"/>
					<stop  offset="1" style="stop-color:#EF497A"/>
				</linearGradient>
				
					<circle style="fill:url(#SVGID_00000085959936409458298830000014114786095523448234_);" cx="2332.443" cy="1282.407" r="23.394"/>
			</g>
			<g>
				
					<linearGradient id="SVGID_00000089555779905373446470000012726801152260908434_" gradientUnits="userSpaceOnUse" x1="2357.3076" y1="1533.2655" x2="2242.0959" y2="2064.3188">
					<stop  offset="0" style="stop-color:#A737D5"/>
					<stop  offset="1" style="stop-color:#EF497A"/>
				</linearGradient>
				
					<circle style="fill:url(#SVGID_00000089555779905373446470000012726801152260908434_);" cx="2332.187" cy="1649.056" r="39.604"/>
				
					<linearGradient id="SVGID_00000088833660343328559640000003841433019300337542_" gradientUnits="userSpaceOnUse" x1="2332.8975" y1="1552.106" x2="2335.4626" y2="1668.9678">
					<stop  offset="0" style="stop-color:#A737D5"/>
					<stop  offset="1" style="stop-color:#EF497A"/>
				</linearGradient>
				
					<circle style="fill:url(#SVGID_00000088833660343328559640000003841433019300337542_);" cx="2334.887" cy="1642.756" r="24.302"/>
			</g>
			<g>
				<path style="opacity:0.56;fill:#FFFFFF;" d="M2217.581,823.891l-507.005-80c-2.083-0.329-3.518-2.301-3.189-4.384l3.834-24.299
					c0.329-2.083,2.301-3.518,4.384-3.189l507.005,80c2.082,0.329,3.518,2.301,3.189,4.384l-3.834,24.299
					C2221.636,822.784,2219.664,824.219,2217.581,823.891z"/>
				<path style="opacity:0.56;fill:#FFFFFF;" d="M2198.445,907.052l-502.949-79.36c-2.083-0.329-3.518-2.301-3.189-4.384
					l3.574-22.651c0.329-2.083,2.301-3.518,4.384-3.189l502.949,79.36c2.083,0.329,3.518,2.301,3.189,4.384l-3.574,22.651
					C2202.5,905.945,2200.528,907.38,2198.445,907.052z"/>
			</g>
		</g>
		<g>
			<g>
				
					<linearGradient id="SVGID_00000012438591152069979160000006326983364162686892_" gradientUnits="userSpaceOnUse" x1="435.1211" y1="1907.9109" x2="-284.1887" y2="4677.2485" gradientTransform="matrix(-1 0 0 1 1601.9641 0)">
					<stop  offset="0" style="stop-color:#CB236D"/>
					<stop  offset="1" style="stop-color:#4C246D"/>
				</linearGradient>
				<path style="fill:url(#SVGID_00000012438591152069979160000006326983364162686892_);" d="M1486.161,1951.243
					c-313.867-8.181-661.073,76.126-661.073,76.126c-82.66,456.133-46.293,972.067-32.22,1128.324
					c2.635,29.263,24.524,53.024,53.422,58.335c162.193,29.808,333.238,11.726,419.283-1.371
					c33.474-5.095,60.24-30.37,67.352-63.474c56.857-264.659,219.289-848.54,219.289-848.54
					c153.559-17.572,280.332-60.619,384.941-118.129c-78.49-92.758-114.79-210.179-130.379-279.533
					C1695.455,1936.413,1582.969,1953.767,1486.161,1951.243z"/>
				
					<linearGradient id="SVGID_00000012472617182227802050000003842956999933392052_" gradientUnits="userSpaceOnUse" x1="12765.9512" y1="1761.1102" x2="13373.0977" y2="1761.1102" gradientTransform="matrix(1 0.0095 -0.0095 1 -10941.6475 -63.4747)">
					<stop  offset="0" style="stop-color:#F9B776"/>
					<stop  offset="1" style="stop-color:#F47960"/>
				</linearGradient>
				<path style="fill:url(#SVGID_00000012472617182227802050000003842956999933392052_);" d="M2417.826,1497.707
					c-30.482-37.542-59.108-35.913-59.108-35.913c-48.057,194.694-302.358,366.222-551.944,441.186
					c15.589,69.354,51.89,186.776,130.379,279.533C2352.357,1954.246,2417.826,1497.707,2417.826,1497.707z"/>
			</g>
			<g>
				
					<linearGradient id="SVGID_00000119831372994406153040000001179088664434018464_" gradientUnits="userSpaceOnUse" x1="-2791.1184" y1="1664.2058" x2="-2383.7168" y2="2591.1362" gradientTransform="matrix(-1 -0.0095 -0.0095 1 -494.9213 36.7017)">
					<stop  offset="0" style="stop-color:#F9B776"/>
					<stop  offset="1" style="stop-color:#F47960"/>
				</linearGradient>
				<path style="fill:url(#SVGID_00000119831372994406153040000001179088664434018464_);" d="M2410.251,1507.106
					c3.129,10.289-34.386,25.553-55.987-16.61c-0.575-20.115-11.983-106.371,0.188-122.638
					c64.823-86.629,189.929-194.807,189.929-194.807c20.771,20.89,3.303,41.049,3.303,41.049l-60.784,62.123
					c12.373,22.867,27.545,42.217,34.479,69.802c5.251,20.889,1.705,43.126-9.001,61.99c-10.746,18.932-25.396,43.535-39.206,62.767
					C2447.031,1507.182,2410.251,1507.106,2410.251,1507.106z"/>
				
					<linearGradient id="SVGID_00000064325298861402339810000009230567398019309480_" gradientUnits="userSpaceOnUse" x1="13370.1875" y1="1356.4373" x2="13540.1826" y2="1095.0703" gradientTransform="matrix(1 0.0095 -0.0095 1 -10941.6475 -63.4747)">
					<stop  offset="0" style="stop-color:#F9B776"/>
					<stop  offset="1" style="stop-color:#F47960"/>
				</linearGradient>
				<path style="fill:url(#SVGID_00000064325298861402339810000009230567398019309480_);" d="M2460.19,1316.651l-55.289,45.971
					l-17.662,46.125l48.382,54.714c0,0,17.318-91.691,29.728-111.454C2477.758,1332.246,2471.513,1322.573,2460.19,1316.651z"/>
			</g>
			
				<linearGradient id="SVGID_00000176031395918403081340000016875962095203160465_" gradientUnits="userSpaceOnUse" x1="982.7836" y1="2050.8362" x2="279.3068" y2="4759.2168" gradientTransform="matrix(-1 0 0 1 1601.9641 0)">
				<stop  offset="0" style="stop-color:#CB236D"/>
				<stop  offset="1" style="stop-color:#4C246D"/>
			</linearGradient>
			<path style="fill:url(#SVGID_00000176031395918403081340000016875962095203160465_);" d="M942.592,2332.48l-117.504-305.112
				c0,0-295.118,196.429-345.749,448.567c55.365,4.609,156.042,19.982,254.247,70.75
				C756.409,2427.62,942.592,2332.48,942.592,2332.48z"/>
			
				<linearGradient id="SVGID_00000053516975659025289840000010397856004853394084_" gradientUnits="userSpaceOnUse" x1="11437.3916" y1="2626.821" x2="12205.7178" y2="2626.821" gradientTransform="matrix(1 0.0095 -0.0095 1 -10941.6475 -63.4747)">
				<stop  offset="0" style="stop-color:#F9B776"/>
				<stop  offset="1" style="stop-color:#F47960"/>
			</linearGradient>
			<path style="fill:url(#SVGID_00000053516975659025289840000010397856004853394084_);" d="M1196.102,2620.946
				c0,0-330.983,182.911-440.548,22.984c-22.746-33.208-27.949-66.044-21.968-97.244c-98.205-50.768-198.883-66.141-254.247-70.75
				c-15.264,76.012-8.352,157.076,35.614,239.359c191.179,357.788,723.942-12.765,723.942-12.765L1196.102,2620.946z"/>
			
				<linearGradient id="SVGID_00000112599252010745764160000012756911179915510430_" gradientUnits="userSpaceOnUse" x1="12027.3867" y1="1805.4487" x2="12331.1699" y2="1805.4487" gradientTransform="matrix(1 0.0095 -0.0095 1 -10941.6475 -63.4747)">
				<stop  offset="0" style="stop-color:#F9B776"/>
				<stop  offset="1" style="stop-color:#F47960"/>
			</linearGradient>
			<path style="fill:url(#SVGID_00000112599252010745764160000012756911179915510430_);" d="M1170.621,1693.357l-102.64,287.905
				c-1.7,4.768,0.215,10.086,4.625,12.58c27.084,15.312,124.761,59.76,243.69-14.06c12.39-7.69,20.895-20.345,22.902-34.787
				l34.729-249.698L1170.621,1693.357z"/>
			<g>
				
					<linearGradient id="SVGID_00000086654615500942787690000017123180455893989046_" gradientUnits="userSpaceOnUse" x1="3820.8892" y1="6648.8306" x2="3707.3699" y2="6274.4165" gradientTransform="matrix(0.7523 -0.6588 0.6588 0.7523 -5808.2441 -818.1582)">
					<stop  offset="0" style="stop-color:#F9B776"/>
					<stop  offset="1" style="stop-color:#F47960"/>
				</linearGradient>
				<path style="fill:url(#SVGID_00000086654615500942787690000017123180455893989046_);" d="M1390.504,1427.942
					c0,0,107.715,207.511,92.859,290.779c-14.854,83.266-150.732,75.981-268.788,7.114l-80.82-223.728L1390.504,1427.942z"/>
				
					<linearGradient id="SVGID_00000003793016421551079490000007849877968445766805_" gradientUnits="userSpaceOnUse" x1="3718.48" y1="5996.4697" x2="3813.437" y2="6538.0762" gradientTransform="matrix(0.7523 -0.6588 0.6588 0.7523 -5808.2441 -818.1582)">
					<stop  offset="0" style="stop-color:#2B3582"/>
					<stop  offset="1" style="stop-color:#150E42"/>
				</linearGradient>
				<path style="fill:url(#SVGID_00000003793016421551079490000007849877968445766805_);" d="M1220.866,1616.402
					c4.844-2.091,6.68-7.979,3.834-12.421c-8.661-13.508-24.871-41.052-29.899-65.08c0,0-19.596-12.816,50.464-28.88
					c70.063-16.064,174.555-41.041,197.032-100.331c21.916-57.809-32.821-204.232-123.48-88.845
					c-3.448,4.391-10.123,4.425-13.484-0.035c-14.496-19.246-52.713-59.274-106.526-35.742
					c-50.358,22.022-56.357,58.711-55.845,77.239c0.151,5.449-4.761,9.639-10.106,8.567c-25.305-5.078-86.104-9.811-115.097,52.329
					c-23.879,51.182-8.954,80.429,4.755,94.791c4.442,4.654,2.403,12.229-3.766,14.051c-16.712,4.943-38.359,18.866-36.579,57.923
					c2.464,53.995,62.846,49.816,80.047,47.518c2.818-0.374,5.646,0.618,7.531,2.745c14.575,16.44,80.278,86.286,152.025,95.314
					c6.213,0.782,11.092-5.313,9.111-11.254l-30.223-90.654c-1.404-4.21,0.649-8.795,4.722-10.554L1220.866,1616.402z"/>
				
					<linearGradient id="SVGID_00000097464811761475963930000008324556904183411350_" gradientUnits="userSpaceOnUse" x1="3704.8467" y1="6647.0825" x2="3602.7114" y2="6310.2163" gradientTransform="matrix(0.7523 -0.6588 0.6588 0.7523 -5808.2441 -818.1582)">
					<stop  offset="0" style="stop-color:#F9B776"/>
					<stop  offset="1" style="stop-color:#F47960"/>
				</linearGradient>
				<path style="fill:url(#SVGID_00000097464811761475963930000008324556904183411350_);" d="M1233.239,1629.346
					c0,0-77.584-54.325-83.721-9.258c-6.134,45.066,69.7,66.028,107.521,49.564L1233.239,1629.346z"/>
			</g>
			<g>
				<g>
					
						<linearGradient id="SVGID_00000005245557705335615200000002985364095359949194_" gradientUnits="userSpaceOnUse" x1="12118.4961" y1="2183.8054" x2="12542.457" y2="3950.3135" gradientTransform="matrix(1 0 0 1 -10673.3584 0)">
						<stop  offset="0" style="stop-color:#2B3582"/>
						<stop  offset="1" style="stop-color:#150E42"/>
					</linearGradient>
					<path style="fill:url(#SVGID_00000005245557705335615200000002985364095359949194_);" d="M1128.459,2910.016l180.3-629.648
						c2.047-7.147,8.145-12.36,15.53-13.221c32.667-3.811,127.325-14.513,236.616-23.756
						c131.644-11.136,284.524-20.157,375.878-12.482c12.988,1.09,20.836,14.828,15.06,26.511
						c-51.949,105.102-265.64,532.631-372.65,672.685c-3.546,4.64-9.028,7.353-14.867,7.298l-418.326-3.892
						C1133.827,2933.396,1125.109,2921.719,1128.459,2910.016z"/>
					
						<linearGradient id="SVGID_00000142144138485616192300000000845394548274861444_" gradientUnits="userSpaceOnUse" x1="11827.9863" y1="2651.1406" x2="12068.1924" y2="2651.1406" gradientTransform="matrix(1 0 0 1 -10673.3584 0)">
						<stop  offset="0" style="stop-color:#F9B776"/>
						<stop  offset="1" style="stop-color:#F47960"/>
					</linearGradient>
					<path style="fill:url(#SVGID_00000142144138485616192300000000845394548274861444_);" d="M1172.021,2757.893
						c0,0-25.117-103.276-14.985-139.916c10.131-36.641,29.761-83.75,95.189-73.281c65.43,10.468,142.61,38.031,142.61,38.031
						s-3.899,47.725-53.626,32.328l30.838,23.86c0,0-4.408,38.213-46.411,17.798l28.681,31.643c0,0-18.04,31.385-48.942,11.256
						C1274.471,2679.481,1259.657,2770.329,1172.021,2757.893z"/>
				</g>
				
					<linearGradient id="SVGID_00000078045778647711481280000004938630217453650834_" gradientUnits="userSpaceOnUse" x1="-14.0376" y1="2372.2173" x2="49.3228" y2="2636.2192" gradientTransform="matrix(-1 0 0 1 1601.9641 0)">
					<stop  offset="0" style="stop-color:#53D8FF"/>
					<stop  offset="1" style="stop-color:#3840F7"/>
				</linearGradient>
				<path style="fill:url(#SVGID_00000078045778647711481280000004938630217453650834_);" d="M1548.883,2431.354
					c0,29.231,23.696,52.925,52.927,52.925c29.229,0,52.925-23.694,52.925-52.925c0-29.232-23.696-52.927-52.925-52.927
					C1572.579,2378.427,1548.883,2402.122,1548.883,2431.354z"/>
				<path style="fill:#FFFFFF;" d="M1329.161,2466.242l36.709-124.528c4.503-15.292,16.8-26.773,32.082-29.968
					c115.057-24.005,429.974-29.096,433.141-29.143l-0.209-14.069c-12.988,0.199-319.44,5.167-435.805,29.447
					c-20.364,4.247-36.728,19.483-42.71,39.752l-36.709,124.528L1329.161,2466.242z"/>
			</g>
		</g>
		<g>
			
				<linearGradient id="SVGID_00000167366283253382944340000008551256863303265687_" gradientUnits="userSpaceOnUse" x1="2047.4717" y1="3297.6287" x2="2832.1113" y2="2369.1396">
				<stop  offset="0" style="stop-color:#A737D5"/>
				<stop  offset="1" style="stop-color:#EF497A"/>
			</linearGradient>
			<path style="fill:url(#SVGID_00000167366283253382944340000008551256863303265687_);" d="M2387.478,3212.605
				c-3.713-0.627-6.989-2.699-9.135-5.793c-31.272-45.09-257.888-397.378,68.456-702.335
				c309.803-289.5,447.862-346.56,471.583-521.717c2.77-20.455,30.672-24.493,39.209-5.7
				c63.799,140.453,159.768,466.507-198.749,667.033c-395.483,221.202-371.874,478.305-355.438,551.679
				C2405.576,3205.471,2397.278,3214.26,2387.478,3212.605L2387.478,3212.605z"/>
			
				<linearGradient id="SVGID_00000075861807998937180910000015235509705395299747_" gradientUnits="userSpaceOnUse" x1="2667.8445" y1="3225.2966" x2="2911.9543" y2="2192.1882">
				<stop  offset="0" style="stop-color:#A737D5"/>
				<stop  offset="1" style="stop-color:#EF497A"/>
			</linearGradient>
			<path style="fill:url(#SVGID_00000075861807998937180910000015235509705395299747_);" d="M2435.39,3220.695
				c-8.79-1.484-15.568-8.516-16.647-17.366c-7.346-60.234-22.928-284.933,143.973-339.049
				c183.735-59.573,324.97,114.286,462.726-13.851c7.249-6.743,18.868-0.293,16.879,9.405
				c-14.104,68.785-72.156,227.297-308.695,252c-253.179,26.44-282.471,54.451-278.529,90.486
				C2456.313,3213.428,2446.41,3222.555,2435.39,3220.695L2435.39,3220.695z"/>
			<path style="opacity:0.47;fill:#FFFFFF;" d="M2901.885,2161.046c-3.763,12.57-8.584,24.504-14.104,36.223
				c-5.487,11.707-11.542,23.145-18.058,34.319c-6.506,11.18-13.464,22.112-21.003,32.636
				c-7.491,10.553-15.285,20.913-23.598,30.847c-33.044,39.945-72.232,74.688-114.964,103.989
				c-21.335,14.622-43.887,27.839-66.476,39.933c-22.252,11.968-43.709,25.454-64.312,40.142
				c-41.186,29.409-78.976,63.654-112.21,101.852c-33.256,38.182-61.743,80.492-84.389,125.733
				c-22.686,45.214-39.054,93.646-47.872,143.515c-8.852,49.862-10.145,101.049-4.365,151.503
				c5.676,50.512,18.857,100.091,36.879,147.792c0.523,1.364-0.16,2.894-1.525,3.417c-1.334,0.512-2.835-0.147-3.387-1.454
				c-19.746-47.457-34.082-97.414-41.001-148.618c-3.571-25.575-5.208-51.447-4.958-77.319c0.411-25.863,2.53-51.744,6.805-77.292
				c8.337-51.137,24.442-100.988,47.07-147.628c22.634-46.671,51.909-89.972,85.685-129.221
				c33.843-39.226,72.332-74.401,114.379-104.692c21.035-15.128,42.969-29.044,65.775-41.435l16.786-9.162
				c5.595-2.964,11.04-6.187,16.485-9.41l8.179-4.814l8.022-5.068l8.022-5.067l7.873-5.293
				c20.958-14.155,41.213-29.378,60.285-46.001c19.088-16.589,37.264-34.277,53.91-53.355c16.85-18.902,32.176-39.154,46.109-60.341
				c13.785-21.211,26.214-43.679,35.335-67.141l0.06-0.156c0.482-1.243,1.882-1.859,3.125-1.376
				C2901.628,2158.561,2902.239,2159.854,2901.885,2161.046z"/>
			<path style="opacity:0.47;fill:#FFFFFF;" d="M2427.792,3179.667c0.412-2.099,0.345-4.135,0.332-6.198l0.031-6.165
				c0.051-4.109,0.156-8.215,0.303-12.32c0.31-8.208,0.785-16.41,1.44-24.599c1.323-16.376,3.314-32.705,6.097-48.914
				c5.645-32.358,14.189-64.488,28.36-94.418c7.059-14.943,15.689-29.233,26.159-42.161c10.417-12.955,22.997-24.288,37.236-33.077
				c14.29-8.689,30.263-14.683,46.749-17.46c8.232-1.428,16.577-2.235,24.913-2.262c8.342-0.174,16.664,0.415,24.919,1.377
				c8.301,1.016,16.307,2.473,24.412,3.834l24.23,4.284c16.138,2.938,32.243,6.046,48.32,9.256
				c32.161,6.377,64.187,13.368,96.335,19.285c16.074,2.922,32.195,5.537,48.377,7.163c16.167,1.583,32.451,2.162,48.46,0.309
				c16.001-1.732,31.662-6.265,45.794-13.926c14.183-7.59,26.713-18.086,37.852-29.843c0.816-0.865,2.18-0.905,3.045-0.088
				c0.858,0.811,0.899,2.164,0.101,3.03c-11.225,12.125-23.999,23.11-38.663,31.181c-14.608,8.145-30.954,13.073-47.487,15.05
				c-16.569,1.97-33.228,1.4-49.645-0.158c-16.429-1.605-32.687-4.199-48.853-7.092c-32.321-5.857-64.347-12.757-96.482-19.036
				c-32.083-6.276-64.404-12.325-96.558-17.113c-8.001-0.99-16.056-1.618-24.1-1.505c-8.047-0.034-16.074,0.69-23.984,2.003
				c-15.844,2.553-31.135,8.175-44.894,16.4c-13.704,8.33-25.908,19.138-36.107,31.641c-10.253,12.467-18.772,26.37-25.835,40.975
				c-14.204,29.24-23.003,60.961-28.917,93.014c-2.92,16.058-5.059,32.265-6.535,48.533c-0.733,8.135-1.285,16.287-1.675,24.446
				c-0.184,4.08-0.331,8.161-0.42,12.243l-0.093,6.121c-0.02,2.033-0.07,4.093,0.435,6.089c0.256,1.002-0.35,2.023-1.352,2.278
				c-1.004,0.256-2.024-0.35-2.279-1.352C2427.745,3180.216,2427.743,3179.927,2427.792,3179.667z"/>
		</g>
	</g>
</g>
</svg>
