<?xml version="1.0" encoding="utf-8"?>
<!-- Generator: Adobe Illustrator 27.5.0, SVG Export Plug-In . SVG Version: 6.00 Build 0)  -->
<svg version="1.1" xmlns="http://www.w3.org/2000/svg" xmlns:xlink="http://www.w3.org/1999/xlink" x="0px" y="0px"
	 viewBox="0 0 3710 3710" style="enable-background:new 0 0 3710 3710;" xml:space="preserve">
<g id="Background">
	<g>
		<g>
			<rect style="fill:#FFFFFF;" width="3710" height="3710"/>
		</g>
	</g>
</g>
<g id="Illustration">
	<g>
		<linearGradient id="SVGID_1_" gradientUnits="userSpaceOnUse" x1="3479.5432" y1="3292.8938" x2="1397.2054" y2="1470.8495">
			<stop  offset="0" style="stop-color:#B37CFF"/>
			<stop  offset="1" style="stop-color:#F895E7"/>
		</linearGradient>
		<path style="opacity:0.3;fill:url(#SVGID_1_);" d="M3125.654,2346.625c-269.122,633.674-986,988.662-1607.679,892.906
			c-101.16-15.582-378.492-61.997-624.031-280.967C421.265,2537.03,320.179,1702.338,701.475,1114.111
			c277.516-428.126,774.993-670.816,1247.694-658.677c101.82,2.615,492.035,18.73,834.967,301.504
			c50.37,41.534,161.466,140.23,261.59,296.805C3280.835,1421.411,3301.044,1933.652,3125.654,2346.625z"/>
		<g>
			<g>
				<g>
					
						<linearGradient id="SVGID_00000053518984261784495530000008758591687493509769_" gradientUnits="userSpaceOnUse" x1="2115.0918" y1="1274.4501" x2="2585.3298" y2="714.2923">
						<stop  offset="0" style="stop-color:#53D8FF"/>
						<stop  offset="1" style="stop-color:#3840F7"/>
					</linearGradient>
					
						<circle style="fill:url(#SVGID_00000053518984261784495530000008758591687493509769_);" cx="2340.051" cy="1006.474" r="251.457"/>
					
						<linearGradient id="SVGID_00000026867648017380718220000008092448085089829524_" gradientUnits="userSpaceOnUse" x1="2514.0203" y1="582.6218" x2="2108.6436" y2="1570.2662">
						<stop  offset="0" style="stop-color:#53D8FF"/>
						<stop  offset="1" style="stop-color:#3840F7"/>
					</linearGradient>
					
						<circle style="fill:url(#SVGID_00000026867648017380718220000008092448085089829524_);" cx="2340.051" cy="1006.474" r="243.095"/>
					<path style="fill:#FFFFFF;" d="M2115.959,997.133c-0.046,0-0.092,0-0.137-0.003c-1.417-0.075-2.504-1.284-2.431-2.699
						c0.499-9.551,1.609-19.141,3.3-28.509c0.251-1.395,1.577-2.323,2.983-2.072c1.396,0.253,2.322,1.588,2.07,2.985
						c-1.65,9.154-2.735,18.53-3.224,27.862C2118.45,996.07,2117.316,997.133,2115.959,997.133z"/>
					<path style="fill:#FFFFFF;" d="M2139.595,908.059c-0.389,0-0.784-0.088-1.155-0.276c-1.267-0.64-1.774-2.185-1.135-3.449
						c38.866-77,116.553-124.834,202.746-124.834c13.746,0,27.521,1.239,40.943,3.687c1.396,0.253,2.321,1.59,2.067,2.987
						c-0.253,1.397-1.586,2.33-2.987,2.064c-13.119-2.39-26.584-3.601-40.022-3.601c-84.242,0-160.173,46.753-198.161,122.01
						C2141.438,907.542,2140.534,908.059,2139.595,908.059z"/>
					
						<ellipse transform="matrix(0.7071 -0.7071 0.7071 0.7071 -28.4933 1954.7517)" style="opacity:0.75;fill:#FFFFFF;" cx="2345.347" cy="1011.77" rx="205.75" ry="205.75"/>
				</g>
			</g>
			<g>
				
					<linearGradient id="SVGID_00000142142895692448442820000010874929390217750972_" gradientUnits="userSpaceOnUse" x1="2576.3401" y1="356.6364" x2="2170.9631" y2="1344.282">
					<stop  offset="0" style="stop-color:#53D8FF"/>
					<stop  offset="1" style="stop-color:#3840F7"/>
				</linearGradient>
				<path style="fill:url(#SVGID_00000142142895692448442820000010874929390217750972_);" d="M2405.658,930.421
					c0,36.042-29.218,74.952-65.26,74.952s-65.26-38.91-65.26-74.952c0-36.042,29.218-61.612,65.26-61.612
					S2405.658,894.378,2405.658,930.421z"/>
				
					<linearGradient id="SVGID_00000169521958195275917000000017621522356245177264_" gradientUnits="userSpaceOnUse" x1="2629.2327" y1="378.3464" x2="2223.8552" y2="1365.9926">
					<stop  offset="0" style="stop-color:#53D8FF"/>
					<stop  offset="1" style="stop-color:#3840F7"/>
				</linearGradient>
				<path style="fill:url(#SVGID_00000169521958195275917000000017621522356245177264_);" d="M2259.409,1144.139h159.311
					c16.77,0,31.618-10.839,36.728-26.811l8.573-26.794c6.277-19.618-3.928-40.858-23.273-47.932
					c-64.834-23.705-131.874-20.664-200.55,2.188c-19.239,6.402-29.915,26.98-24.607,46.55l6.601,24.333
					C2226.75,1132.474,2242.001,1144.139,2259.409,1144.139z"/>
			</g>
		</g>
		<g>
			
				<linearGradient id="SVGID_00000061443526686360960680000010822853184975395764_" gradientUnits="userSpaceOnUse" x1="1353.3403" y1="3396.2039" x2="1698.4514" y2="2995.6292">
				<stop  offset="0" style="stop-color:#FDF53F"/>
				<stop  offset="1" style="stop-color:#D93C65"/>
			</linearGradient>
			
				<circle style="fill:url(#SVGID_00000061443526686360960680000010822853184975395764_);" cx="1705.422" cy="2987.538" r="257.293"/>
			
				<linearGradient id="SVGID_00000068635831865428277400000004820110023613228476_" gradientUnits="userSpaceOnUse" x1="1893.4613" y1="2703.4646" x2="872.9595" y2="4245.1519">
				<stop  offset="0" style="stop-color:#FDF53F"/>
				<stop  offset="1" style="stop-color:#D93C65"/>
			</linearGradient>
			
				<circle style="fill:url(#SVGID_00000068635831865428277400000004820110023613228476_);" cx="1705.422" cy="2987.538" r="248.738"/>
			<path style="fill:#FFFFFF;" d="M1500.313,2886.948c-0.414,0-0.835-0.094-1.231-0.294c-1.35-0.682-1.891-2.328-1.209-3.675
				c39.786-78.824,119.314-127.789,207.549-127.789c14.083,0,28.185,1.269,41.914,3.771c1.487,0.27,2.473,1.695,2.202,3.184
				c-0.27,1.486-1.702,2.491-3.183,2.199c-13.406-2.443-27.179-3.68-40.933-3.68c-86.156,0-163.812,47.814-202.663,124.78
				C1502.278,2886.397,1501.314,2886.948,1500.313,2886.948z"/>
			
				<ellipse transform="matrix(0.7071 -0.7071 0.7071 0.7071 -1615.2467 2086.365)" style="opacity:0.78;fill:#FFFFFF;" cx="1710.842" cy="2992.958" rx="210.526" ry="210.526"/>
			<g>
				
					<linearGradient id="SVGID_00000092422742502331222350000004415784042624067712_" gradientUnits="userSpaceOnUse" x1="1863.0189" y1="2747.6379" x2="1319.6217" y2="3659.9119">
					<stop  offset="0" style="stop-color:#FDF53F"/>
					<stop  offset="1" style="stop-color:#D93C65"/>
				</linearGradient>
				<path style="fill:url(#SVGID_00000092422742502331222350000004415784042624067712_);" d="M1690.182,3149.465v-22.903
					c-23.876-0.956-47.493-6.592-64.267-13.935c-5.99-2.621-9.043-9.344-7.323-15.652l5.82-21.334
					c2.134-7.826,10.646-11.875,18.128-8.739c16.639,6.975,37.183,12.495,59.337,12.495c22.997,0,40.148-7.798,40.148-23.779
					c0-14.422-13.252-22.996-45.215-31.571c-45.605-12.474-78.349-32.354-78.349-72.502c0-36.252,26.507-63.926,72.502-71.331
					v-22.907c0-7.37,5.975-13.345,13.345-13.345h13.457c7.37,0,13.346,5.975,13.346,13.345v20.566
					c22.094,0.885,38.177,4.663,50.94,9.148c6.539,2.297,10.113,9.341,8.299,16.031l-5.352,19.73
					c-2.063,7.609-10.195,11.776-17.568,8.988c-11.751-4.443-28.365-9.07-49.961-9.07c-27.286,0-35.08,11.302-35.08,21.438
					c0,12.473,16.37,21.048,51.841,31.964c50.674,15.201,71.722,36.249,71.722,74.058c0,34.692-25.726,65.876-75.619,73.672v25.632
					c0,7.371-5.975,13.346-13.345,13.346h-13.459C1696.157,3162.811,1690.182,3156.836,1690.182,3149.465z"/>
			</g>
		</g>
		<g>
			
				<linearGradient id="SVGID_00000086650296035130741200000001837523248697785766_" gradientUnits="userSpaceOnUse" x1="2368.2715" y1="2996.0286" x2="2702.7046" y2="2607.8481" gradientTransform="matrix(1 -0.0019 0.0019 1 1.4571 -1.4243)">
				<stop  offset="0" style="stop-color:#FDF53F"/>
				<stop  offset="1" style="stop-color:#D93C65"/>
			</linearGradient>
			
				<circle style="fill:url(#SVGID_00000086650296035130741200000001837523248697785766_);" cx="2715.857" cy="2593.435" r="249.333"/>
			
				<linearGradient id="SVGID_00000165218696266884457300000012853358545860121762_" gradientUnits="userSpaceOnUse" x1="2891.6807" y1="2324.7231" x2="1902.7539" y2="3818.7097" gradientTransform="matrix(1 -0.0019 0.0019 1 1.4571 -1.4243)">
				<stop  offset="0" style="stop-color:#FDF53F"/>
				<stop  offset="1" style="stop-color:#D93C65"/>
			</linearGradient>
			
				<circle style="fill:url(#SVGID_00000165218696266884457300000012853358545860121762_);" cx="2715.856" cy="2593.435" r="241.042"/>
			<path style="fill:#FFFFFF;" d="M2516.905,2496.344c-0.402,0-0.81-0.089-1.194-0.282c-1.309-0.658-1.837-2.253-1.179-3.559
				c38.406-76.46,115.382-124.06,200.886-124.227c13.648-0.027,27.315,1.177,40.624,3.576c1.442,0.259,2.4,1.637,2.141,3.081
				c-0.259,1.441-1.644,2.417-3.081,2.138c-12.997-2.342-26.344-3.515-39.673-3.489c-83.491,0.162-158.654,46.643-196.157,121.301
				C2518.808,2495.806,2517.875,2496.342,2516.905,2496.344z"/>
			
				<ellipse transform="matrix(0.7071 -0.7071 0.7071 0.7071 -1040.5448 2685.2563)" style="opacity:0.78;fill:#FFFFFF;" cx="2721.119" cy="2598.677" rx="204.012" ry="204.012"/>
			<g>
				
					<linearGradient id="SVGID_00000160158674416621677610000001124170427355034507_" gradientUnits="userSpaceOnUse" x1="2862.1777" y1="2367.5352" x2="2335.605" y2="3251.5637" gradientTransform="matrix(1 -0.0019 0.0019 1 1.4571 -1.4243)">
					<stop  offset="0" style="stop-color:#FDF53F"/>
					<stop  offset="1" style="stop-color:#D93C65"/>
				</linearGradient>
				<path style="fill:url(#SVGID_00000160158674416621677610000001124170427355034507_);" d="M2701.394,2750.38l-0.043-22.194
					c-23.139-0.882-46.036-6.299-62.305-13.382c-5.809-2.529-8.781-9.038-7.125-15.154l5.599-20.685
					c2.054-7.588,10.294-11.527,17.551-8.503c16.137,6.728,36.057,12.038,57.525,11.996c22.286-0.043,38.891-7.632,38.861-23.118
					c-0.027-13.976-12.885-22.26-43.875-30.509c-44.218-12.002-75.986-31.206-76.061-70.112
					c-0.068-35.13,25.566-61.998,70.124-69.26l-0.043-22.198c-0.014-7.142,5.765-12.944,12.907-12.958l13.041-0.025
					c7.142-0.014,12.944,5.765,12.958,12.907l0.039,19.93c21.412,0.815,37.004,4.446,49.381,8.769
					c6.341,2.213,9.817,9.033,8.072,15.52l-5.149,19.13c-1.985,7.377-9.857,11.431-17.008,8.743
					c-11.396-4.284-27.504-8.736-48.433-8.695c-26.441,0.051-33.973,11.018-33.954,20.84c0.023,12.087,15.903,20.366,50.297,30.877
					c49.135,14.635,69.571,34.992,69.643,71.632c0.065,33.619-24.806,63.886-73.14,71.535l0.048,24.839
					c0.014,7.143-5.765,12.945-12.907,12.958l-13.042,0.025C2707.208,2763.302,2701.407,2757.523,2701.394,2750.38z"/>
			</g>
		</g>
		<g>
			
				<linearGradient id="SVGID_00000036212368316177263650000013337080947103888773_" gradientUnits="userSpaceOnUse" x1="2226.2864" y1="2738.1006" x2="2660.0771" y2="2234.594" gradientTransform="matrix(0.9979 -0.0642 0.0642 0.9979 103.0641 -72.3153)">
				<stop  offset="0" style="stop-color:#FDF53F"/>
				<stop  offset="1" style="stop-color:#D93C65"/>
			</linearGradient>
			
				<circle style="fill:url(#SVGID_00000036212368316177263650000013337080947103888773_);" cx="2909.107" cy="1976.097" r="323.395"/>
			
				<linearGradient id="SVGID_00000149384335524624316800000008012130240808458112_" gradientUnits="userSpaceOnUse" x1="2905.197" y1="1867.3545" x2="1622.4662" y2="3805.1951" gradientTransform="matrix(0.9979 -0.0642 0.0642 0.9979 103.0641 -72.3153)">
				<stop  offset="0" style="stop-color:#FDF53F"/>
				<stop  offset="1" style="stop-color:#D93C65"/>
			</linearGradient>
			
				<circle style="fill:url(#SVGID_00000149384335524624316800000008012130240808458112_);" cx="2909.106" cy="1976.097" r="312.642"/>
			<path style="fill:#FFFFFF;" d="M2643.713,1866.486c-0.52,0.033-1.055-0.05-1.568-0.269c-1.748-0.746-2.56-2.768-1.814-4.512
				c43.54-102.083,139.34-169.923,250.014-177.047c17.665-1.137,35.456-0.684,52.878,1.346c1.887,0.218,3.24,1.925,3.02,3.815
				c-0.219,1.886-1.933,3.262-3.816,3.016c-17.013-1.982-34.387-2.422-51.64-1.311c-108.068,6.957-201.612,73.2-244.129,172.877
				C2646.133,1865.637,2644.969,1866.406,2643.713,1866.486z"/>
			
				<ellipse transform="matrix(0.7071 -0.7071 0.7071 0.7071 -547.6327 2642.814)" style="opacity:0.78;fill:#FFFFFF;" cx="2916.342" cy="1982.458" rx="264.613" ry="264.613"/>
			<g>
				
					<linearGradient id="SVGID_00000102510642508410648660000010306376125610058131_" gradientUnits="userSpaceOnUse" x1="2866.9294" y1="1922.8845" x2="2183.9128" y2="3069.5564" gradientTransform="matrix(0.9979 -0.0642 0.0642 0.9979 103.0641 -72.3153)">
					<stop  offset="0" style="stop-color:#FDF53F"/>
					<stop  offset="1" style="stop-color:#D93C65"/>
				</linearGradient>
				<path style="fill:url(#SVGID_00000102510642508410648660000010306376125610058131_);" d="M2903.066,2180.436l-1.849-28.728
					c-30.026,0.729-60.104-4.434-81.737-12.289c-7.724-2.805-12.097-10.99-10.449-19.042l5.577-27.23
					c2.045-9.989,12.395-15.754,22.032-12.425c21.434,7.406,47.649,12.67,75.437,10.881c28.846-1.857,49.729-13.022,48.438-33.068
					c-1.165-18.09-18.479-27.775-59.263-35.948c-58.21-11.965-100.887-34.257-104.128-84.616
					c-2.927-45.471,28.087-82.324,85.181-95.325l-1.85-28.733c-0.595-9.244,6.417-17.222,15.662-17.817l16.88-1.086
					c9.244-0.595,17.222,6.417,17.817,15.662l1.66,25.796c27.784-0.674,48.262,2.766,64.633,7.362
					c8.387,2.353,13.439,10.9,11.704,19.438l-5.119,25.18c-1.973,9.711-11.836,15.595-21.31,12.692
					c-15.099-4.625-36.311-9.087-63.4-7.343c-34.225,2.203-43.089,17.008-42.271,29.722c1.007,15.645,22.233,25.079,67.605,35.907
					c64.789,14.975,92.889,39.677,95.942,87.102c2.801,43.515-26.949,84.707-88.901,98.514l2.07,32.151
					c0.595,9.246-6.417,17.223-15.662,17.818l-16.882,1.087C2911.638,2196.694,2903.661,2189.682,2903.066,2180.436z"/>
			</g>
		</g>
		<g>
			
				<linearGradient id="SVGID_00000017484988507092234480000017489500356483539091_" gradientUnits="userSpaceOnUse" x1="1514.4453" y1="3014.7117" x2="1733.1371" y2="2760.8733">
				<stop  offset="0" style="stop-color:#FDF53F"/>
				<stop  offset="1" style="stop-color:#D93C65"/>
			</linearGradient>
			
				<circle style="fill:url(#SVGID_00000017484988507092234480000017489500356483539091_);" cx="1737.554" cy="2755.746" r="163.043"/>
			
				<linearGradient id="SVGID_00000115475559287690830780000007498522356236738188_" gradientUnits="userSpaceOnUse" x1="1856.7119" y1="2575.7329" x2="1210.0352" y2="3552.6772">
				<stop  offset="0" style="stop-color:#FDF53F"/>
				<stop  offset="1" style="stop-color:#D93C65"/>
			</linearGradient>
			
				<circle style="fill:url(#SVGID_00000115475559287690830780000007498522356236738188_);" cx="1737.554" cy="2755.746" r="157.621"/>
			<path style="fill:#FFFFFF;" d="M1607.58,2692.003c-0.263,0-0.529-0.059-0.78-0.186c-0.855-0.432-1.198-1.475-0.766-2.329
				c25.212-49.949,75.608-80.978,131.521-80.978c8.924,0,17.86,0.804,26.56,2.39c0.942,0.171,1.568,1.074,1.396,2.017
				c-0.171,0.942-1.078,1.579-2.017,1.394c-8.496-1.548-17.223-2.333-25.939-2.333c-54.596,0-103.805,30.299-128.424,79.072
				C1608.825,2691.654,1608.214,2692.003,1607.58,2692.003z"/>
			
				<ellipse transform="matrix(0.7071 -0.7071 0.7071 0.7071 -1441.1115 2039.2101)" style="opacity:0.78;fill:#FFFFFF;" cx="1740.989" cy="2759.18" rx="133.407" ry="133.407"/>
			<g>
				
					<linearGradient id="SVGID_00000161626100749577123880000001613661261928660363_" gradientUnits="userSpaceOnUse" x1="1837.4211" y1="2603.7249" x2="1493.0781" y2="3181.8198">
					<stop  offset="0" style="stop-color:#FDF53F"/>
					<stop  offset="1" style="stop-color:#D93C65"/>
				</linearGradient>
				<path style="fill:url(#SVGID_00000161626100749577123880000001613661261928660363_);" d="M1727.897,2858.357v-14.514
					c-15.13-0.606-30.096-4.177-40.725-8.83c-3.795-1.661-5.73-5.921-4.64-9.918l3.687-13.519c1.353-4.959,6.746-7.525,11.487-5.538
					c10.544,4.42,23.563,7.918,37.601,7.918c14.573,0,25.441-4.941,25.441-15.068c0-9.139-8.398-14.573-28.652-20.006
					c-28.899-7.905-49.648-20.502-49.648-45.944c0-22.973,16.797-40.51,45.943-45.202v-14.516c0-4.67,3.786-8.457,8.457-8.457h8.528
					c4.67,0,8.457,3.787,8.457,8.457v13.032c14.001,0.56,24.192,2.954,32.279,5.797c4.144,1.456,6.408,5.919,5.259,10.159
					l-3.391,12.503c-1.307,4.822-6.46,7.463-11.133,5.696c-7.447-2.816-17.974-5.747-31.66-5.747
					c-17.291,0-22.23,7.162-22.23,13.584c0,7.904,10.374,13.338,32.851,20.255c32.111,9.632,45.449,22.97,45.449,46.93
					c0,21.984-16.302,41.745-47.919,46.685v16.243c0,4.671-3.786,8.457-8.457,8.457h-8.529
					C1731.683,2866.814,1727.897,2863.028,1727.897,2858.357z"/>
			</g>
		</g>
		<g>
			
				<linearGradient id="SVGID_00000040546725637730652580000017621107474168423344_" gradientUnits="userSpaceOnUse" x1="2332.3723" y1="3071.9324" x2="2612.9712" y2="2746.2378" gradientTransform="matrix(0.9979 0.065 -0.065 0.9979 -94.0908 83.4206)">
				<stop  offset="0" style="stop-color:#FDF53F"/>
				<stop  offset="1" style="stop-color:#D93C65"/>
			</linearGradient>
			<circle style="fill:url(#SVGID_00000040546725637730652580000017621107474168423344_);" cx="2340.971" cy="2987.538" r="209.2"/>
			
				<linearGradient id="SVGID_00000018957705557873317430000016928996603557007025_" gradientUnits="userSpaceOnUse" x1="2771.5276" y1="2508.6882" x2="1941.7903" y2="3762.1848" gradientTransform="matrix(0.9979 0.065 -0.065 0.9979 -94.0908 83.4206)">
				<stop  offset="0" style="stop-color:#FDF53F"/>
				<stop  offset="1" style="stop-color:#D93C65"/>
			</linearGradient>
			
				<circle style="fill:url(#SVGID_00000018957705557873317430000016928996603557007025_);" cx="2340.971" cy="2987.538" r="202.243"/>
			<path style="fill:#FFFFFF;" d="M2179.866,2895.09c-0.336-0.022-0.673-0.12-0.983-0.303c-1.059-0.625-1.411-1.989-0.788-3.046
				c36.445-61.854,103.556-97.383,175.147-92.723c11.426,0.744,22.801,2.519,33.808,5.274c1.192,0.297,1.917,1.506,1.619,2.699
				c-0.298,1.191-1.512,1.931-2.699,1.617c-10.749-2.69-21.858-4.422-33.017-5.148c-69.905-4.55-135.436,30.143-171.023,90.539
				C2181.489,2894.747,2180.678,2895.143,2179.866,2895.09z"/>
			
				<ellipse transform="matrix(0.7071 -0.7071 0.7071 0.7071 -1428.9617 2534.625)" style="opacity:0.78;fill:#FFFFFF;" cx="2345.082" cy="2992.222" rx="171.174" ry="171.174"/>
			<g>
				
					<linearGradient id="SVGID_00000073703982691226485990000012843183668515985834_" gradientUnits="userSpaceOnUse" x1="2746.7737" y1="2544.6084" x2="2304.9641" y2="3286.334" gradientTransform="matrix(0.9979 0.065 -0.065 0.9979 -94.0908 83.4206)">
					<stop  offset="0" style="stop-color:#FDF53F"/>
					<stop  offset="1" style="stop-color:#D93C65"/>
				</linearGradient>
				<path style="fill:url(#SVGID_00000073703982691226485990000012843183668515985834_);" d="M2320.054,3118.115l1.21-18.583
					c-19.322-2.037-38.187-7.857-51.408-14.7c-4.721-2.443-6.844-8.059-5.115-13.086l5.848-17.003
					c2.145-6.237,9.265-9.072,15.17-6.133c13.132,6.538,29.51,12.102,47.484,13.271c18.659,1.215,32.986-4.207,33.83-17.173
					c0.762-11.702-9.538-19.358-35.019-28.003c-36.343-12.53-61.86-30.389-59.74-62.964c1.915-29.414,24.883-50.468,62.592-54.047
					l1.21-18.586c0.389-5.98,5.553-10.513,11.532-10.124l10.919,0.711c5.98,0.389,10.513,5.553,10.123,11.533l-1.086,16.687
					c17.879,1.884,30.729,5.799,40.847,10.112c5.184,2.209,7.712,8.114,5.887,13.446l-5.384,15.726
					c-2.075,6.065-8.893,9.017-14.729,6.365c-9.3-4.226-22.535-8.857-40.058-9.998c-22.139-1.441-29.06,7.317-29.595,15.541
					c-0.659,10.12,12.171,17.942,40.374,28.672c40.312,15.009,56.278,33.199,54.281,63.876
					c-1.832,28.148-24.352,52.091-65.245,55.782l-1.354,20.797c-0.389,5.981-5.553,10.513-11.532,10.124l-10.92-0.711
					C2324.198,3129.259,2319.665,3124.095,2320.054,3118.115z"/>
			</g>
		</g>
		<g>
			<g>
				
					<linearGradient id="SVGID_00000110468305294005047780000011129967958101974699_" gradientUnits="userSpaceOnUse" x1="1669.3104" y1="1284.8635" x2="2106.1934" y2="4539.647">
					<stop  offset="0" style="stop-color:#FDF53F"/>
					<stop  offset="1" style="stop-color:#D93C65"/>
				</linearGradient>
				<path style="fill:url(#SVGID_00000110468305294005047780000011129967958101974699_);" d="M2157.747,2408.724
					c-332.899,0-665.799,0-998.698,0c-195.513-397.702-391.025-803.437-586.537-1205.156c723.924,0,1447.848,0,2171.772,0
					C2548.772,1605.287,2353.26,2011.022,2157.747,2408.724z"/>
				
					<linearGradient id="SVGID_00000098178618510430149220000002026308641493968061_" gradientUnits="userSpaceOnUse" x1="1607.5297" y1="811.2976" x2="1728.3446" y2="1711.3699">
					<stop  offset="0" style="stop-color:#FDF53F"/>
					<stop  offset="1" style="stop-color:#D93C65"/>
				</linearGradient>
				<path style="fill:url(#SVGID_00000098178618510430149220000002026308641493968061_);" d="M2814.585,1218.511
					c0,13.934-11.295,25.229-25.229,25.229H529.932c-13.934,0-25.229-11.296-25.229-25.229v-37.92
					c0-13.934,11.296-25.229,25.229-25.229h2259.424c13.934,0,25.229,11.295,25.229,25.229V1218.511z"/>
				
					<linearGradient id="SVGID_00000001636569760453310580000003237319905453448080_" gradientUnits="userSpaceOnUse" x1="1567.8196" y1="1733.9114" x2="1751.0828" y2="3099.2253">
					<stop  offset="0" style="stop-color:#FDF53F"/>
					<stop  offset="1" style="stop-color:#D93C65"/>
				</linearGradient>
				<path style="fill:url(#SVGID_00000001636569760453310580000003237319905453448080_);" d="M2086.037,2878.735
					c-285.093,0-570.185,0-855.278,0c-24.791-148.636-49.581-313.341-74.372-470.011c334.674,0,669.348,0,1004.022,0
					C2135.618,2565.394,2110.828,2730.099,2086.037,2878.735z"/>
			</g>
			
				<linearGradient id="SVGID_00000085234624891439545490000016994509704708172472_" gradientUnits="userSpaceOnUse" x1="1646.5128" y1="2805.1467" x2="1707.1981" y2="3257.2532">
				<stop  offset="0" style="stop-color:#FDF53F"/>
				<stop  offset="1" style="stop-color:#D93C65"/>
			</linearGradient>
			<path style="fill:url(#SVGID_00000085234624891439545490000016994509704708172472_);" d="M2111.578,2882.646
				c0,17.333-10.697,28.226-23.297,28.226h-866.32c-12.6,0-22.285-10.893-22.285-28.226v-19.301
				c0-17.333,9.685-32.816,22.285-32.816h866.32c12.6,0,23.297,15.484,23.297,32.816V2882.646z"/>
			<g>
				<path style="fill:#FFFFFF;" d="M1104.229,2207.621c-2.738,0-5.348-1.593-6.513-4.261l-380.74-872.021
					c-1.57-3.596,0.072-7.782,3.666-9.351c3.596-1.568,7.784,0.073,9.351,3.666l380.74,872.021c1.57,3.596-0.072,7.782-3.666,9.351
					C1106.142,2207.43,1105.178,2207.621,1104.229,2207.621z"/>
			</g>
			<g>
				<path style="fill:#FFFFFF;" d="M1245.541,2773.723c-3.533,0-6.593-2.633-7.04-6.229l-35.986-289.778
					c-0.483-3.892,2.28-7.439,6.173-7.924c3.891-0.495,7.441,2.281,7.924,6.173l35.986,289.778c0.483,3.892-2.281,7.439-6.173,7.924
					C1246.128,2773.705,1245.832,2773.723,1245.541,2773.723z"/>
			</g>
		</g>
		<g>
			<g style="opacity:0.64;">
				<g>
					<path style="fill:#FFFFFF;" d="M1602.105,2143.614c-2.447,0-4.872-1.059-6.538-3.104c-2.914-3.575-5.781-7.243-8.518-10.904
						c-2.788-3.729-2.024-9.013,1.704-11.801c3.731-2.784,9.012-2.025,11.801,1.704c2.595,3.473,5.313,6.953,8.08,10.347
						c2.943,3.608,2.402,8.919-1.207,11.86C1605.862,2142.993,1603.977,2143.614,1602.105,2143.614z"/>
				</g>
				<g>
					<path style="fill:#FFFFFF;" d="M1569.289,2094.933c-2.977,0-5.862-1.579-7.396-4.372c-4.571-8.317-8.84-16.938-12.69-25.625
						c-1.887-4.256,0.035-9.236,4.291-11.123c4.261-1.89,9.235,0.036,11.124,4.291c3.657,8.251,7.711,16.439,12.051,24.336
						c2.243,4.08,0.752,9.206-3.328,11.448C1572.053,2094.597,1570.661,2094.933,1569.289,2094.933z M1541.437,2027.397
						c-3.664,0-7.034-2.404-8.098-6.099c-2.631-9.137-4.898-18.484-6.739-27.784c-0.906-4.568,2.065-9.003,6.631-9.907
						c4.581-0.916,9.003,2.065,9.907,6.631c1.75,8.835,3.904,17.715,6.404,26.394c1.289,4.475-1.294,9.147-5.768,10.434
						C1542.993,2027.291,1542.208,2027.397,1541.437,2027.397z M1529.179,1955.39c-4.439,0-8.157-3.471-8.409-7.959
						c-0.346-6.163-0.52-12.42-0.52-18.596c0-3.348,0.051-6.69,0.151-10.024c0.143-4.653,3.995-8.215,8.684-8.17
						c4.653,0.142,8.312,4.029,8.17,8.684c-0.097,3.163-0.145,6.334-0.145,9.511c0,5.863,0.166,11.804,0.494,17.654
						c0.26,4.648-3.296,8.628-7.946,8.888C1529.498,1955.385,1529.338,1955.39,1529.179,1955.39z M1533.354,1882.447
						c-0.472,0-0.952-0.039-1.432-0.122c-4.589-0.787-7.673-5.144-6.886-9.733c1.6-9.348,3.627-18.753,6.026-27.952
						c1.172-4.507,5.77-7.21,10.283-6.031c4.507,1.174,7.207,5.778,6.031,10.283c-2.277,8.738-4.202,17.669-5.722,26.546
						C1540.95,1879.546,1537.385,1882.447,1533.354,1882.447z M1553.638,1812.282c-1.077,0-2.17-0.208-3.227-0.646
						c-4.299-1.783-6.341-6.716-4.556-11.017c3.634-8.761,7.693-17.482,12.064-25.917c2.144-4.134,7.235-5.746,11.365-3.606
						c4.133,2.142,5.748,7.23,3.606,11.365c-4.153,8.012-8.009,16.296-11.462,24.619
						C1560.083,1810.324,1556.945,1812.282,1553.638,1812.282z M1588.947,1748.353c-1.684,0-3.385-0.502-4.866-1.551
						c-3.8-2.69-4.699-7.951-2.007-11.751c5.49-7.754,11.378-15.358,17.5-22.604c3.005-3.557,8.323-4.006,11.88-0.999
						c3.557,3.005,4.005,8.323,1,11.88c-5.814,6.883-11.406,14.104-16.62,21.468
						C1594.192,1747.115,1591.588,1748.353,1588.947,1748.353z M1637.552,1693.858c-2.315,0-4.619-0.947-6.285-2.807
						c-3.105-3.469-2.811-8.799,0.659-11.905c7.079-6.336,14.511-12.437,22.095-18.134c3.721-2.794,9.005-2.045,11.804,1.678
						c2.796,3.723,2.045,9.007-1.678,11.804c-7.199,5.407-14.256,11.2-20.976,17.215
						C1641.563,1693.149,1639.553,1693.858,1637.552,1693.858z M1697.097,1651.594c-2.972,0-5.852-1.573-7.388-4.357
						c-2.251-4.077-0.771-9.206,3.305-11.455c8.302-4.582,16.912-8.868,25.594-12.738c4.253-1.89,9.237,0.016,11.132,4.269
						c1.895,4.253-0.016,9.237-4.269,11.132c-8.246,3.673-16.425,7.744-24.307,12.096
						C1699.871,1651.255,1698.473,1651.594,1697.097,1651.594z M1764.552,1623.626c-3.657,0-7.024-2.396-8.093-6.084
						c-1.297-4.472,1.276-9.148,5.748-10.444c9.13-2.649,18.474-4.935,27.771-6.795c4.564-0.916,9.007,2.047,9.921,6.611
						c0.914,4.566-2.045,9.007-6.611,9.921c-8.832,1.768-17.709,3.94-26.385,6.456
						C1766.119,1623.517,1765.329,1623.626,1764.552,1623.626z M1836.529,1611.227c-4.432,0-8.149-3.459-8.407-7.943
						c-0.27-4.647,3.28-8.635,7.927-8.903c9.517-0.555,19.113-0.695,28.601-0.428c4.653,0.132,8.32,4.011,8.188,8.666
						c-0.132,4.655-3.948,8.277-8.666,8.188c-8.995-0.257-18.109-0.119-27.147,0.405
						C1836.86,1611.222,1836.694,1611.227,1836.529,1611.227z"/>
				</g>
				<g>
					<path style="fill:#FFFFFF;" d="M1922.87,1617.79c-0.581,0-1.171-0.061-1.762-0.186c-4.253-0.904-8.592-1.734-12.897-2.463
						c-4.589-0.779-7.68-5.132-6.901-9.723c0.779-4.589,5.126-7.676,9.723-6.901c4.533,0.769,9.102,1.643,13.583,2.595
						c4.554,0.968,7.461,5.445,6.492,10C1930.265,1615.075,1926.766,1617.79,1922.87,1617.79z"/>
				</g>
			</g>
			<g style="opacity:0.64;">
				<g>
					<path style="fill:#FFFFFF;" d="M2132.375,1764.4c-2.814,0-5.563-1.409-7.162-3.973c-2.317-3.716-4.731-7.418-7.176-11.006
						c-2.623-3.846-1.632-9.091,2.216-11.714c3.845-2.626,9.091-1.632,11.714,2.216c2.575,3.776,5.117,7.675,7.554,11.585
						c2.463,3.95,1.256,9.15-2.695,11.613C2135.44,1763.987,2133.899,1764.4,2132.375,1764.4z"/>
				</g>
				<g>
					<path style="fill:#FFFFFF;" d="M1855.266,2263.903c-8.491,0-17.093-0.331-25.566-0.985c-4.642-0.359-8.114-4.411-7.757-9.055
						s4.432-8.114,9.054-7.757c8.042,0.621,16.207,0.935,24.269,0.935l2.425-0.01c0.023,0,0.046,0,0.069,0
						c4.625,0,8.392,3.731,8.429,8.363c0.036,4.656-3.708,8.46-8.363,8.498L1855.266,2263.903z M1902.163,2260.49
						c-4.118,0-7.719-3.02-8.332-7.214c-0.673-4.607,2.516-8.888,7.123-9.56c8.76-1.279,17.592-2.952,26.251-4.974
						c4.55-1.052,9.069,1.76,10.126,6.293c1.059,4.534-1.759,9.067-6.293,10.126c-9.12,2.129-18.422,3.891-27.647,5.238
						C1902.978,2260.46,1902.568,2260.49,1902.163,2260.49z M1971.725,2242.353c-3.397,0-6.599-2.068-7.88-5.432
						c-1.656-4.35,0.527-9.221,4.879-10.879c8.302-3.161,16.559-6.707,24.545-10.538c4.208-2.015,9.236-0.242,11.248,3.953
						c2.014,4.199,0.244,9.234-3.953,11.248c-8.407,4.034-17.101,7.765-25.84,11.095
						C1973.738,2242.175,1972.723,2242.353,1971.725,2242.353z M2035.668,2209.57c-2.735,0-5.417-1.329-7.039-3.781
						c-2.569-3.884-1.503-9.114,2.379-11.682c7.4-4.895,14.677-10.166,21.633-15.666c3.649-2.886,8.951-2.272,11.842,1.383
						c2.888,3.652,2.269,8.954-1.383,11.842c-7.327,5.794-14.995,11.346-22.789,16.502
						C2038.879,2209.115,2037.265,2209.57,2035.668,2209.57z M2090.815,2163.537c-2.099,0-4.2-0.779-5.835-2.346
						c-3.359-3.224-3.469-8.561-0.247-11.921c6.13-6.389,12.071-13.13,17.659-20.035c2.928-3.619,8.236-4.177,11.857-1.25
						c3.619,2.928,4.179,8.236,1.25,11.857c-5.885,7.271-12.142,14.371-18.598,21.102
						C2095.244,2162.667,2093.031,2163.537,2090.815,2163.537z M2134.533,2106.523c-1.487,0-2.993-0.394-4.358-1.22
						c-3.983-2.412-5.256-7.595-2.845-11.579c4.589-7.581,8.919-15.458,12.87-23.414c2.071-4.171,7.128-5.872,11.3-3.802
						c4.171,2.071,5.872,7.13,3.802,11.3c-4.158,8.375-8.717,16.668-13.548,24.649
						C2140.167,2105.076,2137.385,2106.523,2134.533,2106.523z M2164.808,2041.345c-0.893,0-1.802-0.142-2.694-0.443
						c-4.411-1.487-6.784-6.268-5.297-10.681c2.832-8.409,5.345-17.04,7.464-25.657c1.113-4.521,5.679-7.283,10.2-6.173
						c4.521,1.113,7.284,5.681,6.173,10.2c-2.233,9.073-4.877,18.16-7.859,27.014
						C2171.61,2039.124,2168.327,2041.345,2164.808,2041.345z M2180.142,1971.125c-0.293,0-0.589-0.015-0.887-0.046
						c-4.63-0.484-7.991-4.63-7.507-9.262c0.924-8.831,1.482-17.803,1.658-26.666c0.094-4.655,3.921-8.356,8.597-8.261
						c4.655,0.092,8.353,3.942,8.261,8.597c-0.186,9.336-0.774,18.784-1.747,28.085
						C2188.064,1967.904,2184.405,1971.125,2180.142,1971.125z M2179.645,1899.239c-4.213,0-7.854-3.151-8.361-7.439
						c-1.044-8.807-2.476-17.682-4.256-26.378c-0.934-4.561,2.007-9.017,6.568-9.95c4.559-0.937,9.017,2.007,9.95,6.568
						c1.875,9.155,3.382,18.501,4.48,27.777c0.548,4.624-2.756,8.816-7.38,9.362
						C2180.31,1899.221,2179.976,1899.239,2179.645,1899.239z M2163.41,1829.227c-3.481,0-6.739-2.172-7.956-5.643
						c-2.944-8.399-6.267-16.755-9.878-24.835c-1.9-4.251,0.005-9.237,4.256-11.136c4.256-1.902,9.237,0.007,11.136,4.256
						c3.802,8.505,7.299,17.299,10.398,26.136c1.54,4.395-0.774,9.204-5.167,10.745
						C2165.276,1829.074,2164.335,1829.227,2163.41,1829.227z"/>
				</g>
				<g>
					<path style="fill:#FFFFFF;" d="M1786.108,2256.449c-0.594,0-1.197-0.063-1.801-0.194c-4.472-0.973-8.995-2.056-13.448-3.219
						c-4.505-1.177-7.202-5.783-6.026-10.288c1.176-4.503,5.778-7.202,10.288-6.027c4.228,1.105,8.526,2.134,12.772,3.058
						c4.55,0.991,7.434,5.481,6.445,10.031C1793.478,2253.756,1789.988,2256.449,1786.108,2256.449z"/>
				</g>
			</g>
			<g>
				
					<linearGradient id="SVGID_00000055676951267461756240000003204850763089928358_" gradientUnits="userSpaceOnUse" x1="1656.9987" y1="2369.8298" x2="3265.0203" y2="232.857" gradientTransform="matrix(0.9775 0.2109 -0.2109 0.9775 -401.5423 243.3279)">
					<stop  offset="0" style="stop-color:#A737D5"/>
					<stop  offset="1" style="stop-color:#EF497A"/>
				</linearGradient>
				<path style="fill:url(#SVGID_00000055676951267461756240000003204850763089928358_);" d="M1761.978,2161.7
					c1.476,0.783,3.288,0.544,4.511-0.596l34.876-32.539c21.538,5.682,44.138,7.971,67.009,6.429l28.062,38.532
					c0.984,1.352,2.718,1.93,4.316,1.44l54.702-16.765c1.599-0.491,2.71-1.941,2.769-3.611l1.652-47.639
					c19.808-11.54,37.244-26.097,51.899-42.873l47.12,7.409c1.652,0.259,3.286-0.557,4.07-2.034l26.825-50.535
					c0.784-1.478,0.545-3.289-0.596-4.511l-32.538-34.876c5.682-21.538,7.97-44.138,6.429-67.009l38.532-28.062
					c1.352-0.984,1.93-2.717,1.44-4.316l-16.765-54.703c-0.49-1.599-1.94-2.711-3.611-2.768l-47.639-1.652
					c-11.539-19.808-26.097-37.244-42.872-51.899l7.409-47.12c0.259-1.651-0.557-3.286-2.034-4.069l-50.535-26.825
					c-1.477-0.785-3.288-0.545-4.511,0.596l-34.876,32.539c-21.538-5.683-44.138-7.971-67.009-6.429l-28.062-38.533
					c-0.984-1.351-2.717-1.93-4.316-1.44l-54.703,16.766c-1.599,0.49-2.71,1.94-2.768,3.611l-1.652,47.639
					c-19.808,11.538-37.244,26.097-51.9,42.872l-47.119-7.408c-1.652-0.26-3.287,0.557-4.07,2.034l-26.825,50.535
					c-0.784,1.476-0.545,3.288,0.596,4.511l32.538,34.876c-5.683,21.538-7.97,44.138-6.429,67.009l-38.533,28.062
					c-1.351,0.983-1.93,2.717-1.439,4.316l16.765,54.702c0.49,1.599,1.94,2.71,3.611,2.769l47.639,1.652
					c11.539,19.807,26.097,37.243,42.872,51.899l-7.408,47.119c-0.26,1.652,0.557,3.286,2.034,4.071L1761.978,2161.7z"/>
				
					<linearGradient id="SVGID_00000150809053993856943970000004909074904066975650_" gradientUnits="userSpaceOnUse" x1="3222.1951" y1="-1306.653" x2="2365.2832" y2="1898.8368" gradientTransform="matrix(0.9775 0.2109 -0.2109 0.9775 -401.5423 243.3279)">
					<stop  offset="0" style="stop-color:#B37CFF"/>
					<stop  offset="1" style="stop-color:#F895E7"/>
				</linearGradient>
				<path style="fill:url(#SVGID_00000150809053993856943970000004909074904066975650_);" d="M1841.594,1986.414
					c-0.581-0.125-1.158-0.255-1.734-0.401c-15.925-3.906-29.373-13.782-37.867-27.806c-8.495-14.024-11.019-30.517-7.112-46.436
					c3.911-15.924,13.787-29.372,27.811-37.866c28.939-17.537,66.757-8.253,84.304,20.691c8.495,14.024,11.019,30.516,7.111,46.441
					c-3.911,15.924-13.787,29.372-27.811,37.866C1872.781,1987.092,1856.974,1989.732,1841.594,1986.414z M1862.96,1887.1
					c-9.695-2.091-20.174-0.632-29.308,4.902c-9.188,5.564-15.66,14.377-18.222,24.811c-2.564,10.438-0.907,21.243,4.66,30.429
					c5.566,9.191,14.379,15.663,24.813,18.225c10.491,2.638,21.239,0.914,30.429-4.66l0.004-0.005
					c9.188-5.564,15.66-14.377,18.222-24.811c2.563-10.433,0.907-21.243-4.66-30.429
					C1882.937,1895.727,1873.405,1889.354,1862.96,1887.1z"/>
				
					<linearGradient id="SVGID_00000021107003522566479330000015649190916401346998_" gradientUnits="userSpaceOnUse" x1="3222.1504" y1="-1306.6763" x2="2365.2324" y2="1898.8364" gradientTransform="matrix(0.9775 0.2109 -0.2109 0.9775 -401.5423 243.3279)">
					<stop  offset="0" style="stop-color:#B37CFF"/>
					<stop  offset="1" style="stop-color:#F895E7"/>
				</linearGradient>
				<path style="fill:url(#SVGID_00000021107003522566479330000015649190916401346998_);" d="M1865.452,2068.052
					c-2.212-0.477-3.951-2.348-4.152-4.721c-0.045-0.538-0.008-1.064,0.097-1.564c0.477-2.212,2.351-3.953,4.725-4.154
					c9.34-0.796,18.68-2.607,27.756-5.389c0.413-0.128,0.827-0.255,1.237-0.383c31.674-10.04,57.944-31.112,74.575-59.717
					c0.375-0.648,0.744-1.293,1.11-1.948c0.489-0.872,0.97-1.751,1.441-2.638c5.845-11.015,10.06-22.592,12.617-34.454
					c4.715-21.88,3.79-44.713-2.948-66.696c-21.453-69.996-95.839-109.479-165.84-88.038c-47.588,14.587-81.079,53.648-90.9,99.163
					c-4.622,21.425-4,44.276,2.867,66.679c7.054,23.019,20.182,43.649,37.962,59.665c1.46,1.314,2.019,3.257,1.63,5.049
					c-0.188,0.874-0.599,1.71-1.238,2.417c-1.956,2.173-5.301,2.344-7.472,0.391c-19.206-17.296-33.382-39.573-40.997-64.42
					c-7.414-24.19-8.086-48.865-3.094-71.996c10.603-49.14,46.76-91.315,98.143-107.065
					c75.574-23.145,155.896,19.484,179.055,95.053c7.274,23.737,8.274,48.388,3.183,72.01c-2.762,12.805-7.312,25.31-13.624,37.201
					c-17.952,33.821-47.999,58.623-84.607,69.845c-0.478,0.145-0.958,0.29-1.438,0.43c-9.338,2.758-18.926,4.568-28.521,5.383
					C1866.479,2068.2,1865.954,2068.161,1865.452,2068.052z"/>
			</g>
		</g>
		<g>
			<g style="opacity:0.64;">
				<g>
					<path style="fill:#FFFFFF;" d="M1273.25,1635.493c-3.262,0-6.367-1.904-7.744-5.086c-1.838-4.251-3.576-8.62-5.167-12.985
						c-1.595-4.375,0.659-9.214,5.032-10.808c4.372-1.592,9.214,0.655,10.808,5.032c1.48,4.059,3.096,8.119,4.805,12.069
						c1.847,4.275-0.12,9.236-4.393,11.085C1275.501,1635.27,1274.365,1635.493,1273.25,1635.493z"/>
				</g>
				<g>
					<path style="fill:#FFFFFF;" d="M1257.186,1580.259c-4.072,0-7.655-2.957-8.315-7.107c-1.321-8.289-2.218-16.769-2.671-25.204
						l-0.133-2.788c-0.204-4.652,3.402-8.587,8.053-8.791c4.643-0.191,8.587,3.4,8.791,8.053l0.127,2.628
						c0.42,7.848,1.256,15.739,2.483,23.45c0.733,4.597-2.401,8.919-7,9.651C1258.074,1580.224,1257.626,1580.259,1257.186,1580.259
						z M1256.812,1509.186c-0.412,0-0.83-0.031-1.251-0.094c-4.606-0.685-7.783-4.974-7.097-9.58
						c1.38-9.269,3.326-18.547,5.786-27.575c1.225-4.493,5.859-7.141,10.35-5.918s7.141,5.859,5.918,10.35
						c-2.285,8.389-4.095,17.011-5.378,25.625C1264.518,1506.18,1260.921,1509.186,1256.812,1509.186z M1277.994,1441.345
						c-1.25,0-2.519-0.28-3.718-0.869c-4.177-2.057-5.895-7.11-3.838-11.287c4.131-8.391,8.809-16.63,13.9-24.488
						c2.532-3.907,7.754-5.02,11.659-2.491c3.907,2.532,5.022,7.752,2.491,11.659c-4.736,7.307-9.084,14.967-12.926,22.769
						C1284.096,1439.616,1281.104,1441.345,1277.994,1441.345z M1318.787,1383.137c-2.098,0-4.199-0.779-5.834-2.346
						c-3.361-3.222-3.473-8.559-0.249-11.92c6.476-6.752,13.416-13.194,20.63-19.141c3.588-2.965,8.905-2.452,11.867,1.139
						c2.962,3.593,2.452,8.906-1.141,11.869c-6.708,5.532-13.163,11.523-19.188,17.804
						C1323.218,1382.268,1321.005,1383.137,1318.787,1383.137z M1375.24,1339.967c-2.988,0-5.881-1.591-7.411-4.398
						c-2.228-4.089-0.72-9.209,3.369-11.437c8.22-4.479,16.79-8.513,25.476-11.992c4.325-1.734,9.231,0.369,10.961,4.691
						c1.731,4.322-0.369,9.231-4.691,10.961c-8.073,3.232-16.039,6.983-23.678,11.146
						C1377.985,1339.636,1376.602,1339.967,1375.24,1339.967z M1539.903,1318.137c-0.649,0-1.307-0.076-1.966-0.232
						c-8.445-2.019-17.114-3.555-25.77-4.566c-4.625-0.54-7.935-4.726-7.395-9.351c0.54-4.625,4.719-7.956,9.351-7.395
						c9.313,1.087,18.644,2.74,27.733,4.912c4.528,1.082,7.322,5.631,6.24,10.159
						C1547.171,1315.534,1543.714,1318.137,1539.903,1318.137z M1442.115,1316.003c-3.963,0-7.497-2.809-8.271-6.846
						c-0.874-4.573,2.122-8.99,6.695-9.866c9.148-1.752,18.531-2.987,27.891-3.67c4.668-0.37,8.681,3.148,9.021,7.793
						c0.341,4.643-3.148,8.682-7.793,9.021c-8.709,0.637-17.44,1.786-25.948,3.417
						C1443.175,1315.954,1442.642,1316.003,1442.115,1316.003z"/>
				</g>
				<g>
					<path style="fill:#FFFFFF;" d="M1593.862,1338.446c-1.327,0-2.671-0.313-3.925-0.975c-3.803-2.006-7.726-3.93-11.661-5.719
						c-4.238-1.928-6.11-6.927-4.184-11.165c1.928-4.237,6.927-6.105,11.165-4.184c4.232,1.925,8.452,3.996,12.543,6.153
						c4.12,2.172,5.697,7.271,3.525,11.389C1599.816,1336.811,1596.889,1338.446,1593.862,1338.446z"/>
				</g>
			</g>
			<g style="opacity:0.64;">
				<g>
					<path style="fill:#FFFFFF;" d="M1709.637,1482.808c-3.715,0-7.116-2.473-8.132-6.231c-1.125-4.153-2.389-8.337-3.759-12.436
						c-1.475-4.416,0.907-9.193,5.323-10.668c4.413-1.474,9.191,0.907,10.668,5.323c1.474,4.408,2.834,8.91,4.042,13.378
						c1.217,4.494-1.441,9.124-5.936,10.339C1711.107,1482.713,1710.365,1482.808,1709.637,1482.808z"/>
				</g>
				<g>
					<path style="fill:#FFFFFF;" d="M1490.32,1775.207c-4.579,0-8.335-3.665-8.426-8.264c-0.092-4.655,3.608-8.503,8.263-8.595
						c2.582-0.051,5.172-0.145,7.772-0.283c5.974-0.32,12.005-0.883,17.921-1.675c4.655-0.619,8.859,2.626,9.474,7.238
						c0.617,4.615-2.625,8.857-7.238,9.474c-6.357,0.85-12.837,1.456-19.258,1.8c-2.791,0.148-5.569,0.249-8.338,0.303
						C1490.433,1775.207,1490.376,1775.207,1490.32,1775.207z M1447.06,1772.002c-0.468,0-0.942-0.04-1.419-0.12
						c-9.078-1.54-18.161-3.629-27-6.209c-4.469-1.306-7.034-5.987-5.73-10.456c1.306-4.469,5.989-7.036,10.456-5.73
						c8.215,2.399,16.658,4.34,25.094,5.771c4.591,0.779,7.681,5.131,6.902,9.721
						C1454.663,1769.093,1451.097,1772.002,1447.06,1772.002z M1559.235,1763.427c-3.532,0-6.823-2.236-7.997-5.773
						c-1.47-4.418,0.92-9.189,5.34-10.658c8.114-2.699,16.159-5.905,23.913-9.529c4.217-1.971,9.236-0.151,11.207,4.067
						c1.973,4.217,0.151,9.236-4.067,11.206c-8.342,3.901-17.001,7.35-25.734,10.253
						C1561.013,1763.289,1560.118,1763.427,1559.235,1763.427z M1621.465,1731.551c-2.615,0-5.193-1.212-6.841-3.496
						c-2.725-3.774-1.875-9.045,1.9-11.77c6.932-5.005,13.653-10.472,19.973-16.248c3.435-3.138,8.77-2.901,11.911,0.537
						c3.14,3.438,2.9,8.77-0.537,11.911c-6.797,6.209-14.022,12.087-21.478,17.47
						C1624.902,1731.033,1623.176,1731.551,1621.465,1731.551z M1671.345,1682.574c-1.762,0-3.538-0.55-5.057-1.689
						c-3.723-2.796-4.474-8.081-1.678-11.804c5.142-6.845,9.939-14.062,14.258-21.45c2.35-4.019,7.512-5.374,11.532-3.023
						c4.019,2.35,5.373,7.513,3.023,11.533c-4.643,7.945-9.802,15.705-15.331,23.067
						C1676.436,1681.412,1673.905,1682.574,1671.345,1682.574z M1704.436,1620.976c-0.937,0-1.887-0.156-2.821-0.487
						c-4.386-1.558-6.682-6.377-5.124-10.765c2.863-8.065,5.282-16.387,7.191-24.73c1.037-4.541,5.58-7.372,10.097-6.339
						c4.54,1.037,7.378,5.559,6.339,10.097c-2.053,8.98-4.656,17.933-7.737,26.613
						C1711.153,1618.819,1707.903,1620.976,1704.436,1620.976z M1717.549,1552.295c-0.104,0-0.208-0.002-0.313-0.005
						c-4.653-0.171-8.287-4.08-8.117-8.733c0.1-2.737,0.151-5.486,0.151-8.246c0-4.014-0.11-8.096-0.326-12.133
						c-0.096-1.798-0.214-3.593-0.352-5.383c-0.359-4.642,3.114-8.696,7.757-9.054c4.647-0.341,8.696,3.115,9.055,7.757
						c0.148,1.918,0.273,3.845,0.379,5.776c0.232,4.339,0.349,8.725,0.349,13.037c0,2.967-0.054,5.921-0.161,8.862
						C1725.803,1548.72,1722.064,1552.295,1717.549,1552.295z"/>
				</g>
				<g>
					<path style="fill:#FFFFFF;" d="M1380.538,1749.906c-1.294,0-2.606-0.298-3.836-0.929c-4.135-2.118-8.256-4.381-12.245-6.729
						c-4.013-2.361-5.353-7.528-2.992-11.541c2.361-4.013,7.53-5.354,11.541-2.992c3.708,2.182,7.538,4.286,11.383,6.255
						c4.144,2.122,5.783,7.202,3.66,11.347C1386.557,1748.229,1383.601,1749.906,1380.538,1749.906z"/>
				</g>
			</g>
			<g>
				
					<linearGradient id="SVGID_00000097469218362965666860000018420457434180742792_" gradientUnits="userSpaceOnUse" x1="1521.9888" y1="2032.2972" x2="2431.7954" y2="244.4185" gradientTransform="matrix(0.9775 0.2109 -0.2109 0.9775 -401.5423 243.3279)">
					<stop  offset="0" style="stop-color:#A737D5"/>
					<stop  offset="1" style="stop-color:#EF497A"/>
				</linearGradient>
				<path style="fill:url(#SVGID_00000097469218362965666860000018420457434180742792_);" d="M1377.284,1676.06
					c0.857,0.82,2.14,1.007,3.195,0.465l30.101-15.478c13.608,8.042,28.597,13.972,44.511,17.339l11.714,31.732
					c0.411,1.114,1.483,1.843,2.669,1.817l40.59-0.876c1.186-0.026,2.225-0.801,2.588-1.93l10.334-32.208
					c15.754-4.052,30.473-10.622,43.721-19.244l30.741,14.164c1.078,0.496,2.351,0.255,3.172-0.602l28.082-29.321
					c0.821-0.857,1.007-2.141,0.465-3.195l-15.477-30.101c8.042-13.608,13.971-28.597,17.339-44.511l31.732-11.715
					c1.113-0.411,1.843-1.482,1.817-2.668l-0.876-40.591c-0.026-1.186-0.801-2.225-1.931-2.587l-32.208-10.334
					c-4.051-15.755-10.621-30.473-19.244-43.721l14.164-30.742c0.496-1.077,0.254-2.351-0.602-3.172l-29.321-28.082
					c-0.857-0.821-2.14-1.007-3.195-0.465l-30.101,15.478c-13.608-8.042-28.597-13.972-44.511-17.339l-11.715-31.733
					c-0.411-1.113-1.482-1.843-2.668-1.817l-40.59,0.877c-1.186,0.026-2.225,0.801-2.587,1.931l-10.334,32.208
					c-15.754,4.051-30.473,10.622-43.721,19.244l-30.741-14.164c-1.077-0.497-2.352-0.255-3.172,0.602l-28.081,29.321
					c-0.82,0.857-1.007,2.14-0.465,3.195l15.478,30.101c-8.042,13.608-13.971,28.597-17.339,44.511l-31.733,11.715
					c-1.112,0.41-1.842,1.482-1.816,2.669l0.876,40.589c0.026,1.186,0.801,2.225,1.93,2.589l32.208,10.334
					c4.051,15.754,10.622,30.472,19.244,43.721l-14.163,30.741c-0.497,1.078-0.255,2.351,0.602,3.172L1377.284,1676.06z"/>
				
					<linearGradient id="SVGID_00000124874173760928711630000015333344377537786508_" gradientUnits="userSpaceOnUse" x1="2732.0598" y1="-1437.6667" x2="1875.1473" y2="1767.8247" gradientTransform="matrix(0.9775 0.2109 -0.2109 0.9775 -401.5423 243.3279)">
					<stop  offset="0" style="stop-color:#B37CFF"/>
					<stop  offset="1" style="stop-color:#F895E7"/>
				</linearGradient>
				<path style="fill:url(#SVGID_00000124874173760928711630000015333344377537786508_);" d="M1475.03,1584.07
					c-5.11-1.102-10.074-2.992-14.749-5.644c-12.058-6.85-20.73-17.984-24.411-31.355c-3.684-13.372-1.94-27.374,4.908-39.435
					c6.849-12.056,17.983-20.725,31.355-24.409c13.37-3.679,27.375-1.931,39.431,4.907c12.058,6.85,20.73,17.984,24.411,31.355
					c7.605,27.592-8.659,56.234-36.26,63.845l-0.003-0.001C1491.525,1585.589,1483.098,1585.811,1475.03,1584.07z
					 M1495.496,1568.035l0.051,0.011L1495.496,1568.035z M1490.155,1513.537c-3.138-0.677-6.412-0.591-9.595,0.287
					c-5.197,1.431-9.525,4.799-12.188,9.488c-2.663,4.689-3.338,10.134-1.907,15.331c1.431,5.197,4.802,9.523,9.489,12.182
					c4.687,2.67,10.128,3.342,15.325,1.911l0,0c10.729-2.959,17.053-14.087,14.097-24.818c-1.431-5.197-4.802-9.523-9.489-12.182
					C1494.072,1514.699,1492.14,1513.965,1490.155,1513.537z"/>
				
					<linearGradient id="SVGID_00000021822311268784863070000007115680146653787808_" gradientUnits="userSpaceOnUse" x1="2732.21" y1="-1437.6118" x2="1875.3014" y2="1767.8657" gradientTransform="matrix(0.9775 0.2109 -0.2109 0.9775 -401.5423 243.3279)">
					<stop  offset="0" style="stop-color:#B37CFF"/>
					<stop  offset="1" style="stop-color:#F895E7"/>
				</linearGradient>
				<path style="fill:url(#SVGID_00000021822311268784863070000007115680146653787808_);" d="M1466.677,1633.971
					c-2.802-0.605-4.621-3.343-4.077-6.174c0.008-0.035,0.016-0.076,0.025-0.116c0.605-2.802,3.343-4.621,6.171-4.075
					c6.431,1.239,13.047,1.8,19.67,1.659c0.162-0.002,0.322-0.01,0.483-0.012c49.641-1.334,89.321-41.713,90.177-90.996
					c0.021-1.211,0.019-2.427-0.007-3.653c-1.102-51.084-43.573-91.746-94.654-90.649c-24.748,0.532-47.807,10.677-64.93,28.554
					c-12.005,12.534-20.085,27.823-23.657,44.369c-1.522,7.054-2.226,14.337-2.067,21.733c0.361,16.798,5.256,33.152,14.154,47.289
					c0.765,1.217,0.977,2.626,0.696,3.928c-0.29,1.343-1.097,2.575-2.354,3.366c-2.475,1.553-5.739,0.807-7.294-1.658
					c-9.919-15.763-15.376-33.982-15.777-52.702c-0.178-8.24,0.605-16.351,2.303-24.208c3.979-18.435,12.981-35.469,26.356-49.436
					c19.077-19.918,44.769-31.217,72.341-31.811c56.924-1.227,104.229,44.082,105.457,101.001c0.178,8.24-0.619,16.28-2.285,24.005
					c-9.85,45.646-50.036,80.399-98.716,81.455c-0.619,0.014-1.239,0.023-1.857,0.022c-6.331,0.024-12.649-0.525-18.823-1.64
					c-0.056-0.012-0.112-0.019-0.168-0.031c-0.351-0.065-0.701-0.13-1.052-0.195
					C1466.755,1633.988,1466.715,1633.979,1466.677,1633.971z"/>
			</g>
		</g>
		<g>
			<g>
				<g>
					
						<linearGradient id="SVGID_00000035493949541945503220000012733499803271047585_" gradientUnits="userSpaceOnUse" x1="1475.8438" y1="1065.3981" x2="2001.005" y2="439.8147">
						<stop  offset="0" style="stop-color:#53D8FF"/>
						<stop  offset="1" style="stop-color:#3840F7"/>
					</linearGradient>
					
						<circle style="fill:url(#SVGID_00000035493949541945503220000012733499803271047585_);" cx="1727.078" cy="766.123" r="280.826"/>
					
						<linearGradient id="SVGID_00000120532552251711660460000005089127011127905673_" gradientUnits="userSpaceOnUse" x1="1921.3663" y1="292.7654" x2="1468.6423" y2="1395.7651">
						<stop  offset="0" style="stop-color:#53D8FF"/>
						<stop  offset="1" style="stop-color:#3840F7"/>
					</linearGradient>
					
						<circle style="fill:url(#SVGID_00000120532552251711660460000005089127011127905673_);" cx="1727.078" cy="766.123" r="271.488"/>
					<path style="fill:#FFFFFF;" d="M1476.813,755.691c-0.051,0-0.103,0-0.153-0.003c-1.583-0.084-2.797-1.434-2.715-3.014
						c0.557-10.666,1.797-21.377,3.685-31.839c0.28-1.558,1.761-2.594,3.332-2.314c1.559,0.283,2.593,1.773,2.312,3.333
						c-1.843,10.223-3.054,20.694-3.601,31.116C1479.594,754.503,1478.328,755.691,1476.813,755.691z"/>
					<path style="fill:#FFFFFF;" d="M1503.209,656.213c-0.434,0-0.875-0.098-1.29-0.308c-1.414-0.715-1.981-2.44-1.267-3.852
						c43.406-85.994,130.167-139.414,226.426-139.414c15.351,0,30.735,1.383,45.725,4.118c1.559,0.283,2.592,1.776,2.308,3.336
						c-0.283,1.56-1.772,2.602-3.336,2.305c-14.651-2.669-29.689-4.022-44.697-4.022c-94.082,0-178.88,52.214-221.306,136.26
						C1505.267,655.636,1504.258,656.213,1503.209,656.213z"/>
					
						<ellipse transform="matrix(0.7071 -0.7071 0.7071 0.7071 -38.3313 1451.5356)" style="opacity:0.75;fill:#FFFFFF;" cx="1732.993" cy="772.038" rx="229.782" ry="229.782"/>
				</g>
			</g>
			<g>
				
					<linearGradient id="SVGID_00000088823040707524972410000006370827863673264800_" gradientUnits="userSpaceOnUse" x1="1990.9652" y1="40.3852" x2="1538.2406" y2="1143.3864">
					<stop  offset="0" style="stop-color:#53D8FF"/>
					<stop  offset="1" style="stop-color:#3840F7"/>
				</linearGradient>
				<path style="fill:url(#SVGID_00000088823040707524972410000006370827863673264800_);" d="M1800.348,681.187
					c0,40.252-32.631,83.707-72.883,83.707c-40.252,0-72.882-43.455-72.882-83.707s32.63-68.808,72.882-68.808
					C1767.718,612.379,1800.348,640.935,1800.348,681.187z"/>
				
					<linearGradient id="SVGID_00000105402829081991385380000000835090248684614324_" gradientUnits="userSpaceOnUse" x1="2050.0356" y1="64.6304" x2="1597.3105" y2="1167.6327">
					<stop  offset="0" style="stop-color:#53D8FF"/>
					<stop  offset="1" style="stop-color:#3840F7"/>
				</linearGradient>
				<path style="fill:url(#SVGID_00000105402829081991385380000000835090248684614324_);" d="M1637.018,919.867h177.919
					c18.729,0,35.31-12.104,41.018-29.943l9.574-29.923c7.01-21.909-4.387-45.63-25.991-53.53
					c-72.407-26.474-147.277-23.078-223.974,2.443c-21.486,7.149-33.409,30.131-27.481,51.987l7.372,27.175
					C1600.544,906.84,1617.575,919.867,1637.018,919.867z"/>
			</g>
		</g>
		<g>
			
				<linearGradient id="SVGID_00000160184691076225673600000005993324998724125063_" gradientUnits="userSpaceOnUse" x1="2027.6805" y1="1544.7444" x2="678.8168" y2="3831.064">
				<stop  offset="0" style="stop-color:#53D8FF"/>
				<stop  offset="1" style="stop-color:#3840F7"/>
			</linearGradient>
			<path style="fill:url(#SVGID_00000160184691076225673600000005993324998724125063_);" d="M1359.489,3231.522
				c-5.037,0-9.12-4.083-9.12-9.12V2132.253c0-5.038,4.083-9.12,9.12-9.12c5.038,0,9.12,4.083,9.12,9.12v1090.149
				C1368.609,3227.439,1364.527,3231.522,1359.489,3231.522z"/>
			
				<linearGradient id="SVGID_00000021080125061577400930000000618436997068194475_" gradientUnits="userSpaceOnUse" x1="1844.3386" y1="1436.5804" x2="495.475" y2="3722.8999">
				<stop  offset="0" style="stop-color:#53D8FF"/>
				<stop  offset="1" style="stop-color:#3840F7"/>
			</linearGradient>
			<path style="fill:url(#SVGID_00000021080125061577400930000000618436997068194475_);" d="M1112.333,3231.522
				c-5.037,0-9.12-4.083-9.12-9.12V2132.253c0-5.038,4.083-9.12,9.12-9.12s9.12,4.083,9.12,9.12v1090.149
				C1121.453,3227.439,1117.371,3231.522,1112.333,3231.522z"/>
			
				<linearGradient id="SVGID_00000098222924857877515840000015066980442108538789_" gradientUnits="userSpaceOnUse" x1="1568.3939" y1="1273.7787" x2="219.5302" y2="3560.0984">
				<stop  offset="0" style="stop-color:#53D8FF"/>
				<stop  offset="1" style="stop-color:#3840F7"/>
			</linearGradient>
			<path style="fill:url(#SVGID_00000098222924857877515840000015066980442108538789_);" d="M505.104,3238.437
				c-1.191,0-2.399-0.235-3.564-0.73c-4.635-1.97-6.796-7.325-4.825-11.963l466.387-1097.061c1.97-4.635,7.333-6.791,11.961-4.824
				c4.635,1.971,6.795,7.325,4.826,11.963L513.501,3232.883C512.026,3236.353,508.651,3238.437,505.104,3238.437z"/>
			
				<linearGradient id="SVGID_00000140733759229492814680000011821457355017599392_" gradientUnits="userSpaceOnUse" x1="1782.0951" y1="1399.8553" x2="433.2314" y2="3686.1748">
				<stop  offset="0" style="stop-color:#53D8FF"/>
				<stop  offset="1" style="stop-color:#3840F7"/>
			</linearGradient>
			<path style="fill:url(#SVGID_00000140733759229492814680000011821457355017599392_);" d="M793.186,3238.437
				c-1.192,0-2.399-0.235-3.564-0.73c-4.635-1.97-6.796-7.325-4.826-11.963l466.387-1097.061c1.972-4.635,7.332-6.791,11.961-4.824
				c4.635,1.971,6.796,7.325,4.825,11.963L801.584,3232.883C800.109,3236.353,796.733,3238.437,793.186,3238.437z"/>
			
				<linearGradient id="SVGID_00000031927867610205417120000004696340967916396684_" gradientUnits="userSpaceOnUse" x1="1639.9445" y1="1315.9902" x2="291.0715" y2="3602.3254">
				<stop  offset="0" style="stop-color:#53D8FF"/>
				<stop  offset="1" style="stop-color:#3840F7"/>
			</linearGradient>
			<path style="fill:url(#SVGID_00000031927867610205417120000004696340967916396684_);" d="M1373.649,2142.285H946.426
				c-7.099,0-12.855-5.755-12.855-12.854l0,0c0-7.099,5.755-12.854,12.855-12.854h427.222c7.099,0,12.854,5.755,12.854,12.854l0,0
				C1386.503,2136.531,1380.748,2142.285,1373.649,2142.285z"/>
			
				<linearGradient id="SVGID_00000137117541402113349670000009924970884292179340_" gradientUnits="userSpaceOnUse" x1="1628.9991" y1="1309.5323" x2="280.1332" y2="3595.8557">
				<stop  offset="0" style="stop-color:#53D8FF"/>
				<stop  offset="1" style="stop-color:#3840F7"/>
			</linearGradient>
			<path style="fill:url(#SVGID_00000137117541402113349670000009924970884292179340_);" d="M1189.118,2309.122H900.182
				c-5.038,0-9.12-4.083-9.12-9.12c0-5.037,4.082-9.12,9.12-9.12h288.936c5.037,0,9.12,4.083,9.12,9.12
				C1198.239,2305.039,1194.156,2309.122,1189.118,2309.122z"/>
			
				<linearGradient id="SVGID_00000018917705827897616240000004272313998052992923_" gradientUnits="userSpaceOnUse" x1="1654.0372" y1="1324.3044" x2="305.17" y2="3610.6301">
				<stop  offset="0" style="stop-color:#53D8FF"/>
				<stop  offset="1" style="stop-color:#3840F7"/>
			</linearGradient>
			
				<rect x="811.527" y="2498.364" style="fill:url(#SVGID_00000018917705827897616240000004272313998052992923_);" width="288.936" height="18.24"/>
			
				<linearGradient id="SVGID_00000162354667935934410560000005329878295772836234_" gradientUnits="userSpaceOnUse" x1="1681.1746" y1="1340.3126" x2="332.3037" y2="3626.6443">
				<stop  offset="0" style="stop-color:#53D8FF"/>
				<stop  offset="1" style="stop-color:#3840F7"/>
			</linearGradient>
			
				<rect x="725.7" y="2705.846" style="fill:url(#SVGID_00000162354667935934410560000005329878295772836234_);" width="288.936" height="18.24"/>
			
				<linearGradient id="SVGID_00000039835975655847484740000014141977495794554249_" gradientUnits="userSpaceOnUse" x1="1705.2122" y1="1354.4927" x2="356.3453" y2="3640.8176">
				<stop  offset="0" style="stop-color:#53D8FF"/>
				<stop  offset="1" style="stop-color:#3840F7"/>
			</linearGradient>
			<path style="fill:url(#SVGID_00000039835975655847484740000014141977495794554249_);" d="M924.631,2931.569H635.694
				c-5.037,0-9.12-4.083-9.12-9.12s4.083-9.12,9.12-9.12h288.937c5.037,0,9.12,4.083,9.12,9.12S929.668,2931.569,924.631,2931.569z"
				/>
			
				<linearGradient id="SVGID_00000103233037227551811910000010478669854437248128_" gradientUnits="userSpaceOnUse" x1="1731.4689" y1="1369.9778" x2="382.5982" y2="3656.3091">
				<stop  offset="0" style="stop-color:#53D8FF"/>
				<stop  offset="1" style="stop-color:#3840F7"/>
			</linearGradient>
			<path style="fill:url(#SVGID_00000103233037227551811910000010478669854437248128_);" d="M837.612,3139.054H548.676
				c-5.037,0-9.12-4.083-9.12-9.12c0-5.038,4.083-9.12,9.12-9.12h288.936c5.038,0,9.12,4.083,9.12,9.12
				C846.732,3134.971,842.65,3139.054,837.612,3139.054z"/>
		</g>
		<g>
			
				<linearGradient id="SVGID_00000004532368427364953150000017003526629651673274_" gradientUnits="userSpaceOnUse" x1="-6067.9624" y1="1787.2632" x2="-5969.0659" y2="1787.2632" gradientTransform="matrix(0.9987 0.0507 -0.0507 0.9987 7143.3555 595.7192)">
				<stop  offset="0" style="stop-color:#2B3582"/>
				<stop  offset="1" style="stop-color:#150E42"/>
			</linearGradient>
			<path style="fill:url(#SVGID_00000004532368427364953150000017003526629651673274_);" d="M1008.18,2038.908
				c0,0-11.852,16.744-17.07,65.04c-0.486,4.5,2.893,8.526,7.413,8.756l85.837,4.354c3.454,0.176,6.091-3.086,5.151-6.414
				c-4.276-15.142-17.643-52.209-50.525-74.671L1008.18,2038.908z"/>
			
				<linearGradient id="SVGID_00000081612455387265016840000011984233885511039133_" gradientUnits="userSpaceOnUse" x1="-5910.4556" y1="1356.3442" x2="-5870.3462" y2="1356.3442" gradientTransform="matrix(0.9937 -0.112 0.112 0.9937 6720.2886 24.4975)">
				<stop  offset="0" style="stop-color:#F9B776"/>
				<stop  offset="1" style="stop-color:#F47960"/>
			</linearGradient>
			<path style="fill:url(#SVGID_00000081612455387265016840000011984233885511039133_);" d="M996.543,2012.65l9.397,39.96
				c0.811,3.447,3.866,5.937,7.406,5.945c4.732,0.011,11.565-0.375,18.04-2.208c5.887-1.665,9.601-7.495,8.915-13.573l-4.409-39.107
				L996.543,2012.65z"/>
			
				<linearGradient id="SVGID_00000080911795663497456750000009446480406582410417_" gradientUnits="userSpaceOnUse" x1="-5813.9219" y1="1548.8502" x2="-5658.7524" y2="1548.8502" gradientTransform="matrix(0.9994 0.0349 -0.0349 0.9994 7051.2871 734.0373)">
				<stop  offset="0" style="stop-color:#2B3582"/>
				<stop  offset="1" style="stop-color:#150E42"/>
			</linearGradient>
			<path style="fill:url(#SVGID_00000080911795663497456750000009446480406582410417_);" d="M1204.208,2041.877
				c0,0-17.332,24.981-18.203,60.07c-0.205,8.265,6.482,15.087,14.745,15.376l133.405,4.652c6.246,0.218,9.062-7.721,4.076-11.489
				c-24.626-18.607-73.088-53.453-108.52-67.72L1204.208,2041.877z"/>
			
				<linearGradient id="SVGID_00000003067796768510406590000003034188193026545552_" gradientUnits="userSpaceOnUse" x1="-5872.4248" y1="1736.7394" x2="-5832.5366" y2="1736.7394" gradientTransform="matrix(0.9907 0.1362 -0.1362 0.9907 7252.5708 1097.9357)">
				<stop  offset="0" style="stop-color:#F9B776"/>
				<stop  offset="1" style="stop-color:#F47960"/>
			</linearGradient>
			<path style="fill:url(#SVGID_00000003067796768510406590000003034188193026545552_);" d="M1200.885,1999.286l3.417,51.284
				c0.382,5.736,5.324,10.237,11.053,9.761c3.483-0.29,7.668-1.187,12.294-3.265c4.397-1.975,7.11-6.509,6.929-11.324l-2.321-61.881
				L1200.885,1999.286z"/>
			
				<linearGradient id="SVGID_00000160155453482914239650000013896827963940518288_" gradientUnits="userSpaceOnUse" x1="-5938.0186" y1="1007.9451" x2="-5666.0664" y2="1007.9451" gradientTransform="matrix(0.9937 -0.112 0.112 0.9937 6720.2886 24.4975)">
				<stop  offset="0" style="stop-color:#2B3582"/>
				<stop  offset="1" style="stop-color:#150E42"/>
			</linearGradient>
			<path style="fill:url(#SVGID_00000160155453482914239650000013896827963940518288_);" d="M935.297,1322.823
				c0,0-32.265,35.624-34.722,74.385c-2.458,38.76,93.024,653.479,93.024,653.479s36.496,1.921,53.702-11.352
				c0,0-23.291-403.307-17.085-497.809c0,0,134.127,405.372,166.778,477.668c0,0,34.986,0.307,45.375-7.514
				c0,0-83.556-535.658-123.084-628.108L935.297,1322.823z"/>
			<path style="fill:#666694;" d="M1027.267,1529.949c-2.098,0-4.078-1.274-4.875-3.349l-21.069-54.751l-33.421-16.481
				c-2.587-1.277-3.651-4.41-2.374-6.997c1.277-2.584,4.41-3.651,6.997-2.374l35.253,17.385c1.177,0.581,2.092,1.583,2.564,2.81
				l21.801,56.656c1.037,2.694-0.305,5.717-2.999,6.751C1028.526,1529.837,1027.892,1529.949,1027.267,1529.949z"/>
			
				<linearGradient id="SVGID_00000030467257700905700390000000525920111310297023_" gradientUnits="userSpaceOnUse" x1="1384.882" y1="493.7186" x2="1075.3822" y2="1404.6554">
				<stop  offset="0" style="stop-color:#CB236D"/>
				<stop  offset="1" style="stop-color:#4C246D"/>
			</linearGradient>
			<path style="fill:url(#SVGID_00000030467257700905700390000000525920111310297023_);" d="M1248.597,926.083
				c-152.226,4.484-188.124,40.137-188.124,40.137l85.376,106.247c0,0,147.859-19.635,244.815-113.448
				c-22.285-19.161-38.753-41.257-49.681-58.675C1314.884,914.81,1284.105,925.036,1248.597,926.083z"/>
			
				<linearGradient id="SVGID_00000173158064980775609260000006546742223723967381_" gradientUnits="userSpaceOnUse" x1="-5443.6006" y1="193.7764" x2="-5295.3613" y2="193.7764" gradientTransform="matrix(0.9937 -0.112 0.112 0.9937 6720.2886 24.4975)">
				<stop  offset="0" style="stop-color:#F9B776"/>
				<stop  offset="1" style="stop-color:#F47960"/>
			</linearGradient>
			<path style="fill:url(#SVGID_00000173158064980775609260000006546742223723967381_);" d="M1459.809,678.081
				c-0.749-4.81-7.447-5.386-9.005-0.774l-14.615,43.233c-2.823,8.354-3.013,17.373-0.544,25.838l9.444,23.14
				c3.333,11.428,1.635,23.714-4.712,33.785c-15.19,24.1-48.296,68.718-99.395,97.04c10.928,17.418,27.396,39.513,49.681,58.675
				c35.575-34.421,64.307-78.817,76.354-135.91c8.442-3.672,13.357-12.564,11.979-21.666L1459.809,678.081z"/>
			
				<linearGradient id="SVGID_00000034066646646705335140000000883951490882691216_" gradientUnits="userSpaceOnUse" x1="-5588.0356" y1="230.2765" x2="-5669.1831" y2="998.7919" gradientTransform="matrix(0.9937 -0.112 0.112 0.9937 6720.2886 24.4975)">
				<stop  offset="0" style="stop-color:#CB236D"/>
				<stop  offset="1" style="stop-color:#4C246D"/>
			</linearGradient>
			<path style="fill:url(#SVGID_00000034066646646705335140000000883951490882691216_);" d="M1305.718,986.821
				c-59.542-51.223-163.585-65.667-223.333-69.683c-26.176-1.759-49.851,15.366-56.185,40.823
				c-18.362,73.801-69.247,266.153-79.566,299.391c-8.467,27.267-17.504,53.985-23.275,70.703
				c-3.449,9.987,1.777,20.883,11.749,24.376c51.938,18.19,143.607,35.06,180.724,41.488c8.164,1.414,15.367-5.408,14.438-13.642
				c-0.787-6.982,0.338-14.049,3.256-20.441l110.526-242.14c95.433,84.492,170.689,84.716,225.435,57.695
				c-12.939-28.573-22.568-57.575-28.935-87.002C1354.616,1083.452,1305.718,986.821,1305.718,986.821z"/>
			
				<linearGradient id="SVGID_00000096049777815034047550000000663350876864639933_" gradientUnits="userSpaceOnUse" x1="-5107.9219" y1="226.0934" x2="-5428.2334" y2="624.5919" gradientTransform="matrix(0.9937 -0.112 0.112 0.9937 6720.2886 24.4975)">
				<stop  offset="0" style="stop-color:#F9B776"/>
				<stop  offset="1" style="stop-color:#F47960"/>
			</linearGradient>
			<path style="fill:url(#SVGID_00000096049777815034047550000000663350876864639933_);" d="M1578.119,1056.893l-17.501-18.57
				c-45.442,39.381-85.71,52.041-120.066,50.067c6.367,29.427,15.996,58.429,28.935,87.002
				C1541.609,1139.795,1578.119,1056.893,1578.119,1056.893z"/>
			
				<linearGradient id="SVGID_00000113312923142362419240000012635136141082851995_" gradientUnits="userSpaceOnUse" x1="-5047.1914" y1="274.8974" x2="-5367.5127" y2="673.4075" gradientTransform="matrix(0.9937 -0.112 0.112 0.9937 6720.2886 24.4975)">
				<stop  offset="0" style="stop-color:#F9B776"/>
				<stop  offset="1" style="stop-color:#F47960"/>
			</linearGradient>
			<path style="fill:url(#SVGID_00000113312923142362419240000012635136141082851995_);" d="M1567.432,1058.47l86.093-6.322
				l73.949-52.976c-12.128-5.824-74.553,15.913-74.553,15.913s-68.109-2.578-86.237-0.557c-15.056,1.677-10.464,23.082-8.476,30.287
				c0.406,1.47,0.704,2.349,0.704,2.349L1567.432,1058.47z"/>
			
				<linearGradient id="SVGID_00000154425556586439983510000012359081163767677862_" gradientUnits="userSpaceOnUse" x1="-5468.2866" y1="-14.7224" x2="-5778.5054" y2="555.2742" gradientTransform="matrix(0.9937 -0.112 0.112 0.9937 6720.2886 24.4975)">
				<stop  offset="0" style="stop-color:#F9B776"/>
				<stop  offset="1" style="stop-color:#F47960"/>
			</linearGradient>
			<path style="fill:url(#SVGID_00000154425556586439983510000012359081163767677862_);" d="M1151.074,802.99l-32.782,115.459
				c0,0,56.019,30.109,97.44,21.972l11.382-101.778L1151.074,802.99z"/>
			<g>
				
					<linearGradient id="SVGID_00000172409063242578778130000013110463518781770130_" gradientUnits="userSpaceOnUse" x1="-3770.1829" y1="-802.0347" x2="-3907.2869" y2="-620.6574" gradientTransform="matrix(0.7472 -0.6646 0.6646 0.7472 4549.52 -1168.7673)">
					<stop  offset="0" style="stop-color:#F9B776"/>
					<stop  offset="1" style="stop-color:#F47960"/>
				</linearGradient>
				<path style="fill:url(#SVGID_00000172409063242578778130000013110463518781770130_);" d="M1218.987,719.143
					c1.201,1.351,45.788,112.233,45.788,112.233l-63.853,24.112l-57.873-98.815C1143.049,756.673,1198.876,696.531,1218.987,719.143
					z"/>
				
					<linearGradient id="SVGID_00000155134327736941098640000008950685032778834611_" gradientUnits="userSpaceOnUse" x1="-3874.8904" y1="-758.282" x2="-3711.1155" y2="-758.282" gradientTransform="matrix(0.7472 -0.6646 0.6646 0.7472 4549.52 -1168.7673)">
					<stop  offset="0" style="stop-color:#2B3582"/>
					<stop  offset="1" style="stop-color:#150E42"/>
				</linearGradient>
				<path style="fill:url(#SVGID_00000155134327736941098640000008950685032778834611_);" d="M1169.584,769.686l26.392,54.404
					c0.339,0.697,0.758,1.33,1.273,1.911c3.15,3.551,14.88,14.973,25.834,2.258c9.94-11.538,19.182-21.919,28.49-24.664
					c4.179-1.232,8.602,0.904,10.227,4.947c4.048,10.076,12.751,32.949,17.28,53.974c0.919,4.267-1.621,8.503-5.79,9.793
					c-12.564,3.885-39.292,11.34-62.199,12.3c-3.104,0.13-6.022-1.412-7.623-4.074c-7.806-12.979-31.677-52.34-40.026-62.279
					c-7.835-9.329-24.225-7.194-31.043-5.807c-2.236,0.455-4.538-0.022-6.411-1.325c-6.621-4.602-19.608-16.792-5.297-34.753
					c2.995-3.759,2.29-9.198-1.559-12.078c-7.661-5.733-16.372-16.448-6.446-32.075c10.089-15.885,25.835-15.314,35.713-12.921
					c3.994,0.967,7.996-1.126,9.685-4.872c0.961-2.133,2.862-3.879,6.487-3.975c4.886-0.13,8.499-4.626,7.864-9.472
					c-1.219-9.31,0.792-21.473,16.407-28.334c27.709-12.176,48.745,13.548,52.851,34.049c4.108,20.502-26.683,31.994-45.472,32.699
					c-14.286,0.535-23.22,15.762-26.683,23.03C1168.442,764.723,1168.471,767.391,1169.584,769.686z"/>
				
					<linearGradient id="SVGID_00000170253361437797719330000001157883297775567799_" gradientUnits="userSpaceOnUse" x1="-3970.9868" y1="-658.3997" x2="-3861.0181" y2="-771.2247" gradientTransform="matrix(0.7472 -0.6646 0.6646 0.7472 4549.52 -1168.7673)">
					<stop  offset="0" style="stop-color:#F9B776"/>
					<stop  offset="1" style="stop-color:#F47960"/>
				</linearGradient>
				<path style="fill:url(#SVGID_00000170253361437797719330000001157883297775567799_);" d="M1173.249,837.968
					c0,0-8.691-35.415-23.839-35.49c-15.149-0.075-28.315,13.852-11.177,32.347C1159.55,857.832,1173.249,837.968,1173.249,837.968z
					"/>
			</g>
		</g>
	</g>
</g>
</svg>
